SplineFontDB: 3.2
FontName: Untitled1
FullName: Untitled1
FamilyName: Untitled1
Weight: Regular
Copyright: Copyright (c) 2020, Jack
UComments: "2020-3-4: Created with FontForge (http://fontforge.org)"
Version: 001.000
ItalicAngle: 0
UnderlinePosition: -100
UnderlineWidth: 50
Ascent: 750
Descent: 250
InvalidEm: 0
LayerCount: 2
Layer: 0 0 "Vector" 1
Layer: 1 0 "Fore" 0
XUID: [1021 424 2030559194 30619]
OS2Version: 0
OS2_WeightWidthSlopeOnly: 0
OS2_UseTypoMetrics: 1
CreationTime: 1583342003
ModificationTime: 1583613612
OS2TypoAscent: 0
OS2TypoAOffset: 1
OS2TypoDescent: 0
OS2TypoDOffset: 1
OS2TypoLinegap: 0
OS2WinAscent: 0
OS2WinAOffset: 1
OS2WinDescent: 0
OS2WinDOffset: 1
HheadAscent: 0
HheadAOffset: 1
HheadDescent: 0
HheadDOffset: 1
OS2Vendor: 'PfEd'
Lookup: 4 0 1 "tokiponaWords" { "tokiponaWords subtable"  } ['liga' ('latn' <'dflt' > 'DFLT' <'dflt' > ) ]
Lookup: 260 0 0 "Combining" { "Above"  "Circle"  "Square"  } [' RQD' ('DFLT' <'dflt' > 'latn' <'dflt' > ) ]
MarkAttachClasses: 1
DEI: 91125
Encoding: UnicodeFull
Compacted: 1
UnicodeInterp: none
NameList: AGL For New Fonts
DisplaySize: -72
AntiAlias: 1
FitToEm: 0
WinInfo: 132 12 14
BeginPrivate: 0
EndPrivate
Grid
300 30 m 1024
520 250 m 1024
500 250 m 1024
80 250 m 1024
250 470 m 8
 350 470 l 1024
500 30 m 1
 520 30 l 25
 520 50 l 1024
100 -100 m 0
 800 -100 l 1
 800 600 l 1
 100 600 l 1024
100 524 m 0
 100 600 l 1025
100 -32 m 0
 100 -100 l 1025
100 -200 m 25
 300 -200 l 25
 500 -200 l 1049
300 300 m 25
 300 250 l 25
 350 250 l 1049
100 700 m 25
 300 700 l 25
 500 700 l 1049
100 450 m 1
 200 450 l 0
 300 450 l 0
 500 450 l 1
 500 350 l 0
 500 250 l 0
 500 150 l 0
 500 50 l 1
 400 50 l 0
 300 50 l 0
 200 50 l 0
 100 50 l 1
 100 150 l 0
 100 250 l 0
 100 350 l 0
 100 450 l 1
EndSplineSet
AnchorClass2: "Above" "Above" "Circle" "Circle" "Square" "Square"
BeginChars: 1114244 285

StartChar: tp_a
Encoding: 60928 60928 0
Width: 400
VWidth: 0
Flags: HW
LayerCount: 2
Back
SplineSet
186 242 m 5
 100 450 l 5
 272 450 l 1029
90 146 m 4
 90 199 133 242 186 242 c 4
 239 242 282 199 282 146 c 4
 282 93 239 50 186 50 c 4
 133 50 90 93 90 146 c 4
EndSplineSet
Fore
SplineSet
115 146 m 0
 115 106.807142702 146.807092901 75 186 75 c 0
 225.192857298 75 257 106.807092901 257 146 c 0
 257 185.192857298 225.192907099 217 186 217 c 0
 146.807142702 217 115 185.192907099 115 146 c 0
203.219209888 265.783121532 m 1
 261.875903645 257.419709369 307 206.96154038 307 146 c 0
 307 79.1929070993 252.807142702 25 186 25 c 0
 119.192907099 25 65 79.1928572984 65 146 c 0
 65 200.552627206 101.135015316 246.694297325 150.766482816 261.786365881 c 1
 76.8968737749 440.447745888 l 2
 71.4060837967 453.727796068 78.6198890395 469.349402127 92.2897947362 473.781352669 c 0
 94.7760795722 474.587436608 97.4116682983 475 100 475 c 2
 272 475 l 2
 285.617128764 475 297 463.617128764 297 450 c 0
 297 436.382871236 285.617128764 425 272 425 c 2
 137.389154368 425 l 1
 203.219209888 265.783121532 l 1
EndSplineSet
Ligature2: "tokiponaWords subtable" perc a space
EndChar

StartChar: tp_akesi
Encoding: 60929 60929 1
Width: 600
VWidth: 0
Flags: HW
LayerCount: 2
Back
SplineSet
415 580 m 4
 415 593.799804688 426.200195312 605 440 605 c 4
 453.799804688 605 465 593.799804688 465 580 c 4
 465 566.200195312 453.799804688 555 440 555 c 4
 426.200195312 555 415 566.200195312 415 580 c 4
135 580 m 4
 135 593.799804688 146.200195312 605 160 605 c 4
 173.799804688 605 185 593.799804688 185 580 c 4
 185 566.200195312 173.799804688 555 160 555 c 4
 146.200195312 555 135 566.200195312 135 580 c 4
EndSplineSet
Refer: 36 60964 S 1 0 0 1 0 0 2
Fore
SplineSet
390 580 m 0
 390 607.607900865 412.39097549 630 440 630 c 0
 467.607900865 630 490 607.60902451 490 580 c 0
 490 552.392099135 467.60902451 530 440 530 c 0
 412.392099135 530 390 552.39097549 390 580 c 0
110 580 m 0
 110 607.607900865 132.39097549 630 160 630 c 0
 187.607900865 630 210 607.60902451 210 580 c 0
 210 552.392099135 187.60902451 530 160 530 c 0
 132.392099135 530 110 552.39097549 110 580 c 0
EndSplineSet
Refer: 36 60964 N 1 0 0 1 0 0 2
Ligature2: "tokiponaWords subtable" perc a k e s i space
EndChar

StartChar: tp_ala
Encoding: 60930 60930 2
Width: 500
VWidth: 0
Flags: HW
LayerCount: 2
Back
SplineSet
100 400 m 1
 380 100 l 1025
100 100 m 1
 380 400 l 1025
EndSplineSet
Fore
SplineSet
82.942043741 81.7236182939 m 0
 72.9871700194 91.0148337674 72.4324028204 107.103082537 81.7236182939 117.057956259 c 2
 205.802859119 250 l 1
 81.7236182939 382.942043741 l 2
 72.4324028204 392.896917463 72.9871700194 408.985166233 82.942043741 418.276381706 c 0
 92.8969174626 427.56759718 108.985166233 427.012829981 118.276381706 417.057956259 c 2
 240 286.639793801 l 1
 361.723618294 417.057956259 l 2
 371.014833767 427.012829981 387.103082537 427.56759718 397.057956259 418.276381706 c 0
 407.012829981 408.985166233 407.56759718 392.896917463 398.276381706 382.942043741 c 2
 274.197140881 250 l 1
 398.276381706 117.057956259 l 2
 407.56759718 107.103082537 407.012829981 91.0148337674 397.057956259 81.7236182939 c 0
 387.103082537 72.4324028204 371.014833767 72.9871700194 361.723618294 82.942043741 c 2
 240 213.360206199 l 1
 118.276381706 82.942043741 l 2
 108.985166233 72.9871700194 92.8969174626 72.4324028204 82.942043741 81.7236182939 c 0
EndSplineSet
Ligature2: "tokiponaWords subtable" perc a l a space
EndChar

StartChar: tp_alasa
Encoding: 60931 60931 3
Width: 600
VWidth: 0
Flags: HW
LayerCount: 2
Back
SplineSet
100 250 m 5
 520 250 l 1028
100 450 m 5
 100 50 l 5
 100 50 222 50 300 50 c 31
 410 50 520 111.986328125 520 250 c 7
 520 390 410 450 300 450 c 31
 222 450 100 450 100 450 c 5
EndSplineSet
Fore
SplineSet
75 450 m 2
 75 460.729904333 84.8674621445 475 100 475 c 2
 300 475 l 2
 418.103955434 475 545 407.503182816 545 250 c 0
 545 94.514896801 418.343919747 25 300 25 c 2
 100 25 l 2
 89.2700956673 25 75 34.8674621445 75 50 c 2
 75 250 l 1
 75 450 l 2
125 225 m 1
 125 75 l 1
 300 75 l 2
 394.341026787 75 481.523118914 121.902311542 493.581658237 225 c 1
 125 225 l 1
125 275 m 1
 493.626655797 275 l 1
 481.75686456 379.676178681 394.673355325 425 300 425 c 2
 125 425 l 1
 125 275 l 1
EndSplineSet
Ligature2: "tokiponaWords subtable" perc a l a s a space
EndChar

StartChar: tp_ale
Encoding: 60932 60932 4
Width: 602
VWidth: 0
Flags: HW
LayerCount: 2
Back
SplineSet
83 258.099609375 m 7
 83 147.381835938 126 115 186 115 c 7
 300 115 300 250 300 250 c 5
 300 250 300 385 412 385 c 7
 472 385 520 358 520 250 c 7
 520 143.349609375 486 115 416 115 c 7
 300 115 300 250 300 250 c 5
 300.278320312 250 300 385 180 385 c 7
 132 385 83 360.719726562 83 258.099609375 c 7
EndSplineSet
Fore
SplineSet
299.296598929 344.462094412 m 1
 318.250778957 378.295925855 354.41651724 410 412 410 c 0
 483.993269431 410 545 368.751619614 545 250 c 0
 545 135.77128952 499.616452334 90 416 90 c 0
 357.313304377 90 319.97781764 121.352038943 300.188622144 155.291766245 c 1
 280.752467379 121.464487318 243.948542571 90 186 90 c 0
 111.024621018 90 58 139.41501384 58 258.099609375 c 0
 58 371.758654015 119.639265775 410 180 410 c 0
 240.19004568 410 278.726359034 378.671816857 299.296598929 344.462094412 c 1
325.022887913 251.004665961 m 0
 325.022887913 250.520512292 325.022887913 250.120174601 325.008621552 249.563684938 c 0
 325.034483146 248.465124562 325.180148906 244.137479408 325.827851357 238.235451212 c 0
 329.574894677 204.091446785 345.020800075 140 416 140 c 0
 472.383547666 140 495 150.92792923 495 250 c 0
 495 347.248380386 460.006730569 360 412 360 c 0
 353.309359358 360 334.700794227 313.232100543 327.829432448 275.842777398 c 0
 325.626154583 263.854023097 325.124349581 254.245550938 325.022887913 251.004665961 c 0
275.015821405 251.328997659 m 0
 274.944975926 254.343513602 274.409578514 264.098154864 272.011921427 276.083538872 c 0
 264.738481201 312.44193833 245.303101598 360 180 360 c 0
 144.360734225 360 108 349.68079911 108 258.099609375 c 0
 108 155.348658035 140.975378982 140 186 140 c 0
 250.946819322 140 268.158616675 195.349291634 273.400309671 231.950768587 c 0
 274.917407508 242.544296585 274.998096156 249.851438966 274.999982999 250.051642982 c 0
 275.001322166 250.41644652 275.015821405 250.709764193 275.015821405 251.328997659 c 0
EndSplineSet
Ligature2: "tokiponaWords subtable" perc a l e space
EndChar

StartChar: tp_anpa
Encoding: 60933 60933 5
Width: 600
VWidth: 0
Flags: HW
LayerCount: 2
Back
SplineSet
275 -100 m 4
 275 -86.2001953125 286.200195312 -75 300 -75 c 4
 313.799804688 -75 325 -86.2001953125 325 -100 c 4
 325 -113.799804688 313.799804688 -125 300 -125 c 4
 286.200195312 -125 275 -113.799804688 275 -100 c 4
100 450 m 5
 100 50 l 5
 500 50 l 5
 500 450 l 1029
EndSplineSet
Fore
SplineSet
250 -100 m 0
 250 -72.3920991349 272.39097549 -50 300 -50 c 0
 327.607900865 -50 350 -72.3909754902 350 -100 c 0
 350 -127.607900865 327.60902451 -150 300 -150 c 0
 272.392099135 -150 250 -127.60902451 250 -100 c 0
100 475 m 0
 113.617128764 475 125 463.617128764 125 450 c 2
 125 75 l 1
 475 75 l 1
 475 450 l 2
 475 463.617128764 486.382871236 475 500 475 c 0
 513.617128764 475 525 463.617128764 525 450 c 2
 525 50 l 2
 525 39.2700956673 515.132537856 25 500 25 c 2
 100 25 l 2
 89.2700956673 25 75 34.8674621445 75 50 c 2
 75 450 l 2
 75 463.617128764 86.3828712355 475 100 475 c 0
EndSplineSet
Ligature2: "tokiponaWords subtable" perc a n p a space
EndChar

StartChar: tp_ante
Encoding: 60934 60934 6
Width: 600
VWidth: 0
Flags: HW
LayerCount: 2
Back
SplineSet
100 42 m 5
 500 392 l 5
 500 42 l 1029
100 592 m 5
 100 242 l 4
 500 592 l 1029
EndSplineSet
Fore
SplineSet
81.1855826323 25.5373848033 m 0
 72.218640595 35.7853185603 73.2894510463 51.8474753303 83.5373848033 60.8144173677 c 2
 483.537384803 410.814417368 l 2
 494.352215849 420.277394532 511.462723244 418.459676551 520.048030582 406.935744702 c 0
 523.381317585 402.461522551 525 394.70882517 525 392 c 2
 525 42 l 2
 525 28.3828712355 513.617128764 17 500 17 c 0
 486.382871236 17 475 28.3828712355 475 42 c 2
 475 336.905794335 l 1
 116.462615197 23.1855826323 l 2
 106.21468144 14.218640595 90.1525246697 15.2894510463 81.1855826323 25.5373848033 c 0
100 617 m 0
 113.617128764 617 125 605.617128764 125 592 c 2
 125 297.094205665 l 1
 483.537384803 610.814417368 l 2
 493.78531856 619.781359405 509.84747533 618.710548954 518.814417368 608.462615197 c 0
 527.781359405 598.21468144 526.710548954 582.15252467 516.462615197 573.185582632 c 2
 116.462615197 223.185582632 l 2
 113.569203167 220.653847107 107.408552853 217.50574974 101.961427136 217.077062701 c 0
 87.6353201526 215.949602697 75 227.629596131 75 242 c 2
 75 592 l 2
 75 605.617128764 86.3828712355 617 100 617 c 0
EndSplineSet
Ligature2: "tokiponaWords subtable" perc a n t e space
EndChar

StartChar: tp_anu
Encoding: 60935 60935 7
Width: 560
VWidth: 0
Flags: HW
AnchorPoint: "Square" 280 250 mark 0
AnchorPoint: "Circle" 280 287.355 mark 0
LayerCount: 2
Back
SplineSet
280 250 m 4
 280 50 l 1028
80 450 m 29
 280 250 l 5
 480 450 l 1053
EndSplineSet
Fore
SplineSet
280 285.35546875 m 1025
62.322265625 467.677734375 m 0
 71.951171875 477.306640625 88.048828125 477.306640625 97.677734375 467.677734375 c 2
 280 285.35546875 l 1
 462.322265625 467.677734375 l 2
 471.951171875 477.306640625 488.048828125 477.306640625 497.677734375 467.677734375 c 0
 507.306640625 458.048828125 507.306640625 441.951171875 497.677734375 432.322265625 c 2
 305 239.64453125 l 1
 305 50 l 2
 305 36.3828125 293.6171875 25 280 25 c 0
 266.3828125 25 255 36.3828125 255 50 c 2
 255 239.64453125 l 1
 62.322265625 432.322265625 l 2
 52.693359375 441.951171875 52.693359375 458.048828125 62.322265625 467.677734375 c 0
EndSplineSet
Ligature2: "tokiponaWords subtable" perc a n u space
EndChar

StartChar: tp_awen
Encoding: 60936 60936 8
Width: 600
VWidth: 0
Flags: HW
LayerCount: 2
Back
SplineSet
80 50 m 5
 180 50 l 5
 300 450 l 5
 420 50 l 5
 520 50 l 1029
EndSplineSet
Fore
SplineSet
55 50 m 0
 55 63.6171287645 66.3828712355 75 80 75 c 2
 161.399233728 75 l 1
 276.054342869 457.183697139 l 2
 280.183648036 470.948047694 295.642311217 478.504719887 309.040259802 473.308232509 c 0
 316.440595844 470.437960797 322.098475752 463.340968402 323.945657131 457.183697139 c 2
 438.600766272 75 l 1
 520 75 l 2
 533.617128764 75 545 63.6171287645 545 50 c 0
 545 36.3828712355 533.617128764 25 520 25 c 2
 420 25 l 2
 409.59171841 25 399.251734666 32.1583302044 396.054342869 42.8163028608 c 2
 300 362.997445759 l 1
 203.945657131 42.8163028608 l 2
 200.954859423 32.8469771701 191.12725013 25 180 25 c 2
 80 25 l 2
 66.3828712355 25 55 36.3828712355 55 50 c 0
EndSplineSet
Ligature2: "tokiponaWords subtable" perc a w e n space
EndChar

StartChar: tp_e
Encoding: 60937 60937 9
Width: 600
VWidth: 0
Flags: HW
LayerCount: 2
Back
SplineSet
100 450 m 5
 300 250 l 5
 100 50 l 1029
300 450 m 5
 500 250 l 5
 300 50 l 1029
EndSplineSet
Fore
SplineSet
82.3223304703 467.67766953 m 0
 91.95109456 477.306433619 108.04890544 477.306433619 117.67766953 467.67766953 c 2
 317.67766953 267.67766953 l 2
 328.377989664 256.977349395 325.264857645 239.909518585 317.67766953 232.32233047 c 2
 117.67766953 32.3223304703 l 2
 108.04890544 22.6935663807 91.95109456 22.6935663807 82.3223304703 32.3223304703 c 0
 72.6935663807 41.95109456 72.6935663807 58.04890544 82.3223304703 67.6776695297 c 2
 264.644660941 250 l 1
 82.3223304703 432.32233047 l 2
 72.6935663807 441.95109456 72.6935663807 458.04890544 82.3223304703 467.67766953 c 0
282.32233047 467.67766953 m 0
 291.95109456 477.306433619 308.04890544 477.306433619 317.67766953 467.67766953 c 2
 517.67766953 267.67766953 l 2
 528.377989664 256.977349395 525.264857645 239.909518585 517.67766953 232.32233047 c 2
 317.67766953 32.3223304703 l 2
 308.04890544 22.6935663807 291.95109456 22.6935663807 282.32233047 32.3223304703 c 0
 272.693566381 41.95109456 272.693566381 58.04890544 282.32233047 67.6776695297 c 2
 464.644660941 250 l 1
 282.32233047 432.32233047 l 2
 272.693566381 441.95109456 272.693566381 458.04890544 282.32233047 467.67766953 c 0
EndSplineSet
Ligature2: "tokiponaWords subtable" perc e space
EndChar

StartChar: tp_en
Encoding: 60938 60938 10
Width: 460
VWidth: 0
Flags: HW
LayerCount: 2
Back
SplineSet
80 250 m 5
 380 250 l 1029
230 400 m 5
 230 100 l 1029
EndSplineSet
Fore
SplineSet
230 425 m 0
 243.617128764 425 255 413.617128764 255 400 c 2
 255 275 l 1
 380 275 l 2
 393.617128764 275 405 263.617128764 405 250 c 0
 405 236.382871236 393.617128764 225 380 225 c 2
 255 225 l 1
 255 100 l 2
 255 86.3828712355 243.617128764 75 230 75 c 0
 216.382871236 75 205 86.3828712355 205 100 c 2
 205 225 l 1
 80 225 l 2
 66.3828712355 225 55 236.382871236 55 250 c 0
 55 263.617128764 66.3828712355 275 80 275 c 2
 205 275 l 1
 205 400 l 2
 205 413.617128764 216.382871236 425 230 425 c 0
EndSplineSet
Ligature2: "tokiponaWords subtable" perc e n space
EndChar

StartChar: tp_esun
Encoding: 60939 60939 11
Width: 600
VWidth: 0
Flags: HW
LayerCount: 2
Back
SplineSet
146 450 m 5
 146 450 228.989257812 280 416 280 c 7
 482.030273438 280 520 304 520 364 c 7
 520 416.009765625 481 450 418 450 c 7
 221 450 378.038831292 50 172 50 c 7
 111 50 78 79.9919360083 78 142 c 7
 78 196.037024344 120.960799379 228 172 228 c 7
 286.00390625 228 300 50 400 50 c 7
 492 50 500 122 500 122 c 1029
EndSplineSet
Fore
SplineSet
309.815188249 156.15608561 m 0
 311.094245614 154.279667469 312.497037365 152.216062544 313.626268814 150.552285024 c 0
 344.926872507 104.434865212 367.585337436 75 400 75 c 0
 469.857486775 75 474.620976142 121.308961432 475.397347056 126.439587189 c 0
 477.691901212 139.218358274 489.928082489 148.327464988 502.864562239 146.835343428 c 0
 515.81557447 145.341545659 525.67698256 134.356260544 524.92535508 119.915711546 c 0
 524.401566385 115.374538748 510.707127111 25 400 25 c 0
 347.088622308 25 314.405085824 62.8080853393 289.900389788 96.913679213 c 1
 268.899420498 55.3516422689 230.449449404 25 172 25 c 0
 99.9299762455 25 53 67.3483241879 53 142 c 0
 53 212.222269529 110.798756411 253 172 253 c 0
 213.17831536 253 244.746132617 233.320123396 268.31635481 209.299366073 c 1
 271.722330451 234.210512364 274.28922982 261.0002101 277.482321915 287.218336984 c 1
 171.585116039 340.298858438 125.209770135 435.61080597 123.202133114 439.71046321 c 0
 118.545048852 450.958442643 122.260549317 466.211327623 135.004896689 472.452342933 c 0
 147.748157047 478.692825923 162.104137444 472.228176038 168.073764487 461.758648113 c 0
 169.443714221 458.996323613 207.018907107 384.909467145 285.484874759 339.638296616 c 1
 298.73936719 406.703076997 330.645309176 475 418 475 c 0
 490.453649774 475 545 432.0457376 545 364 c 0
 545 287.163845365 488.379570933 255 416 255 c 0
 383.333381422 255 352.892045358 259.956855367 325.577303628 268.128447075 c 1
 321.760389656 234.730602602 318.433247556 199.463594896 311.983941973 166.566682147 c 0
 311.351167521 163.338997294 310.572358529 159.606648244 309.815188249 156.15608561 c 0
255.664309271 146.326653766 m 0
 253.962418696 148.663995618 252.225172771 151.004741358 250.548228135 153.20673766 c 0
 226.810069778 184.377317646 204.610371376 203 172 203 c 0
 131.122842347 203 103 179.851779159 103 142 c 0
 103 92.6355478287 122.070023754 75 172 75 c 0
 220.023569501 75 240.001463772 98.1293521275 254.179103108 141.59170746 c 0
 254.658526634 143.061407397 255.179660019 144.726333806 255.664309271 146.326653766 c 0
332.422823047 318.420871759 m 1
 357.16976002 310.105389191 384.892577882 305 416 305 c 0
 475.680975942 305 495 320.836154635 495 364 c 0
 495 399.97379365 471.546350226 425 418 425 c 0
 362.987466448 425 344.397480991 388.172207299 332.422823047 318.420871759 c 1
EndSplineSet
Ligature2: "tokiponaWords subtable" perc e s u n space
EndChar

StartChar: tp_ijo
Encoding: 60940 60940 12
Width: 600
VWidth: 0
Flags: HW
HStem: 15 50<220.004 379.996> 435 50<220.004 379.996>
VStem: 65 50<170.004 329.996> 485 50<170.004 329.996>
LayerCount: 2
Back
SplineSet
80 250 m 4
 80 371 179 470 300 470 c 4
 421 470 520 371 520 250 c 4
 520 129 421 30 300 30 c 4
 179 30 80 129 80 250 c 4
EndSplineSet
Fore
SplineSet
105 250 m 0
 105 142.844663702 192.844145687 55 300 55 c 0
 407.155336298 55 495 142.844145687 495 250 c 0
 495 357.155336298 407.155854313 445 300 445 c 0
 192.844663702 445 105 357.155854313 105 250 c 0
55 250 m 0
 55 384.844145687 165.155336298 495 300 495 c 0
 434.844145687 495 545 384.844663702 545 250 c 0
 545 115.155854313 434.844663702 5 300 5 c 0
 165.155854313 5 55 115.155336298 55 250 c 0
EndSplineSet
Ligature2: "tokiponaWords subtable" perc i j o space
EndChar

StartChar: tp_ike
Encoding: 60941 60941 13
Width: 600
VWidth: 0
Flags: HW
LayerCount: 2
Back
SplineSet
100 50 m 5
 100 50 100 172 100 250 c 31
 100 357 176.390625 470 289 470 c 7
 418.72265625 470 500 363 500 250 c 31
 500 172 500 50 500 50 c 1029
EndSplineSet
Fore
SplineSet
100 25 m 0
 86.3828712355 25 75 36.3828712355 75 50 c 2
 75 250 l 2
 75 366.240973601 157.785580042 495 289 495 c 0
 434.515497916 495 525 374.311225743 525 250 c 2
 525 50 l 2
 525 36.3828712355 513.617128764 25 500 25 c 0
 486.382871236 25 475 36.3828712355 475 50 c 2
 475 250 l 2
 475 351.688774257 402.929814584 445 289 445 c 0
 194.995669958 445 125 347.759026399 125 250 c 2
 125 50 l 2
 125 36.3828712355 113.617128764 25 100 25 c 0
EndSplineSet
Ligature2: "tokiponaWords subtable" perc i k e space
EndChar

StartChar: tp_ilo
Encoding: 60942 60942 14
Width: 600
VWidth: 0
Flags: HW
LayerCount: 2
Back
SplineSet
300 450 m 5
 300 -100 l 1029
100 450 m 5
 100 50 l 5
 500 50 l 5
 500 450 l 5
 100 450 l 5
EndSplineSet
Fore
SplineSet
125 425 m 1
 125 75 l 1
 275 75 l 1
 275 425 l 1
 125 425 l 1
75 450 m 2
 75 460.729904333 84.8674621445 475 100 475 c 2
 300 475 l 1
 500 475 l 2
 510.729904333 475 525 465.132537856 525 450 c 2
 525 50 l 2
 525 39.2700956673 515.132537856 25 500 25 c 2
 325 25 l 1
 325 -100 l 2
 325 -113.617128764 313.617128764 -125 300 -125 c 0
 286.382871236 -125 275 -113.617128764 275 -100 c 2
 275 25 l 1
 100 25 l 2
 89.2700956673 25 75 34.8674621445 75 50 c 2
 75 450 l 2
325 75 m 1
 475 75 l 1
 475 425 l 1
 325 425 l 1
 325 75 l 1
EndSplineSet
Ligature2: "tokiponaWords subtable" perc i l o space
EndChar

StartChar: tp_insa
Encoding: 60943 60943 15
Width: 600
VWidth: 0
Flags: HW
LayerCount: 2
Back
SplineSet
275 250 m 4
 275 263.799804688 286.200195312 275 300 275 c 4
 313.799804688 275 325 263.799804688 325 250 c 4
 325 236.200195312 313.799804688 225 300 225 c 4
 286.200195312 225 275 236.200195312 275 250 c 4
100 450 m 5
 100 50 l 5
 500 50 l 5
 500 450 l 1029
EndSplineSet
Fore
SplineSet
250 250 m 0
 250 277.607900865 272.39097549 300 300 300 c 0
 327.607900865 300 350 277.60902451 350 250 c 0
 350 222.392099135 327.60902451 200 300 200 c 0
 272.392099135 200 250 222.39097549 250 250 c 0
100 475 m 0
 113.617128764 475 125 463.617128764 125 450 c 2
 125 75 l 1
 475 75 l 1
 475 450 l 2
 475 463.617128764 486.382871236 475 500 475 c 0
 513.617128764 475 525 463.617128764 525 450 c 2
 525 50 l 2
 525 39.2700956673 515.132537856 25 500 25 c 2
 100 25 l 2
 89.2700956673 25 75 34.8674621445 75 50 c 2
 75 450 l 2
 75 463.617128764 86.3828712355 475 100 475 c 0
EndSplineSet
Ligature2: "tokiponaWords subtable" perc i n s a space
EndChar

StartChar: tp_jaki
Encoding: 60944 60944 16
Width: 600
VWidth: 0
Flags: HW
LayerCount: 2
Back
SplineSet
244 600 m 29
 244 600 100 560 100 446 c 7
 100 349.98828125 304.48046875 228.5 304.48046875 165.5 c 7
 304.48046875 102.5 235.360351562 50 192.16015625 50 c 7
 148.959960938 50 98.560546875 84.5 98.560546875 150.5 c 7
 98.560546875 255.5 500 334.490234375 500 450 c 7
 500 546.01171875 436.672851562 565.5 404.959960938 565.5 c 7
 373.247070312 565.5 327.200195312 534.009765625 327.200195312 427.5 c 7
 327.200195312 328.48828125 500 188 500 188 c 1029
EndSplineSet
Fore
SplineSet
404.123461219 320.338878263 m 1
 452.824690376 258.719946508 515.781546055 207.389244547 515.781546055 207.389244547 c 2
 526.342579641 198.793270758 527.985218337 182.779487531 519.389244547 172.218453945 c 0
 511.159564009 162.107449108 496.593331497 159.709101367 484.827769068 168.114812129 c 0
 482.827131153 169.743197357 412.718829731 226.548715916 358.878863186 297.111599857 c 1
 331.147885279 283.512390947 302.055626394 270.067408449 274.5718601 256.986314022 c 1
 301.827966154 228.666860808 329.48046875 200.020822894 329.48046875 165.5 c 0
 329.48046875 85.8691093088 249.238898216 25 192.16015625 25 c 0
 136.490465801 25 73.560546875 69.8091684662 73.560546875 150.5 c 0
 73.560546875 205.456918602 133.161693009 240.422492848 189.746860545 270.607342865 c 1
 138.24684364 321.030963184 75 380.573275476 75 446 c 0
 75 582.60869146 237.836199328 624.235296312 238.029712801 624.289360172 c 0
 249.937288824 626.822417788 264.259656162 620.393994433 268.077970433 606.726911611 c 0
 271.895988452 593.06088918 262.932186533 580.122341502 251.540866866 576.153386835 c 0
 243.319968351 573.81645792 125 535.453401166 125 446 c 0
 125 409.691563038 178.901447912 350.976507631 236.958003597 294.400510286 c 1
 267.638627477 309.236114957 300.156314228 324.148917567 330.675274753 338.980686566 c 1
 314.521513291 366.998317106 302.200195312 397.208194945 302.200195312 427.5 c 0
 302.200195312 540.146587796 353.875942873 590.5 404.959960938 590.5 c 0
 446.261980075 590.5 525 561.479635952 525 450 c 0
 525 391.373525501 463.71574588 352.788503182 404.123461219 320.338878263 c 1
227.276976037 233.788959491 m 1
 158.186514019 198.407882517 123.560546875 166.529212177 123.560546875 150.5 c 0
 123.560546875 99.1908315338 161.429456074 75 192.16015625 75 c 0
 221.481804909 75 279.48046875 119.130890691 279.48046875 165.5 c 0
 279.48046875 171.587395693 261.711485855 199.229212951 227.276976037 233.788959491 c 1
375.359168506 361.635658608 m 1
 441.104101316 396.883583655 475 429.676888199 475 450 c 0
 475 530.543801548 427.08372305 540.5 404.959960938 540.5 c 0
 392.618197752 540.5 352.200195312 527.872943454 352.200195312 427.5 c 0
 352.200195312 410.123268701 360.51772673 386.678695361 375.359168506 361.635658608 c 1
EndSplineSet
Ligature2: "tokiponaWords subtable" perc j a k i space
EndChar

StartChar: tp_jan
Encoding: 60945 60945 17
Width: 600
VWidth: 0
Flags: HW
LayerCount: 2
Back
SplineSet
501 -120 m 29
 389 50 l 1053
101 -120 m 29
 213 50 l 1053
EndSplineSet
Refer: 12 60940 S 1 0 0 1 0 0 2
Fore
SplineSet
87.2460576762 -140.876519599 m 0
 75.874927455 -133.384951453 72.6319122556 -117.617187897 80.1234804013 -106.246057676 c 2
 175.808786164 38.9905671423 l 1
 103.624852753 81.718755959 55 160.410204543 55 250 c 0
 55 384.84375 165.155273438 495 300 495 c 0
 434.84375 495 545 384.844726562 545 250 c 0
 545 161.005949886 497.019408979 82.765092097 425.626968725 39.8470106141 c 1
 521.876519599 -106.246057676 l 2
 529.368087744 -117.617187897 526.125072545 -133.384951453 514.753942324 -140.876519599 c 0
 503.382812103 -148.368087744 487.615048547 -145.125072545 480.123480401 -133.753942324 c 2
 379.865930963 18.4226952161 l 1
 354.810108304 9.72752468197 327.934847055 5 300 5 c 0
 272.670516477 5 246.3551272 9.52487408215 221.765388292 17.8630905138 c 1
 121.876519599 -133.753942324 l 2
 114.384951453 -145.125072545 98.6171878973 -148.368087744 87.2460576762 -140.876519599 c 0
373.19459274 69.3654380144 m 0
 373.845727749 69.8998599047 374.529766643 70.4046094309 375.246057676 70.8765195987 c 0
 378.23405621 72.8450833383 381.525635152 74.0724414878 384.890860124 74.6058856186 c 0
 449.890456166 106.341065149 495.000000056 173.211907791 495 250 c 0
 495 357.155273438 407.15625 445 300 445 c 0
 192.844726562 445 105 357.15625 105 250 c 0
 105 173.431042906 149.852766286 106.721995548 214.554488157 74.8777375288 c 0
 218.796004082 74.6439995313 223.012912089 73.3411983442 226.753942324 70.8765195987 c 0
 228.079717879 70.0030674681 229.295003532 69.0171124979 230.395668316 67.9387397232 c 0
 252.044172968 59.5853537579 275.518045731 55.0000000043 300 55 c 0
 325.841684898 55 350.560293842 60.1088767164 373.19459274 69.3654380144 c 0
EndSplineSet
Ligature2: "tokiponaWords subtable" perc j a n space
EndChar

StartChar: tp_jelo
Encoding: 60946 60946 18
Width: 600
VWidth: 0
Flags: HW
LayerCount: 2
Back
SplineSet
300 374.6796875 m 5
 100 50 l 5
 500 50 l 5
 300 374.6796875 l 5
100 486.6796875 m 1
 191.639648438 487.33984375 l 1024
500 487 m 1
 408.360351562 487.33984375 l 1024
300 700 m 1
 300 600 l 1024
191.639648438 487.33984375 m 0
 191.639648438 548.909179688 240.780273438 600 300 600 c 0
 359.219726562 600 408.360351562 548.909179688 408.360351562 487.33984375 c 0
 408.360351562 425.76953125 359.219726562 374.6796875 300 374.6796875 c 4
 240.780273438 374.6796875 191.639648438 425.76953125 191.639648438 487.33984375 c 0
EndSplineSet
Fore
SplineSet
216.639648438 487.33984375 m 0
 216.639648438 438.833074521 255.520268303 399.6796875 300 399.6796875 c 0
 344.475415276 399.6796875 383.360351562 438.839949881 383.360351562 487.33984375 c 0
 383.360351562 535.845682648 344.479537848 575 300 575 c 0
 255.524776217 575 216.639648438 535.838801743 216.639648438 487.33984375 c 0
300 725 m 0
 313.617128764 725 325 713.617128764 325 700 c 2
 325 622.551939617 l 1
 378.948216493 611.848643863 421.167274918 567.234855194 431.125399194 512.25559195 c 1
 500.092711348 511.999828092 l 2
 513.709746476 511.949329597 525.050326586 500.524323781 524.999828092 486.907288652 c 0
 524.949329597 473.290253524 513.524323781 461.949673414 499.907288652 462.000171908 c 2
 431.095260833 462.255359897 l 1
 422.076939556 412.801219609 386.957519253 371.764759731 340.690092349 356.290414935 c 1
 521.285687785 63.1118074854 l 2
 522.513664476 61.1183120441 524.614501645 55.8805747372 524.922937299 51.9614271361 c 0
 526.050397303 37.6353201526 514.370403869 25 500 25 c 2
 100 25 l 2
 97.6586433788 25 92.0972588372 25.9583375661 88.598622792 27.7512113192 c 0
 75.8096596343 34.304907125 71.1774334545 50.8764502815 78.7143122154 63.1118074854 c 2
 259.310499031 356.291374981 l 1
 213.070083894 371.758766795 177.962394024 412.761021698 168.919812081 462.17552528 c 1
 100.180091023 461.680336164 l 2
 86.5633155761 461.582243258 75.0987415699 472.88282103 75.0006486639 486.499596477 c 0
 74.902555758 500.116371924 86.2031335302 511.58094593 99.819908977 511.679038836 c 2
 168.85979999 512.176390324 l 1
 178.790543374 567.196352886 221.022797757 611.845289033 275 622.552415811 c 1
 275 700 l 2
 275 713.617128764 286.382871236 725 300 725 c 0
300 327.012727724 m 1
 144.762245729 75 l 1
 455.237754271 75 l 1
 300 327.012727724 l 1
EndSplineSet
Ligature2: "tokiponaWords subtable" perc j e l o space
EndChar

StartChar: tp_jo
Encoding: 60947 60947 19
Width: 600
VWidth: 0
Flags: HW
LayerCount: 2
Back
SplineSet
300 250 m 5
 500 250 l 5
 500 184 462.30859375 50 300 50 c 7
 166 50 100 138 100 236 c 7
 100 376 248.799804688 416 248.799804688 416 c 1029
199.200195312 499.200195312 m 4
 199.200195312 555.200195312 244 600 300 600 c 4
 356 600 400.799804688 555.200195312 400.799804688 499.200195312 c 4
 400.799804688 443.200195312 356 398.400390625 300 398.400390625 c 4
 244 398.400390625 199.200195312 443.200195312 199.200195312 499.200195312 c 4
EndSplineSet
Fore
SplineSet
174.200195312 499.200195312 m 0
 174.200195312 568.945507518 230.254673588 625 300 625 c 0
 369.745312206 625 425.799804688 568.945521724 425.799804688 499.200195312 c 0
 425.799804688 429.454883107 369.745326412 373.400390625 300 373.400390625 c 0
 279.151133118 373.400390625 259.525654527 378.40932316 242.255171957 387.295581637 c 1
 208.306765615 374.047818034 125 331.723947708 125 236 c 0
 125 150.441286079 179.412779092 75 300 75 c 0
 425.174777367 75 464.214568713 161.190695418 473.178522886 225 c 1
 300 225 l 2
 286.382871236 225 275 236.382871236 275 250 c 0
 275 263.617128764 286.382871236 275 300 275 c 2
 500 275 l 2
 515.132537856 275 525 260.729904333 525 250 c 0
 525 177.772465678 481.567491072 25 300 25 c 0
 152.587220908 25 75 125.558713921 75 236 c 0
 75 343.647006669 149.747124238 398.594241651 199.534297302 423.256582335 c 1
 183.617263075 444.326346507 174.200195312 470.613250287 174.200195312 499.200195312 c 0
269.872166419 429.495578341 m 1
 279.079971968 425.568112123 289.258575188 423.400390625 300 423.400390625 c 0
 342.254673588 423.400390625 375.799804688 456.945507518 375.799804688 499.200195312 c 0
 375.799804688 541.454868901 342.254687794 575 300 575 c 0
 257.745326412 575 224.200195312 541.454883107 224.200195312 499.200195312 c 0
 224.200195312 475.551988137 234.707135261 454.631767877 251.367459208 440.793097788 c 1
 259.205530273 440.013467541 265.876428632 435.783812183 269.872166419 429.495578341 c 1
EndSplineSet
Ligature2: "tokiponaWords subtable" perc j o space
EndChar

StartChar: tp_kala
Encoding: 60948 60948 20
Width: 600
VWidth: 0
Flags: HW
LayerCount: 2
Back
SplineSet
100 450 m 7
 100 350 197.46484375 100 347 100 c 7
 438 100 500 163.9765625 500 250 c 7
 500 336.0234375 438 400 347 400 c 7
 196.00390625 400 100 152 100 50 c 1028
EndSplineSet
Fore
SplineSet
162.345274166 198.125144535 m 1
 137.952305069 141.356292 125 83.3974287021 125 50 c 0
 125 36.3828712355 113.617128764 25 100 25 c 0
 86.3828712355 25 75 36.3828712355 75 50 c 0
 75 100.991457115 94.7154560088 176.256320752 130.003760944 247.253975669 c 0
 130.47255971 248.197166709 131.215640572 249.67801253 131.82598023 250.888915894 c 0
 131.203230343 252.126900189 130.437356403 253.655940558 129.966570223 254.604831966 c 0
 94.8395419669 325.404988705 75 399.967160545 75 450 c 0
 75 463.617128764 86.3828712355 475 100 475 c 0
 113.617128764 475 125 463.617128764 125 450 c 0
 125 417.742540074 138.057477045 360.177105485 162.404469675 303.523601539 c 1
 205.929045561 368.557788031 267.897952677 425 347 425 c 0
 451.127612286 425 525 349.380968291 525 250 c 0
 525 150.605438841 451.11352892 75 347 75 c 0
 268.048036063 75 205.993905284 132.520335579 162.345274166 198.125144535 c 1
188.586164956 250.853169087 m 2
 188.586164956 250.853169087 188.846896018 250.395834194 189.345666794 249.52910026 c 0
 231.12013812 176.935929831 287.200097463 125 347 125 c 0
 424.88647108 125 475 177.347686159 475 250 c 0
 475 322.665906709 424.872387714 375 347 375 c 0
 286.763028759 375 231.2042525 324.284937126 189.756904427 252.881486084 c 0
 189.43708868 252.330523256 188.975418684 251.530187369 188.586164956 250.853169087 c 2
EndSplineSet
Ligature2: "tokiponaWords subtable" perc k a l a space
EndChar

StartChar: tp_kalama
Encoding: 60949 60949 21
Width: 600
VWidth: 0
Flags: HW
LayerCount: 2
Back
SplineSet
423 543 m 5
 500 650 l 1029
300 550 m 5
 300 700 l 1029
100 650 m 5
 177 551 l 1029
EndSplineSet
Refer: 112 61040 S 1 0 0 1 0 0 2
Fore
SplineSet
408.397378199 522.708045029 m 0
 397.34465165 530.661876284 394.754213775 546.549895253 402.708045029 557.602621801 c 2
 479.708045029 664.602621801 l 2
 487.661876284 675.65534835 503.549895253 678.245786225 514.602621801 670.291954971 c 0
 525.65534835 662.338123716 528.245786225 646.450104747 520.291954971 635.397378199 c 2
 443.291954971 528.397378199 l 2
 435.338123716 517.34465165 419.450104747 514.754213775 408.397378199 522.708045029 c 0
300 525 m 0
 286.382871236 525 275 536.382871236 275 550 c 2
 275 700 l 2
 275 713.617128764 286.382871236 725 300 725 c 0
 313.617128764 725 325 713.617128764 325 700 c 2
 325 550 l 2
 325 536.382871236 313.617128764 525 300 525 c 0
84.6514846621 669.733805434 m 0
 95.4001954467 678.093913822 111.373697046 676.097226122 119.733805434 665.348515338 c 2
 196.733805434 566.348515338 l 2
 205.093913822 555.599804553 203.097226122 539.626302954 192.348515338 531.266194566 c 0
 181.599804553 522.906086178 165.626302954 524.902773878 157.266194566 535.651484662 c 2
 80.2661945656 634.651484662 l 2
 71.9060861776 645.400195447 73.9027738776 661.373697046 84.6514846621 669.733805434 c 0
EndSplineSet
Refer: 112 61040 N 1 0 0 1 0 0 2
Ligature2: "tokiponaWords subtable" perc k a l a m a space
EndChar

StartChar: tp_kama
Encoding: 60950 60950 22
Width: 600
VWidth: 0
Flags: HW
LayerCount: 2
Back
SplineSet
100 50 m 5
 300 450 l 5
 500 50 l 5
 300 50 l 1029
EndSplineSet
Fore
SplineSet
88.8196601125 27.639320225 m 0
 76.6401298822 33.7290853401 71.5495551099 49.0008096572 77.639320225 61.1803398875 c 2
 277.639320225 461.180339887 l 2
 284.065960208 474.033619854 300.590785978 478.829836616 312.900230163 471.414575918 c 0
 317.050823724 468.914240985 321.398805947 463.104087543 322.360679775 461.180339887 c 2
 522.360679775 61.1803398875 l 2
 528.787319758 48.3270599212 522.709397706 32.2294692478 509.391522636 26.8310703187 c 0
 506.413667783 25.6239972409 502.904077234 25 500 25 c 2
 300 25 l 2
 286.382871236 25 275 36.3828712355 275 50 c 0
 275 63.6171287645 286.382871236 75 300 75 c 2
 459.549150281 75 l 1
 300 394.098300563 l 1
 122.360679775 38.8196601125 l 2
 116.27091466 26.6401298822 100.999190343 21.5495551099 88.8196601125 27.639320225 c 0
EndSplineSet
Ligature2: "tokiponaWords subtable" perc k a m a space
EndChar

StartChar: tp_kasi
Encoding: 60951 60951 23
Width: 600
VWidth: 0
Flags: HW
LayerCount: 2
Back
SplineSet
300 50 m 5
 300 250 l 1028
500 450 m 5
 368 446 304 360 300 250 c 5
 456 264 486 328 500 450 c 5
100 450 m 5
 232 446 296 360 300 250 c 5
 144 264 114 328 100 450 c 5
EndSplineSet
Fore
SplineSet
128.928968168 422.449758731 m 1
 142.844948782 335.520089167 165.501607067 294.921079799 272.274371878 278.475233686 c 1
 260.608038145 353.877446539 216.469952812 409.44358789 128.928968168 422.449758731 c 1
471.071031832 422.449758731 m 1
 383.530047188 409.44358789 339.391961855 353.877446539 327.725628122 278.475233686 c 1
 434.498392933 294.921079799 457.155051218 335.520089167 471.071031832 422.449758731 c 1
499.242771834 474.988529479 m 0
 510.839897328 475.339957524 526.772966394 464.020400961 524.837001788 447.149852254 c 0
 510.904007929 325.733762909 473.407951095 247.711381976 325 227.643494141 c 1
 325 50 l 2
 325 36.3828712355 313.617128764 25 300 25 c 0
 286.382871236 25 275 36.3828712355 275 50 c 2
 275 227.643494141 l 1
 126.592048905 247.711381976 89.0959920711 325.733762909 75.1629982118 447.149852254 c 0
 73.4199169504 462.339560389 86.2206350737 475.4290323 100.757228166 474.988529479 c 0
 200.518338103 471.965465541 266.756312846 424.420957322 300 356.094447058 c 1
 333.243687154 424.420957322 399.481661897 471.965465541 499.242771834 474.988529479 c 0
EndSplineSet
Ligature2: "tokiponaWords subtable" perc k a s i space
EndChar

StartChar: tp_ken
Encoding: 60952 60952 24
Width: 400
VWidth: 0
Flags: HW
LayerCount: 2
Back
SplineSet
300 450 m 5
 100 250 l 5
 300 50 l 1029
100 450 m 5
 100 50 l 1029
EndSplineSet
Fore
SplineSet
100 475 m 0
 113.617128764 475 125 463.617128764 125 450 c 2
 125 310.355339059 l 1
 282.32233047 467.67766953 l 2
 291.95109456 477.306433619 308.04890544 477.306433619 317.67766953 467.67766953 c 0
 327.306433619 458.04890544 327.306433619 441.95109456 317.67766953 432.32233047 c 2
 135.355339059 250 l 1
 317.67766953 67.6776695297 l 2
 327.306433619 58.04890544 327.306433619 41.95109456 317.67766953 32.3223304703 c 0
 308.04890544 22.6935663807 291.95109456 22.6935663807 282.32233047 32.3223304703 c 2
 125 189.644660941 l 1
 125 50 l 2
 125 36.3828712355 113.617128764 25 100 25 c 0
 86.3828712355 25 75 36.3828712355 75 50 c 2
 75 450 l 2
 75 463.617128764 86.3828712355 475 100 475 c 0
EndSplineSet
Ligature2: "tokiponaWords subtable" perc k e n space
EndChar

StartChar: tp_kepeken
Encoding: 60953 60953 25
Width: 600
VWidth: 0
Flags: HW
LayerCount: 2
Back
SplineSet
100 128 m 5
 100 128 197 48 197 50 c 4
 197 50.9931640625 187 129.999023438 187 200 c 7
 187 280.000976562 214.458010171 348.472524137 300 350 c 4
 500 353.571289062 500 50 500 50 c 1029
300 600 m 5
 300 350 l 1029
100 600 m 5
 100 450 l 5
 500 450 l 5
 500 600 l 5
 100 600 l 5
EndSplineSet
Fore
SplineSet
80.7124346486 143.9056538 m 0
 89.3760080839 154.411304238 105.400003363 155.951138787 115.9056538 147.287565351 c 2
 115.9056538 147.287565351 141.920960324 125.842685932 166.331474922 105.970208525 c 1
 163.980031367 134.837829622 162 167.291245561 162 200 c 0
 162 283.68794131 194.136907902 373.113646826 299.55366002 374.996015295 c 0
 530.980467096 379.128475419 525.000553645 49.2321465359 525.000553645 49.2321465359 c 1
 524.102886551 34.8002927679 513.05465678 25.0092818239 500.017787042 25.0000063276 c 0
 486.400661724 24.9903179899 475.009694665 36.3650876401 475.000006328 49.982212958 c 0
 474.977000898 60.7135563179 468.164466752 327.998834264 300.44633998 325.003984705 c 0
 234.779112441 323.831401448 212 276.314011815 212 200 c 0
 212 130.219850295 222 57.5784104927 222 50 c 0
 222 26.0410040047 193.947023922 25.0747986865 192.119525898 25.432762217 c 0
 167.189926013 30.3158797202 85.8109835986 107.296795107 84.0943461996 108.712434649 c 0
 73.5886957619 117.376008084 72.0488612133 133.400003363 80.7124346486 143.9056538 c 0
300 625 m 0
 313.617128764 625 325 613.617128764 325 600 c 2
 325 350 l 2
 325 336.382871236 313.617128764 325 300 325 c 0
 286.382871236 325 275 336.382871236 275 350 c 2
 275 600 l 2
 275 613.617128764 286.382871236 625 300 625 c 0
75 600 m 2
 75 610.729904333 84.8674621445 625 100 625 c 2
 500 625 l 2
 510.729904333 625 525 615.132537856 525 600 c 2
 525 450 l 2
 525 439.270095667 515.132537856 425 500 425 c 2
 100 425 l 2
 89.2700956673 425 75 434.867462144 75 450 c 2
 75 600 l 2
125 575 m 1
 125 475 l 1
 475 475 l 1
 475 575 l 1
 125 575 l 1
EndSplineSet
Ligature2: "tokiponaWords subtable" perc k e p e k e n space
EndChar

StartChar: tp_kili
Encoding: 60954 60954 26
Width: 600
VWidth: 0
Flags: HW
LayerCount: 2
Back
SplineSet
300 410 m 5
 300 600 l 1028
300 30 m 7
 453.029408938 30 520 148 520 280 c 7
 520 360 487 460 400 460 c 7
 321 460 300 410 300 410 c 5
 300 410 278 460 200 460 c 7
 115 460 80 360 80 280 c 7
 80 162 144.919375807 30 300 30 c 7
EndSplineSet
Fore
SplineSet
300 55 m 0
 435.488945393 55 495 155.716119364 495 280 c 0
 495 358.977680114 462.385647748 435 400 435 c 0
 338.197673863 435 323.955259778 402.127886421 321.99075603 398.103117174 c 0
 320.038420125 394.366978057 317.081622316 391.308632572 313.565045198 389.099400966 c 0
 309.636613296 386.514460202 304.966937969 384.999999149 300 385 c 0
 297.63990286 385 295.346921075 385.341932587 293.168685565 385.978167177 c 0
 291.548586335 386.42217947 289.957380646 387.040293905 288.421695926 387.842769244 c 0
 285.222726552 389.514396919 282.730258265 391.683476423 280.647683151 394.325572573 c 0
 279.611543492 395.595840256 278.695875605 396.966544831 277.919584309 398.418783482 c 0
 277.486485923 399.178654984 277.06966584 399.966481742 276.664700621 400.781899473 c 2
 276.664700621 400.781899473 260.002001503 435 200 435 c 0
 139.569179599 435 105 358.677692895 105 280 c 0
 105 169.160190141 163.669365949 55 300 55 c 0
300 5 m 0
 126.169385666 5 55 154.839809859 55 280 c 0
 55 361.322307105 90.4308204015 485 200 485 c 0
 231.67838718 485 256.266411777 477.721654097 275 467.679816099 c 1
 275 600 l 2
 275 613.617128764 286.382871236 625 300 625 c 0
 313.617128764 625 325 613.617128764 325 600 c 2
 325 467.743155869 l 1
 343.505875223 477.487707317 368.343291798 485 400 485 c 0
 511.614352252 485 545 361.022319886 545 280 c 0
 545 140.283880636 470.569872484 5 300 5 c 0
EndSplineSet
Ligature2: "tokiponaWords subtable" perc k i l i space
EndChar

StartChar: tp_kiwen
Encoding: 60955 60955 27
Width: 600
VWidth: 0
Flags: HW
LayerCount: 2
Back
SplineSet
300 50 m 5
 100 320 l 5
 210 450 l 5
 390 450 l 5
 500 320 l 5
 300 50 l 5
EndSplineSet
Fore
SplineSet
300 92.000744041 m 1
 468.12413488 318.968326129 l 1
 378.405026219 425 l 1
 221.594973781 425 l 1
 131.87586512 318.968326129 l 1
 300 92.000744041 l 1
279.911070166 35.1193112344 m 2
 79.9110701664 305.119311234 l 2
 72.8645346838 314.632134136 74.0528357502 328.038320355 80.9153428658 336.148556037 c 2
 190.915342866 466.148556037 l 2
 195.677157518 471.776155171 203.062549763 475 210 475 c 2
 390 475 l 2
 397.371889228 475 404.603464978 471.444510403 409.084657134 466.148556037 c 2
 519.084657134 336.148556037 l 2
 526.731572872 327.111291983 526.412642759 313.656323684 520.088929834 305.119311234 c 2
 320.088929834 35.1193112344 l 2
 309.984732722 21.4786451335 289.313670268 22.4258010977 279.911070166 35.1193112344 c 2
EndSplineSet
Ligature2: "tokiponaWords subtable" perc k i w e n space
EndChar

StartChar: tp_ko
Encoding: 60956 60956 28
Width: 600
VWidth: 0
Flags: HW
LayerCount: 2
Back
SplineSet
214 274 m 5
 214 274 90 252 90 162 c 7
 90 100 138 40 200 40 c 7
 251 40 300 110 300 110 c 5
 300 110 350 40 400 40 c 7
 465 40 510 100 510 165 c 7
 510 265 390 280 390 280 c 5
 390 280 402 319 402 340 c 31
 402 400 380.385742188 460 300 460 c 7
 223.138671875 460 196 401 196 338 c 31
 196 311 214 274 214 274 c 5
EndSplineSet
Fore
SplineSet
180.272238767 290.853827595 m 1
 175.88505148 303.930083034 171 320.655747769 171 338 c 0
 171 406.985845303 204.586518215 485 300 485 c 0
 399.486708498 485 427 404.639186992 427 340 c 0
 427 325.800002135 424.2791026 313.223514834 420.879276079 298.668007542 c 1
 456.724618629 288.151736953 535 254.715537341 535 165 c 0
 535 89.9484109989 482.363850885 15 400 15 c 0
 355.225003291 15 321.269232521 48.2306071516 300.131779895 70.8436932627 c 1
 280.798895683 49.9402887087 245.552192713 15 200 15 c 0
 120.974500382 15 65 88.8905210857 65 162 c 0
 65 244.348556412 142.447507626 278.342966954 180.272238767 290.853827595 c 1
218.949639915 249.491725599 m 0
 209.301654197 247.709253164 115 224.732030539 115 162 c 0
 115 111.109478914 155.025499618 65 200 65 c 0
 231.30445836 65 277.290678854 121.191578741 279.535280448 124.359512944 c 0
 287.818160515 136.145019724 304.863103082 138.422639809 315.93543746 129.262965321 c 0
 317.632233833 127.859277361 320.316903904 124.567889887 320.316903904 124.567889887 c 2
 322.650529878 121.313331057 369.747039147 65 400 65 c 0
 447.636149115 65 485 110.051589001 485 165 c 0
 485 238.521602141 394.839677351 254.117191029 385.763681112 255.346232186 c 0
 368.68197875 258.896185585 362.563079818 275.787606772 366.096308518 287.322126299 c 2
 366.096308518 287.322126299 377 325.59806661 377 340 c 0
 377 395.360813008 361.284775878 435 300 435 c 0
 241.690825535 435 221 395.014154697 221 338 c 0
 221 319.576390224 236.504502873 284.88794519 236.504502873 284.88794519 c 2
 244.222030512 268.936439197 232.228671938 252.391483943 218.949639915 249.491725599 c 0
EndSplineSet
Ligature2: "tokiponaWords subtable" perc k o space
EndChar

StartChar: tp_kule
Encoding: 60958 60958 30
Width: 600
VWidth: 0
Flags: HW
AnchorPoint: "Square" 300 254 mark 0
AnchorPoint: "Circle" 300 227 mark 0
LayerCount: 2
Back
SplineSet
100 210 m 5
 500 210 l 1029
300 450 m 5
 100 50 l 5
 500 50 l 5
 300 450 l 5
EndSplineSet
Fore
SplineSet
75 210 m 0
 75 223.617128764 86.3828712355 235 100 235 c 2
 500 235 l 2
 513.617128764 235 525 223.617128764 525 210 c 0
 525 196.382871236 513.617128764 185 500 185 c 2
 100 185 l 2
 86.3828712355 185 75 196.382871236 75 210 c 0
277.639320225 461.180339887 m 2
 279.093860399 464.089420235 283.016526515 468.954813051 287.099769837 471.414575918 c 0
 299.409214022 478.829836616 315.934039792 474.033619854 322.360679775 461.180339887 c 2
 522.360679775 61.1803398875 l 2
 523.453743617 58.994212204 524.673650557 55.1289971785 524.922937299 51.9614271361 c 0
 526.050397303 37.6353201526 514.370403869 25 500 25 c 2
 100 25 l 2
 97.5558349461 25 93.5531225594 25.6374587713 90.6084773639 26.8310703187 c 0
 77.2906022944 32.2294692478 71.2126802419 48.3270599212 77.639320225 61.1803398875 c 2
 277.639320225 461.180339887 l 2
300 394.098300563 m 1
 140.450849719 75 l 1
 459.549150281 75 l 1
 300 394.098300563 l 1
EndSplineSet
Ligature2: "tokiponaWords subtable" perc k u l e space
EndChar

StartChar: tp_kulupu
Encoding: 60959 60959 31
Width: 600
VWidth: 0
Flags: HW
LayerCount: 2
Back
SplineSet
360 130 m 4
 360 174 396 210 440 210 c 4
 484 210 520 174 520 130 c 4
 520 86 484 50 440 50 c 4
 396 50 360 86 360 130 c 4
80 130 m 4
 80 174 116 210 160 210 c 4
 204 210 240 174 240 130 c 4
 240 86 204 50 160 50 c 4
 116 50 80 86 80 130 c 4
220 370 m 4
 220 414 256 450 300 450 c 4
 344 450 380 414 380 370 c 4
 380 326 344 290 300 290 c 4
 256 290 220 326 220 370 c 4
EndSplineSet
Fore
SplineSet
385 130 m 0
 385 99.8443191729 409.844147731 75 440 75 c 0
 470.155680827 75 495 99.8441477314 495 130 c 0
 495 160.155680827 470.155852269 185 440 185 c 0
 409.844319173 185 385 160.155852269 385 130 c 0
335 130 m 0
 335 187.844147731 382.155680827 235 440 235 c 0
 497.844147731 235 545 187.844319173 545 130 c 0
 545 72.1558522686 497.844319173 25 440 25 c 0
 382.155852269 25 335 72.1556808271 335 130 c 0
105 130 m 0
 105 99.8443191729 129.844147731 75 160 75 c 0
 190.155680827 75 215 99.8441477314 215 130 c 0
 215 160.155680827 190.155852269 185 160 185 c 0
 129.844319173 185 105 160.155852269 105 130 c 0
55 130 m 0
 55 187.844147731 102.155680827 235 160 235 c 0
 217.844147731 235 265 187.844319173 265 130 c 0
 265 72.1558522686 217.844319173 25 160 25 c 0
 102.155852269 25 55 72.1556808271 55 130 c 0
245 370 m 0
 245 339.844319173 269.844147731 315 300 315 c 0
 330.155680827 315 355 339.844147731 355 370 c 0
 355 400.155680827 330.155852269 425 300 425 c 0
 269.844319173 425 245 400.155852269 245 370 c 0
195 370 m 0
 195 427.844147731 242.155680827 475 300 475 c 0
 357.844147731 475 405 427.844319173 405 370 c 0
 405 312.155852269 357.844319173 265 300 265 c 0
 242.155852269 265 195 312.155680827 195 370 c 0
EndSplineSet
Ligature2: "tokiponaWords subtable" perc k u l u p u space
EndChar

StartChar: tp_kute
Encoding: 60960 60960 32
Width: 550
VWidth: 0
Flags: HW
LayerCount: 2
Back
SplineSet
225 250 m 4
 225 263.799804688 236.200195312 275 250 275 c 4
 263.799804688 275 275 263.799804688 275 250 c 4
 275 236.200195312 263.799804688 225 250 225 c 4
 236.200195312 225 225 236.200195312 225 250 c 4
EndSplineSet
Refer: 33 60961 N 1 0 0 1 0 0 2
Fore
SplineSet
200 250 m 0
 200 277.607421875 222.390625 300 250 300 c 0
 277.607421875 300 300 277.609375 300 250 c 0
 300 222.392578125 277.609375 200 250 200 c 0
 222.392578125 200 200 222.390625 200 250 c 0
EndSplineSet
Refer: 33 60961 N 1 0 0 1 0 0 2
Ligature2: "tokiponaWords subtable" perc k u t e space
EndChar

StartChar: tp_la
Encoding: 60961 60961 33
Width: 550
VWidth: 0
Flags: HW
LayerCount: 2
Back
SplineSet
94.625 405.375 m 1
 134.5 445.25 189.5 470 250 470 c 0
 371 470 470 371 470 250 c 0
 470 129 371 30 250 30 c 0
 189.5 30 134.5 54.75 94.625 94.625 c 1025
EndSplineSet
Fore
SplineSet
76.947265625 387.697265625 m 0
 67.318359375 397.326171875 67.318359375 413.423828125 76.947265625 423.052734375 c 0
 121.267578125 467.373046875 182.586914062 495 250 495 c 0
 384.84375 495 495 384.844726562 495 250 c 0
 495 115.15625 384.844726562 5 250 5 c 0
 182.586914062 5 121.267578125 32.626953125 76.947265625 76.947265625 c 0
 67.318359375 86.576171875 67.318359375 102.673828125 76.947265625 112.302734375 c 0
 86.576171875 121.931640625 102.673828125 121.931640625 112.302734375 112.302734375 c 0
 147.732421875 76.873046875 196.413085938 55 250 55 c 0
 357.155273438 55 445 142.84375 445 250 c 0
 445 357.155273438 357.15625 445 250 445 c 0
 196.413085938 445 147.732421875 423.126953125 112.302734375 387.697265625 c 0
 102.673828125 378.068359375 86.576171875 378.068359375 76.947265625 387.697265625 c 0
EndSplineSet
Ligature2: "tokiponaWords subtable" perc l a space
EndChar

StartChar: tp_lape
Encoding: 60962 60962 34
Width: 600
VWidth: 0
Flags: HW
LayerCount: 2
Back
SplineSet
100 250 m 5
 328 250 l 1029
328 250 m 4
 328 303 371 346 424 346 c 4
 477 346 520 303 520 250 c 4
 520 197 477 154 424 154 c 4
 371 154 328 197 328 250 c 4
EndSplineSet
Fore
SplineSet
75 250 m 0
 75 263.617128764 86.3828712355 275 100 275 c 2
 305.587679646 275 l 1
 317.11156733 329.819268494 365.763039299 371 424 371 c 0
 490.807092901 371 545 316.807142702 545 250 c 0
 545 183.192907099 490.807142702 129 424 129 c 0
 365.763077554 129 317.111569851 170.180700957 305.587678728 225 c 1
 100 225 l 2
 86.3828712355 225 75 236.382871236 75 250 c 0
353 250 m 0
 353 210.807142702 384.807092901 179 424 179 c 0
 463.192857298 179 495 210.807092901 495 250 c 0
 495 289.192857298 463.192907099 321 424 321 c 0
 384.807142702 321 353 289.192907099 353 250 c 0
EndSplineSet
Ligature2: "tokiponaWords subtable" perc l a p e space
EndChar

StartChar: tp_laso
Encoding: 60963 60963 35
Width: 600
VWidth: 0
Flags: HW
LayerCount: 2
Back
SplineSet
300 374.6796875 m 5
 100 50 l 5
 500 50 l 5
 300 374.6796875 l 5
300 374.6796875 m 1028
500 574.6796875 m 5
 368 570.6796875 304 484.6796875 300 374.6796875 c 5
 456 388.6796875 486 452.6796875 500 574.6796875 c 5
100 574.6796875 m 5
 232 570.6796875 296 484.6796875 300 374.6796875 c 5
 144 388.6796875 114 452.6796875 100 574.6796875 c 5
EndSplineSet
Fore
SplineSet
128.928968168 547.129446231 m 1
 142.844948782 460.199776667 165.501607067 419.600767299 272.274371878 403.154921186 c 1
 260.608038145 478.557134039 216.469952812 534.12327539 128.928968168 547.129446231 c 1
471.071031832 547.129446231 m 1
 383.530047188 534.12327539 339.391961855 478.557134039 327.725628122 403.154921186 c 1
 434.498392933 419.600767299 457.155051218 460.199776667 471.071031832 547.129446231 c 1
499.242771834 599.668216979 m 0
 510.839897328 600.019645024 526.772966394 588.700088461 524.837001788 571.829539754 c 0
 511.437283197 455.06056346 476.243702026 378.427138259 341.558087431 354.881313075 c 1
 521.285687785 63.1118074854 l 2
 522.513664476 61.1183120441 524.614501645 55.8805747372 524.922937299 51.9614271361 c 0
 526.050397303 37.6353201526 514.370403869 25 500 25 c 2
 100 25 l 2
 97.6586433788 25 92.0972588372 25.9583375661 88.598622792 27.7512113192 c 0
 75.8096596343 34.304907125 71.1774334545 50.8764502815 78.7143122154 63.1118074854 c 2
 258.441912569 354.881313075 l 1
 123.756297974 378.427138259 88.5627168029 455.06056346 75.1629982118 571.829539754 c 0
 73.4199169504 587.019247889 86.2206350737 600.1087198 100.757228166 599.668216979 c 0
 200.518338103 596.645153041 266.756312846 549.100644822 300 480.774134558 c 1
 333.243687154 549.100644822 399.481661897 596.645153041 499.242771834 599.668216979 c 0
300 327.012727724 m 1
 144.762245729 75 l 1
 455.237754271 75 l 1
 300 327.012727724 l 1
EndSplineSet
Ligature2: "tokiponaWords subtable" perc l a s o space
EndChar

StartChar: tp_lawa
Encoding: 60964 60964 36
Width: 600
VWidth: 0
Flags: HW
HStem: 15 50<220.004 379.996> 225 50<75.2041 524.796> 435 50<220.004 379.996>
VStem: 65 50<170.004 329.996> 485 50<170.004 329.996>
CounterMasks: 1 e0
LayerCount: 2
Back
SplineSet
100 250 m 29
 500 250 l 1053
EndSplineSet
Refer: 12 60940 S 1 0 0 1 0 0 2
Fore
SplineSet
55 250 m 0
 55 384.84375 165.155273438 495 300 495 c 0
 434.84375 495 545 384.844726562 545 250 c 0
 545 115.15625 434.844726562 5 300 5 c 0
 165.15625 5 55 115.155273438 55 250 c 0
106.610841844 275 m 1
 493.389149524 275 l 1
 481.000421622 370.486262811 398.691064183 445 300 445 c 0
 201.309767598 445 118.999607664 370.486989043 106.610841844 275 c 1
493.389158156 225 m 1
 106.610850476 225 l 1
 118.999578378 129.513737189 201.308935817 55 300 55 c 0
 398.690232402 55 481.000392336 129.513010957 493.389158156 225 c 1
EndSplineSet
Ligature2: "tokiponaWords subtable" perc l a w a space
EndChar

StartChar: tp_len
Encoding: 60965 60965 37
Width: 500
VWidth: 0
Flags: HW
LayerCount: 2
Back
SplineSet
100 -100 m 1
 100 50 l 1024
500 -100 m 0
 500 50 l 1024
300 -100 m 0
 300 50 l 1025
100 450 m 1
 100 50 l 1
 500 50 l 1
 500 450 l 1
 100 450 l 1
EndSplineSet
Fore
SplineSet
100 -125 m 0
 86.3828125 -125 75 -113.6171875 75 -100 c 2
 75 50 l 2
 75 63.6171875 86.3828125 75 100 75 c 0
 113.6171875 75 125 63.6171875 125 50 c 2
 125 -100 l 2
 125 -113.6171875 113.6171875 -125 100 -125 c 0
500 -125 m 0
 486.3828125 -125 475 -113.6171875 475 -100 c 2
 475 50 l 2
 475 63.6171875 486.3828125 75 500 75 c 0
 513.6171875 75 525 63.6171875 525 50 c 2
 525 -100 l 2
 525 -113.6171875 513.6171875 -125 500 -125 c 0
300 -125 m 0
 286.3828125 -125 275 -113.6171875 275 -100 c 2
 275 50 l 2
 275 63.6171875 286.3828125 75 300 75 c 0
 313.6171875 75 325 63.6171875 325 50 c 2
 325 -100 l 2
 325 -113.6171875 313.6171875 -125 300 -125 c 0
75 450 m 2
 75 460.729492188 84.8671875 475 100 475 c 2
 500 475 l 2
 510.729492188 475 525 465.1328125 525 450 c 2
 525 50 l 2
 525 39.2705078125 515.1328125 25 500 25 c 2
 100 25 l 2
 89.2705078125 25 75 34.8671875 75 50 c 2
 75 450 l 2
125 425 m 1
 125 75 l 1
 475 75 l 1
 475 425 l 1
 125 425 l 1
EndSplineSet
Ligature2: "tokiponaWords subtable" perc l e n space
EndChar

StartChar: tp_lete
Encoding: 60966 60966 38
Width: 600
VWidth: 0
Flags: HW
LayerCount: 2
Back
SplineSet
150 250 m 5
 450 250 l 1029
220 120 m 5
 380 380 l 1029
220 380 m 5
 380 120 l 1029
EndSplineSet
Fore
SplineSet
206.897564358 401.291457918 m 0
 218.49470532 408.428160048 234.154755787 404.699576604 241.291457918 393.102435642 c 2
 300 297.701054758 l 1
 358.708542082 393.102435642 l 2
 365.845244213 404.699576604 381.50529468 408.428160048 393.102435642 401.291457918 c 0
 404.699576604 394.154755787 408.428160048 378.49470532 401.291457918 366.897564358 c 2
 344.73911062 275 l 1
 450 275 l 2
 463.617128764 275 475 263.617128764 475 250 c 0
 475 236.382871236 463.617128764 225 450 225 c 2
 344.73911062 225 l 1
 401.291457918 133.102435642 l 2
 408.428160048 121.50529468 404.699576604 105.845244213 393.102435642 98.7085420824 c 0
 381.50529468 91.571839952 365.845244213 95.3004233965 358.708542082 106.897564358 c 2
 300 202.298945242 l 1
 241.291457918 106.897564358 l 2
 234.154755787 95.3004233965 218.49470532 91.571839952 206.897564358 98.7085420824 c 0
 195.300423396 105.845244213 191.571839952 121.50529468 198.708542082 133.102435642 c 2
 255.26088938 225 l 1
 150 225 l 2
 136.382871236 225 125 236.382871236 125 250 c 0
 125 263.617128764 136.382871236 275 150 275 c 2
 255.26088938 275 l 1
 198.708542082 366.897564358 l 2
 191.571839952 378.49470532 195.300423396 394.154755787 206.897564358 401.291457918 c 0
EndSplineSet
Ligature2: "tokiponaWords subtable" perc l e t e space
EndChar

StartChar: tp_li
Encoding: 60967 60967 39
Width: 400
VWidth: 0
Flags: W
LayerCount: 2
Back
SplineSet
100 450 m 5
 300 250 l 5
 100 50 l 1029
EndSplineSet
Fore
SplineSet
82.3223304703 467.67766953 m 0
 91.95109456 477.306433619 108.04890544 477.306433619 117.67766953 467.67766953 c 2
 317.67766953 267.67766953 l 2
 328.377989664 256.977349395 325.264857645 239.909518585 317.67766953 232.32233047 c 2
 117.67766953 32.3223304703 l 2
 108.04890544 22.6935663807 91.95109456 22.6935663807 82.3223304703 32.3223304703 c 0
 72.6935663807 41.95109456 72.6935663807 58.04890544 82.3223304703 67.6776695297 c 2
 264.644660941 250 l 1
 82.3223304703 432.32233047 l 2
 72.6935663807 441.95109456 72.6935663807 458.04890544 82.3223304703 467.67766953 c 0
EndSplineSet
Ligature2: "tokiponaWords subtable" perc l i space
EndChar

StartChar: tp_lili
Encoding: 60968 60968 40
Width: 600
VWidth: 0
Flags: HW
AnchorPoint: "Circle" 300 250 mark 0
LayerCount: 2
Back
SplineSet
100 50 m 5
 500 50 l 1029
100 450 m 4
 300 50 l 5
 500 450 l 1029
EndSplineSet
Fore
SplineSet
88.8196601125 472.360679775 m 0
 100.999190343 478.45044489 116.27091466 473.359870118 122.360679775 461.180339887 c 2
 300 105.901699437 l 1
 477.639320225 461.180339887 l 2
 483.72908534 473.359870118 499.000809657 478.45044489 511.180339887 472.360679775 c 0
 523.359870118 466.27091466 528.45044489 450.999190343 522.360679775 438.819660113 c 2
 340.450849719 75 l 1
 500 75 l 2
 513.617128764 75 525 63.6171287645 525 50 c 0
 525 36.3828712355 513.617128764 25 500 25 c 2
 100 25 l 2
 86.3828712355 25 75 36.3828712355 75 50 c 0
 75 63.6171287645 86.3828712355 75 100 75 c 2
 259.549150281 75 l 1
 77.639320225 438.819660113 l 2
 71.5495551099 450.999190343 76.6401298822 466.27091466 88.8196601125 472.360679775 c 0
EndSplineSet
Ligature2: "tokiponaWords subtable" perc l i l i space
EndChar

StartChar: tp_linja
Encoding: 60969 60969 41
Width: 600
VWidth: 0
Flags: HW
LayerCount: 2
Back
SplineSet
100 175 m 29
 100 175 100 325 200 325 c 7
 250 325 300 250 300 250 c 5
 300 250 350 175 400 175 c 7
 500 175 500 325 500 325 c 1029
EndSplineSet
Fore
SplineSet
99.9636099367 150.000026485 m 0
 85.7731816734 150.02068213 75.7456063923 162.099688381 74.998878849 174.250799854 c 1
 74.998878849 174.250799854 69.5986837141 350 200 350 c 0
 271.06499214 350 320.785880076 263.890544577 320.785880076 263.890544577 c 2
 323.320137516 260.117526971 370.756530594 200 400 200 c 0
 468.422232244 200 474.955295616 314.882482852 475.000026485 325.036390063 c 0
 475.019847612 338.653504402 486.419275725 350.019794642 500.036390063 349.999973515 c 0
 513.073250191 349.980997009 524.114187772 340.181808731 525.001121151 325.749200146 c 1
 525.001121151 325.749200146 530.913258848 150 400 150 c 0
 329.979107023 150 279.230838165 236.084448972 279.230838165 236.084448972 c 2
 277.354033158 238.878647473 229.529720891 300 200 300 c 0
 131.599371032 300 125.029600605 185.096074792 124.999973515 174.963609937 c 0
 124.980152388 161.346495598 113.580724275 149.980205358 99.9636099367 150.000026485 c 0
EndSplineSet
Ligature2: "tokiponaWords subtable" perc l i n j a space
EndChar

StartChar: tp_lipu
Encoding: 60970 60970 42
Width: 600
VWidth: 0
Flags: W
HStem: 25 50<125 475> 425 50<125 475>
VStem: 75 50<75 425> 475 50<75 425>
AnchorPoint: "Square" 300 250 mark 0
LayerCount: 2
Back
SplineSet
100 450 m 1
 100 50 l 1
 500 50 l 1
 500 450 l 1
 100 450 l 1
EndSplineSet
Fore
SplineSet
75 450 m 2
 75 460.729492188 84.8671875 475 100 475 c 2
 500 475 l 2
 510.729492188 475 525 465.1328125 525 450 c 2
 525 50 l 2
 525 39.2705078125 515.1328125 25 500 25 c 2
 100 25 l 2
 89.2705078125 25 75 34.8671875 75 50 c 2
 75 450 l 2
125 425 m 1
 125 75 l 1
 475 75 l 1
 475 425 l 1
 125 425 l 1
EndSplineSet
Ligature2: "tokiponaWords subtable" perc l i p u space
EndChar

StartChar: tp_loje
Encoding: 60971 60971 43
Width: 600
VWidth: 0
Flags: HW
LayerCount: 2
Back
SplineSet
100 50 m 5
 300 350 l 5
 500 50 l 5
 100 50 l 5
100 600 m 5
 100 600 142 350 300 350 c 4
 458 350 500 600 500 600 c 5
 100 600 l 5
EndSplineSet
Fore
SplineSet
146.712927296 75 m 1
 453.287072704 75 l 1
 300 304.930609057 l 1
 146.712927296 75 l 1
79.1987426416 63.8675049056 m 2
 279.198742642 363.867504906 l 2
 287.170008488 375.824403675 304.162124989 378.533931081 315.456764236 369.649133298 c 0
 317.766263099 367.832392636 320.801257358 363.867504906 320.801257358 363.867504906 c 1
 520.801257358 63.8675049056 l 2
 528.772523205 51.9106061365 524.738196002 35.1834495942 512.192752184 28.1748586677 c 0
 508.435664988 26.0759383252 502.608526968 25 500 25 c 2
 100 25 l 2
 85.6295961308 25 73.9496026972 37.6353201526 75.0770627014 51.9614271361 c 0
 75.4147124177 56.2517841695 77.7517922206 61.6970792742 79.1987426416 63.8675049056 c 2
75.2668673361 596.32377193 m 1
 73.7731723157 607.942299388 82.8788863254 625 100 625 c 2
 500 625 l 2
 512.681367692 625 527.43900835 612.35146948 524.651165587 595.838265361 c 1
 524.651165587 595.838265361 486.548622374 325 300 325 c 0
 114.169852346 325 75.2668673361 596.32377193 75.2668673361 596.32377193 c 1
131.16302257 575 m 1
 149.092290252 505.461642754 200.045888696 375 300 375 c 0
 400.323919872 375 451.288983801 506.940407628 468.83697743 575 c 1
 131.16302257 575 l 1
EndSplineSet
Ligature2: "tokiponaWords subtable" perc l o j e space
EndChar

StartChar: tp_lon
Encoding: 60972 60972 44
Width: 500
VWidth: 0
Flags: HW
LayerCount: 2
Back
SplineSet
228 300 m 0
 228 312 238 322 250 322 c 0
 262 322 272 312 272 300 c 0
 272 288 262 278 250 278 c 0
 238 278 228 288 228 300 c 0
100 150 m 1
 400 150 l 1025
EndSplineSet
Fore
SplineSet
203 300 m 0
 203 325.924804688 224.075195312 347 250 347 c 0
 275.924804688 347 297 325.924804688 297 300 c 0
 297 274.075195312 275.924804688 253 250 253 c 0
 224.075195312 253 203 274.075195312 203 300 c 0
75 150 m 0
 75 163.6171875 86.3828125 175 100 175 c 2
 400 175 l 2
 413.6171875 175 425 163.6171875 425 150 c 0
 425 136.3828125 413.6171875 125 400 125 c 2
 100 125 l 2
 86.3828125 125 75 136.3828125 75 150 c 0
EndSplineSet
Ligature2: "tokiponaWords subtable" perc l o n space
EndChar

StartChar: tp_luka
Encoding: 60973 60973 45
Width: 600
VWidth: 0
Flags: HW
LayerCount: 2
Back
SplineSet
60 150 m 5
 169 50 l 5
 169 50 153 166.999023438 153 250 c 7
 153 384.092773438 235.229492188 470 329 470 c 7
 434.016601562 470 500 382 500 250 c 4
 500 50 l 1028
EndSplineSet
Fore
SplineSet
41.578163497 166.900767434 m 0
 50.7837605517 176.934868224 66.8666666444 177.627433558 76.900767434 168.421836503 c 2
 136.381287154 113.852552356 l 1
 132.226540128 154.587780374 128 206.019258249 128 250 c 0
 128 393.887422353 218.138166925 495 329 495 c 0
 452.131373642 495 525 389.482912892 525 250 c 2
 525 50 l 2
 525 36.3828712355 513.617128764 25 500 25 c 0
 486.382871236 25 475 36.3828712355 475 50 c 2
 475 250 l 2
 475 374.517087108 415.901829483 445 329 445 c 0
 252.32081745 445 178 374.298124522 178 250 c 0
 178 169.384297761 193.770268736 53.3813882882 193.770268736 53.3813882882 c 2
 194.516352794 47.9159696386 192.943057153 40.0322703314 188.691035998 34.5966529184 c 0
 179.836943258 23.2779273225 162.688401788 21.863329348 152.099232566 31.578163497 c 2
 43.099232566 131.578163497 l 2
 33.0651317765 140.783760552 32.3725664423 156.866666644 41.578163497 166.900767434 c 0
EndSplineSet
Ligature2: "tokiponaWords subtable" perc l u k a space
EndChar

StartChar: tp_lukin
Encoding: 60974 60974 46
Width: 600
VWidth: 0
Flags: HW
LayerCount: 2
Back
SplineSet
275 250 m 0
 275 263.799804688 286.200195312 275 300 275 c 0
 313.799804688 275 325 263.799804688 325 250 c 0
 325 236.200195312 313.799804688 225 300 225 c 0
 286.200195312 225 275 236.200195312 275 250 c 0
EndSplineSet
Refer: 12 60940 N 1 0 0 1 0 0 2
Fore
SplineSet
250 250 m 0
 250 277.608398438 272.390625 300 300 300 c 0
 327.608398438 300 350 277.609375 350 250 c 0
 350 222.391601562 327.609375 200 300 200 c 0
 272.391601562 200 250 222.390625 250 250 c 0
EndSplineSet
Refer: 12 60940 N 1 0 0 1 0 0 2
Ligature2: "tokiponaWords subtable" perc l u k i n space
EndChar

StartChar: tp_ma
Encoding: 60976 60976 48
Width: 600
VWidth: 0
Flags: HW
HStem: 15 50<220.004 379.996> 225 50<75.2041 524.796> 435 50<220.004 379.996>
VStem: 65 50<170.004 329.996> 275 50<25.2041 474.796> 485 50<170.004 329.996>
CounterMasks: 1 fc
LayerCount: 2
Back
SplineSet
100 250 m 29
 500 250 l 1053
300 450 m 29
 300 50 l 1053
EndSplineSet
Refer: 12 60940 S 1 0 0 1 0 0 2
Fore
SplineSet
75 250 m 0
 75 263.617128764 86.3828712355 275 100 275 c 2
 500 275 l 2
 513.617128764 275 525 263.617128764 525 250 c 0
 525 236.382871236 513.617128764 225 500 225 c 2
 100 225 l 2
 86.3828712355 225 75 236.382871236 75 250 c 0
300 475 m 0
 313.617128764 475 325 463.617128764 325 450 c 2
 325 50 l 2
 325 36.3828712355 313.617128764 25 300 25 c 0
 286.382871236 25 275 36.3828712355 275 50 c 2
 275 450 l 2
 275 463.617128764 286.382871236 475 300 475 c 0
EndSplineSet
Refer: 12 60940 N 1 0 0 1 0 0 2
Ligature2: "tokiponaWords subtable" perc m a space
EndChar

StartChar: tp_mama
Encoding: 60977 60977 49
Width: 600
VWidth: 0
Flags: HW
HStem: -126 50<258.712 341.288> 25 50<217.237 382.763 259.151 340.85> 425 50<217.237 382.763>
VStem: 75 50<167.237 332.763> 194 50<-60.9394 9.2758> 356 50<-60.9394 9.27577> 475 50<167.237 332.763>
LayerCount: 2
Back
SplineSet
219 -46 m 4
 219 -8 262 30 300 30 c 4
 338 30 381 -8 381 -46 c 4
 381 -84 338 -121 300 -121 c 4
 262 -121 219 -84 219 -46 c 4
EndSplineSet
Refer: 12 60940 S 1 0 0 1 0 0 2
Fore
SplineSet
244 -46 m 0
 244 -66.8811148643 274.745095672 -96 300 -96 c 0
 325.255372892 -96 356 -66.8809014102 356 -46 c 0
 356 -24.8061761847 324.814014823 5 300 5 c 0
 275.184227157 5 244 -24.8072333697 244 -46 c 0
194 -46 m 0
 194 8.80723336966 248.815772843 55 300 55 c 0
 351.185985177 55 406 8.80617618473 406 -46 c 0
 406 -101.11909859 350.744627108 -146 300 -146 c 0
 249.254904328 -146 194 -101.118885136 194 -46 c 0
EndSplineSet
Refer: 12 60940 N 1 0 0 1 0 0 2
Ligature2: "tokiponaWords subtable" perc m a m a space
EndChar

StartChar: tp_mani
Encoding: 60978 60978 50
Width: 600
VWidth: 0
Flags: HW
LayerCount: 2
Back
SplineSet
500 570 m 5
 500 570 486 435.579101562 428 431 c 1028
100 570 m 5
 100 570 102 441.706054688 174 429 c 1028
EndSplineSet
Refer: 12 60940 S 1 0 0 1 0 0 2
Fore
SplineSet
99.5729313119 594.996351981 m 0
 113.188073054 595.228969953 124.763734008 584.042210431 124.996351981 570.427068688 c 0
 125.141744417 561.917242031 133.39679922 475.877425357 169.049184597 456.859573045 c 1
 206.977581271 480.995019138 251.919314013 495 300 495 c 0
 347.859720564 495 392.609474085 481.123371343 430.42783538 457.191408259 c 1
 455.042315805 469.397819013 474.184784254 563.57470666 475.137577415 572.619149325 c 0
 476.564189159 586.161341715 489.076956936 596.28903433 502.619149325 594.862422585 c 0
 516.731501473 593.375746961 525.457430845 580.325362264 524.944729361 568.162105312 c 2
 524.944729361 568.162105312 521.573895256 466.111836189 472.294038853 423.835751355 c 1
 517.141301907 379.381011514 545 317.812507553 545 250 c 0
 545 115.15625 434.844726562 5 300 5 c 0
 165.15625 5 55 115.155273438 55 250 c 0
 55 317.571002208 82.6607766676 378.942796674 127.228056397 423.360741146 c 1
 71.3408738362 468.203927182 74.9902228907 570.358386938 74.9902228907 570.358386938 c 0
 75.5469714412 582.519721854 85.3845583199 594.753940214 99.5729313119 594.996351981 c 0
105 250 m 0
 105 142.844726562 192.84375 55 300 55 c 0
 407.155273438 55 495 142.84375 495 250 c 0
 495 357.155273438 407.15625 445 300 445 c 0
 260.480653489 445 223.587864911 433.051778128 192.759554545 412.593108381 c 0
 190.14837949 409.649010097 186.87007468 407.331196847 183.225335117 405.850154777 c 0
 135.823345352 370.172619679 105.00000004 313.474537426 105 250 c 0
EndSplineSet
Ligature2: "tokiponaWords subtable" perc m a n i space
EndChar

StartChar: tp_meli
Encoding: 60979 60979 51
Width: 600
VWidth: 0
Flags: HW
LayerCount: 2
Back
SplineSet
204 250 m 0
 204 303 247 346 300 346 c 0
 353 346 396 303 396 250 c 0
 396 197 353 154 300 154 c 0
 247 154 204 197 204 250 c 0
100 50 m 25
 100 50 100 114 100 250 c 3
 100 360 190 450 300 450 c 27
 406 450 500 371 500 265 c 3
 500 123 500 50 500 50 c 1049
EndSplineSet
Fore
SplineSet
229 250 m 0
 229 210.807142702 260.807092901 179 300 179 c 0
 339.192857298 179 371 210.807092901 371 250 c 0
 371 289.192857298 339.192907099 321 300 321 c 0
 260.807142702 321 229 289.192907099 229 250 c 0
179 250 m 0
 179 316.807092901 233.192857298 371 300 371 c 0
 366.807092901 371 421 316.807142702 421 250 c 0
 421 183.192907099 366.807142702 129 300 129 c 0
 233.192907099 129 179 183.192857298 179 250 c 0
100 25 m 0
 86.3828712355 25 75 36.3828712355 75 50 c 2
 75 250 l 2
 75 373.844147334 176.154890735 475 300 475 c 0
 417.568339933 475 525 387.038056902 525 265 c 2
 525 50 l 2
 525 36.3828712355 513.617128764 25 500 25 c 0
 486.382871236 25 475 36.3828712355 475 50 c 2
 475 265 l 2
 475 354.961943098 394.431660067 425 300 425 c 0
 203.845109265 425 125 346.155852666 125 250 c 2
 125 50 l 2
 125 36.3828712355 113.617128764 25 100 25 c 0
EndSplineSet
Ligature2: "tokiponaWords subtable" perc m e l i space
EndChar

StartChar: tp_mi
Encoding: 60980 60980 52
Width: 380
VWidth: 0
Flags: HW
LayerCount: 2
Back
SplineSet
100 364 m 4
 100 50 l 1053
100 364 m 4
 100 417 143 460 196 460 c 4
 249 460 292 417 292 364 c 4
 292 311 249 268 196 268 c 4
 143 268 100 311 100 364 c 4
EndSplineSet
Fore
SplineSet
75 364 m 2
 75 430.806640625 129.192382812 485 196 485 c 0
 262.806640625 485 317 430.807617188 317 364 c 0
 317 297.193359375 262.807617188 243 196 243 c 0
 169.478515625 243 144.944335938 251.541015625 125 266.021484375 c 1
 125 50 l 2
 125 36.3828125 113.6171875 25 100 25 c 0
 86.3828125 25 75 36.3828125 75 50 c 2
 75 364 l 2
125 364 m 0
 125 324.807617188 156.806640625 293 196 293 c 0
 235.192382812 293 267 324.806640625 267 364 c 0
 267 403.192382812 235.193359375 435 196 435 c 0
 156.807617188 435 125 403.193359375 125 364 c 0
EndSplineSet
Ligature2: "tokiponaWords subtable" perc m i space
EndChar

StartChar: tp_mije
Encoding: 60981 60981 53
Width: 600
VWidth: 0
Flags: HW
HStem: 233 50<250.008 349.992> 329 50<125 217.617 382.383 475> 425 50<250.008 349.992>
VStem: 75 50<129.204 329> 179 50<340.383 367.617> 371 50<340.383 367.617> 475 50<129.204 329>
CounterMasks: 1 e0
AnchorPoint: "Square" 300 200 mark 0
AnchorPoint: "Circle" 300 153 mark 0
LayerCount: 2
Back
SplineSet
500 54 m 25
 500 254 l 25
 396 254 l 1049
100 54 m 25
 100 254 l 25
 204 254 l 1049
204 254 m 0
 204 307 247 350 300 350 c 0
 353 350 396 307 396 254 c 0
 396 201 353 158 300 158 c 0
 247 158 204 201 204 254 c 0
EndSplineSet
Fore
SplineSet
500 29 m 0
 486.3828125 29 475 40.3828125 475 54 c 2
 475 229 l 1
 396 229 l 2
 382.3828125 229 371 240.3828125 371 254 c 0
 371 267.6171875 382.3828125 279 396 279 c 2
 500 279 l 2
 510.729492188 279 525 269.1328125 525 254 c 2
 525 54 l 2
 525 40.3828125 513.6171875 29 500 29 c 0
100 29 m 0
 86.3828125 29 75 40.3828125 75 54 c 2
 75 254 l 2
 75 269.1328125 89.2705078125 279 100 279 c 2
 204 279 l 2
 217.6171875 279 229 267.6171875 229 254 c 0
 229 240.3828125 217.6171875 229 204 229 c 2
 125 229 l 1
 125 54 l 2
 125 40.3828125 113.6171875 29 100 29 c 0
229 254 m 0
 229 214.807617188 260.806640625 183 300 183 c 0
 339.192382812 183 371 214.806640625 371 254 c 0
 371 293.192382812 339.193359375 325 300 325 c 0
 260.807617188 325 229 293.193359375 229 254 c 0
179 254 m 0
 179 320.806640625 233.192382812 375 300 375 c 0
 366.806640625 375 421 320.807617188 421 254 c 0
 421 187.193359375 366.807617188 133 300 133 c 0
 233.193359375 133 179 187.192382812 179 254 c 0
300 133 m 1024
EndSplineSet
Ligature2: "tokiponaWords subtable" perc m i j e space
EndChar

StartChar: tp_moku
Encoding: 60982 60982 54
Width: 600
VWidth: 0
Flags: HW
LayerCount: 2
Back
SplineSet
60 150 m 5
 169 50 l 5
 169 50 153 112.947404819 153 151 c 7
 153 285.092773438 235.229492188 329 329 329 c 7
 434.016601562 329 500 283 500 151 c 4
 500 50 l 1028
129 601 m 5
 129 601 183 329 329 329 c 4
 475 329 529 601 529 601 c 5
 129 601 l 5
EndSplineSet
Fore
SplineSet
104.432963521 596.360694485 m 1
 102.560632524 606.84930879 110.681116742 626 129 626 c 2
 529 626 l 2
 540.152596992 626 557.06260958 613.907977604 553.518240055 596.115749331 c 1
 553.518240055 596.115749331 523.24596268 413.388061492 423.451555258 336.973417364 c 1
 486.020522187 310.447801178 525 251.578237889 525 151 c 2
 525 50 l 2
 525 36.3828712355 513.617128764 25 500 25 c 0
 486.382871236 25 475 36.3828712355 475 50 c 2
 475 151 l 2
 475 270.388284513 423.61462526 304 329 304 c 0
 244.316368789 304 178 270.134474988 178 151 c 0
 178 118.002963699 193.233924025 56.1414107787 193.233924025 56.1414107787 c 2
 194.934661415 49.4303239981 193.524043796 40.7749809159 188.691035998 34.5966529184 c 0
 179.836943258 23.2779273225 162.688401788 21.863329348 152.099232566 31.578163497 c 2
 43.099232566 131.578163497 l 2
 33.0651317765 140.783760552 32.3725664423 156.866666644 41.578163497 166.900767434 c 0
 50.7837605517 176.934868224 66.8666666444 177.627433558 76.900767434 168.421836503 c 2
 130.250946872 119.476717752 l 1
 128.639100102 132.78794693 128 140.458997562 128 151 c 0
 128 252.796366106 173.77748942 310.233435749 235.570074789 336.420985506 c 1
 135.318026371 412.550573496 104.432963521 596.360694485 104.432963521 596.360694485 c 1
329 354 m 0
 419.105287483 354 476.649333102 500.359153936 497.214679927 576 c 1
 160.785320073 576 l 1
 181.777790016 498.788163945 239.215141367 354 329 354 c 0
EndSplineSet
Ligature2: "tokiponaWords subtable" perc m o k u space
EndChar

StartChar: tp_moli
Encoding: 60983 60983 55
Width: 600
VWidth: 0
Flags: HW
LayerCount: 2
Back
SplineSet
175 126 m 1
 435 386 l 1025
173 370 m 1
 427 116 l 1025
100 250 m 0
 100 360 190 450 300 450 c 0
 410 450 500 360 500 250 c 0
 500 140 410 50 300 50 c 0
 190 50 100 140 100 250 c 0
EndSplineSet
Fore
SplineSet
157.322265625 108.322265625 m 0
 147.693359375 117.951171875 147.693359375 134.048828125 157.322265625 143.677734375 c 2
 417.322265625 403.677734375 l 2
 426.951171875 413.306640625 443.048828125 413.306640625 452.677734375 403.677734375 c 0
 462.306640625 394.048828125 462.306640625 377.951171875 452.677734375 368.322265625 c 2
 192.677734375 108.322265625 l 2
 183.048828125 98.693359375 166.951171875 98.693359375 157.322265625 108.322265625 c 0
155.322265625 387.677734375 m 0
 164.951171875 397.306640625 181.048828125 397.306640625 190.677734375 387.677734375 c 2
 444.677734375 133.677734375 l 2
 454.306640625 124.048828125 454.306640625 107.951171875 444.677734375 98.322265625 c 0
 435.048828125 88.693359375 418.951171875 88.693359375 409.322265625 98.322265625 c 2
 155.322265625 352.322265625 l 2
 145.693359375 361.951171875 145.693359375 378.048828125 155.322265625 387.677734375 c 0
125 250 m 0
 125 153.844726562 203.84375 75 300 75 c 0
 396.155273438 75 475 153.84375 475 250 c 0
 475 346.155273438 396.15625 425 300 425 c 0
 203.844726562 425 125 346.15625 125 250 c 0
75 250 m 0
 75 373.84375 176.155273438 475 300 475 c 0
 423.84375 475 525 373.844726562 525 250 c 0
 525 126.15625 423.844726562 25 300 25 c 0
 176.15625 25 75 126.155273438 75 250 c 0
EndSplineSet
Ligature2: "tokiponaWords subtable" perc m o l i space
EndChar

StartChar: tp_monsi
Encoding: 60984 60984 56
Width: 500
VWidth: 0
Flags: HW
LayerCount: 2
Back
SplineSet
250 250 m 5
 100 250 l 1028
400 450 m 5
 100 450 l 5
 100 50 l 5
 400 50 l 1029
EndSplineSet
Fore
SplineSet
425 450 m 0
 425 436.382871236 413.617128764 425 400 425 c 2
 125 425 l 1
 125 275 l 1
 250 275 l 2
 263.617128764 275 275 263.617128764 275 250 c 0
 275 236.382871236 263.617128764 225 250 225 c 2
 125 225 l 1
 125 75 l 1
 400 75 l 2
 413.617128764 75 425 63.6171287645 425 50 c 0
 425 36.3828712355 413.617128764 25 400 25 c 2
 100 25 l 2
 89.2700956673 25 75 34.8674621445 75 50 c 2
 75 249.999999764 l 1
 75 250 l 1
 75 450 l 2
 75 460.729904333 84.8674621445 475 100 475 c 2
 400 475 l 2
 413.617128764 475 425 463.617128764 425 450 c 0
EndSplineSet
Ligature2: "tokiponaWords subtable" perc m o n s i space
EndChar

StartChar: tp_mu
Encoding: 60985 60985 57
Width: 600
VWidth: 0
Flags: HW
LayerCount: 2
Back
SplineSet
275 235 m 0
 275 248.799804688 286.200195312 260 300 260 c 0
 313.799804688 260 325 248.799804688 325 235 c 0
 325 221.200195312 313.799804688 210 300 210 c 0
 286.200195312 210 275 221.200195312 275 235 c 0
EndSplineSet
Refer: 59 60987 N 1 0 0 1 0 0 2
Fore
SplineSet
250 235 m 4
 250 262.607421875 272.390625 285 300 285 c 4
 327.607421875 285 350 262.609375 350 235 c 4
 350 207.392578125 327.609375 185 300 185 c 4
 272.392578125 185 250 207.390625 250 235 c 4
373 450 m 0
 373 421.797851562 395.796875 399 424 399 c 0
 452.202148438 399 475 421.796875 475 450 c 0
 475 478.202148438 452.203125 501 424 501 c 0
 395.797851562 501 373 478.203125 373 450 c 0
323 450 m 0
 323 505.796875 368.202148438 551 424 551 c 0
 479.796875 551 525 505.797851562 525 450 c 0
 525 418.779553658 510.848009121 390.875822529 488.606428737 372.351721212 c 1
 511.575545248 337.11467086 525 294.998635377 525 250 c 0
 525 126.15625 423.844726562 25 300 25 c 0
 176.15625 25 75 126.155273438 75 250 c 0
 75 294.997114773 88.4246476864 337.117259039 111.392689978 372.352473653 c 1
 89.1517514066 390.87641617 75 418.779608634 75 450 c 0
 75 505.796875 120.202148438 551 176 551 c 0
 231.796875 551 277 505.797851562 277 450 c 0
 277 394.203125 231.797851562 349 176 349 c 0
 169.463251789 349 163.071899921 349.620387213 156.881592373 350.805518371 c 0
 156.393960223 349.822993251 155.835247433 348.864290967 155.204101562 347.936523438 c 0
 136.123046875 319.892578125 125 286.23828125 125 250 c 0
 125 153.844726562 203.84375 75 300 75 c 0
 396.155273438 75 475 153.84375 475 250 c 0
 475 286.994140625 463.407226562 321.30078125 443.588867188 349.688476562 c 0
 443.444410868 349.895380428 443.303598649 350.103892084 443.166414346 350.313929337 c 0
 443.069555604 350.461620777 442.97421826 350.610398144 442.880422878 350.760237939 c 0
 436.764352494 349.604590797 430.453034895 349 424 349 c 0
 368.203125 349 323 394.202148438 323 450 c 0
125 450 m 0
 125 421.797851562 147.796875 399 176 399 c 0
 204.202148438 399 227 421.796875 227 450 c 0
 227 478.202148438 204.203125 501 176 501 c 0
 147.797851562 501 125 478.203125 125 450 c 0
EndSplineSet
Ligature2: "tokiponaWords subtable" perc m u space
EndChar

StartChar: tp_mun
Encoding: 60986 60986 58
Width: 600
VWidth: 0
Flags: HW
LayerCount: 2
Back
SplineSet
158.75 391.25 m 5
 195 427.5 245 450 300 450 c 4
 410 450 500 360 500 250 c 4
 500 140 410 50 300 50 c 4
 245 50 195 72.5 158.75 108.75 c 5
 158.75 108.75 300 142 300 250 c 31
 300 364 158.75 391.25 158.75 391.25 c 5
EndSplineSet
Fore
SplineSet
211.083558818 400.542623318 m 1
 253.972166558 382.314034771 325 338.542233559 325 250 c 0
 325 164.467893929 254.780043995 120.594684583 209.646741293 100.321486108 c 1
 236.060023565 84.4094859103 266.863086927 75 300 75 c 0
 396.154890735 75 475 153.844147334 475 250 c 0
 475 346.154890735 396.155852666 425 300 425 c 0
 267.498616024 425 238.354430286 416.622107742 211.083558818 400.542623318 c 1
141.07233047 408.92766953 m 0
 181.767346397 449.622685456 238.08669976 475 300 475 c 0
 423.844147334 475 525 373.845109265 525 250 c 0
 525 126.155852666 423.845109265 25 300 25 c 0
 238.086789919 25 181.767301314 50.3773596265 141.07233047 91.0723304703 c 0
 130.910920446 101.233740495 131.586438447 118.427263618 142.513760458 127.7601164 c 0
 145.555386447 130.357921017 152.144508293 132.87453948 153.032684466 133.087774149 c 0
 160.424747849 134.876367676 275 167.704628615 275 250 c 0
 275 338.680275132 160.852347825 365.336580374 152.94741253 366.915442213 c 0
 138.212958024 371.005052752 131.018860396 384.814947804 134.660651379 397.936051376 c 0
 135.822837874 402.123323367 139.044337197 406.899676256 141.07233047 408.92766953 c 0
EndSplineSet
Ligature2: "tokiponaWords subtable" perc m u n space
EndChar

StartChar: tp_musi
Encoding: 60987 60987 59
Width: 600
VWidth: 0
Flags: HW
LayerCount: 2
Back
SplineSet
464.086914062 364 m 1029
464.086914062 364 m 5
 486.704101562 331.604492188 500 292.279296875 500 250 c 4
 500 140 410 50 300 50 c 4
 190 50 100 140 100 250 c 4
 100 291.413085938 112.756835938 329.9921875 134.534179688 362 c 1029
348 450 m 4
 348 492 382 526 424 526 c 4
 466 526 500 492 500 450 c 4
 500 408 466 374 424 374 c 4
 382 374 348 408 348 450 c 4
100 450 m 4
 100 492 134 526 176 526 c 4
 218 526 252 492 252 450 c 4
 252 408 218 374 176 374 c 4
 134 374 100 408 100 450 c 4
EndSplineSet
Fore
SplineSet
439.086914062 364 m 0
 439.086914062 377.8 450.286914062 389 464.086914062 389 c 0
 477.886914063 389 489.086914062 377.8 489.086914062 364 c 0
 489.086914062 350.2 477.886914063 339 464.086914062 339 c 0
 450.286914062 339 439.086914062 350.2 439.086914062 364 c 0
449.775705614 384.49851977 m 0
 460.940944941 392.293622498 476.790331103 389.476447776 484.585433832 378.311208449 c 0
 510.000727271 341.907860899 525 297.564171907 525 250 c 0
 525 126.155852666 423.845109265 25 300 25 c 0
 176.155852666 25 75 126.154890735 75 250 c 0
 75 296.587694969 89.3908118588 340.092036839 113.86463049 376.063062823 c 0
 121.524571982 387.32145934 137.338845994 390.329490689 148.597242511 382.669549197 c 0
 159.855639028 375.009607706 162.863670376 359.195333694 155.203728885 347.936937177 c 0
 136.122860016 319.892338161 125 286.238476906 125 250 c 0
 125 153.845109265 203.844147334 75 300 75 c 0
 396.154890735 75 475 153.844147334 475 250 c 0
 475 286.994421843 463.407475854 321.301123476 443.588394293 349.688791551 c 0
 435.793291564 360.854030879 438.610466287 376.703417041 449.775705614 384.49851977 c 0
373 450 m 0
 373 421.797644726 395.797343156 399 424 399 c 0
 452.202355274 399 475 421.797343156 475 450 c 0
 475 478.202355274 452.202656844 501 424 501 c 0
 395.797644726 501 373 478.202656844 373 450 c 0
323 450 m 0
 323 505.797343156 368.202355274 551 424 551 c 0
 479.797343156 551 525 505.797644726 525 450 c 0
 525 394.202656844 479.797644726 349 424 349 c 0
 368.202656844 349 323 394.202355274 323 450 c 0
125 450 m 0
 125 421.797644726 147.797343156 399 176 399 c 0
 204.202355274 399 227 421.797343156 227 450 c 0
 227 478.202355274 204.202656844 501 176 501 c 0
 147.797644726 501 125 478.202656844 125 450 c 0
75 450 m 0
 75 505.797343156 120.202355274 551 176 551 c 0
 231.797343156 551 277 505.797644726 277 450 c 0
 277 394.202656844 231.797644726 349 176 349 c 0
 120.202656844 349 75 394.202355274 75 450 c 0
EndSplineSet
Ligature2: "tokiponaWords subtable" perc m u s i space
EndChar

StartChar: tp_mute
Encoding: 60988 60988 60
Width: 500
VWidth: 0
Flags: HW
LayerCount: 2
Back
SplineSet
400 450 m 5
 400 50 l 1029
250 450 m 5
 250 50 l 1029
100 450 m 5
 100 50 l 1029
EndSplineSet
Fore
SplineSet
400 475 m 0
 413.617128764 475 425 463.617128764 425 450 c 2
 425 50 l 2
 425 36.3828712355 413.617128764 25 400 25 c 0
 386.382871236 25 375 36.3828712355 375 50 c 2
 375 450 l 2
 375 463.617128764 386.382871236 475 400 475 c 0
250 475 m 0
 263.617128764 475 275 463.617128764 275 450 c 2
 275 50 l 2
 275 36.3828712355 263.617128764 25 250 25 c 0
 236.382871236 25 225 36.3828712355 225 50 c 2
 225 450 l 2
 225 463.617128764 236.382871236 475 250 475 c 0
100 475 m 0
 113.617128764 475 125 463.617128764 125 450 c 2
 125 50 l 2
 125 36.3828712355 113.617128764 25 100 25 c 0
 86.3828712355 25 75 36.3828712355 75 50 c 2
 75 450 l 2
 75 463.617128764 86.3828712355 475 100 475 c 0
EndSplineSet
Ligature2: "tokiponaWords subtable" perc m u t e space
EndChar

StartChar: tp_nanpa
Encoding: 60989 60989 61
Width: 600
VWidth: 0
Flags: HW
LayerCount: 2
Back
SplineSet
100 150 m 5
 500 150 l 1029
100 350 m 5
 500 350 l 1029
400 450 m 5
 400 50 l 1029
200 450 m 5
 200 50 l 1029
EndSplineSet
Fore
SplineSet
200 475 m 0
 213.617128764 475 225 463.617128764 225 450 c 2
 225 375 l 1
 375 375 l 1
 375 450 l 2
 375 463.617128764 386.382871236 475 400 475 c 0
 413.617128764 475 425 463.617128764 425 450 c 2
 425 375 l 1
 500 375 l 2
 513.617128764 375 525 363.617128764 525 350 c 0
 525 336.382871236 513.617128764 325 500 325 c 2
 425 325 l 1
 425 175 l 1
 500 175 l 2
 513.617128764 175 525 163.617128764 525 150 c 0
 525 136.382871236 513.617128764 125 500 125 c 2
 425 125 l 1
 425 50 l 2
 425 36.3828712355 413.617128764 25 400 25 c 0
 386.382871236 25 375 36.3828712355 375 50 c 2
 375 125 l 1
 225 125 l 1
 225 50 l 2
 225 36.3828712355 213.617128764 25 200 25 c 0
 186.382871236 25 175 36.3828712355 175 50 c 2
 175 125 l 1
 100 125 l 2
 86.3828712355 125 75 136.382871236 75 150 c 0
 75 163.617128764 86.3828712355 175 100 175 c 2
 175 175 l 1
 175 325 l 1
 100 325 l 2
 86.3828712355 325 75 336.382871236 75 350 c 0
 75 363.617128764 86.3828712355 375 100 375 c 2
 175 375 l 1
 175 450 l 2
 175 463.617128764 186.382871236 475 200 475 c 0
375 325 m 1
 225 325 l 1
 225 175 l 1
 375 175 l 1
 375 325 l 1
EndSplineSet
Ligature2: "tokiponaWords subtable" perc n a n p a space
EndChar

StartChar: tp_nasa
Encoding: 60990 60990 62
Width: 600
VWidth: 0
Flags: HW
LayerCount: 2
Back
SplineSet
434 450 m 5
 434 450 393 470 300 470 c 7
 182.961544781 470 80 383.033830284 80 250 c 7
 80 118.938945525 176 30 300 30 c 7
 425 30 520 110 520 208 c 7
 520 311.019415646 416.400390625 353 329 353 c 7
 248.900062422 353 214 307 213.100585938 243.16015625 c 4
 212.463277589 197.924411044 256.200195312 154.680664062 309.400390625 154.680664062 c 4
 362.600585938 154.680664062 379.700195312 206.879882812 379.700195312 206.879882812 c 1053
EndSplineSet
Fore
SplineSet
456.504867125 439.112807723 m 0
 450.328179804 426.345004612 434.791155943 422.672116168 424.180558391 427.005749126 c 0
 420.769885533 428.560162829 384.709861457 445 300 445 c 0
 195.482460598 445 105 368.552297542 105 250 c 0
 105 132.68835595 188.875978976 55 300 55 c 0
 415.594748654 55 495 127.911609776 495 208 c 0
 495 289.113787023 412.450250483 328 329 328 c 0
 261.879416982 328 238.83986673 295.457742582 238.098105198 242.807976185 c 0
 237.68653023 213.594644098 268.819028939 179.680664062 309.400390625 179.680664062 c 0
 341.812389754 179.680664062 354.382337389 210.336024474 356.390382064 215.922727283 c 0
 361.506232102 228.585775977 375.22791738 234.714243685 387.590851564 230.601972601 c 0
 399.961332776 226.487191155 407.363677169 213.715109492 403.670161253 199.734353412 c 0
 403.126981496 198.101363891 381.903380685 129.680664062 309.400390625 129.680664062 c 0
 243.581361686 129.680664062 187.240024949 182.254177989 188.103066677 243.512336315 c 0
 189.16013327 318.542257418 235.920707861 378 329 378 c 0
 420.350530767 378 545 332.925044269 545 208 c 0
 545 92.0883902242 434.405251346 5 300 5 c 0
 163.124021024 5 55 105.1895351 55 250 c 0
 55 397.515363026 170.440628964 495 300 495 c 0
 396.287530329 495 440.094167574 474.823600205 445.594326164 472.162785378 c 0
 456.198905816 466.183429022 462.684630991 451.886970345 456.504867125 439.112807723 c 0
EndSplineSet
Ligature2: "tokiponaWords subtable" perc n a s a space
EndChar

StartChar: tp_nasin
Encoding: 60991 60991 63
Width: 500
VWidth: 0
Flags: HW
LayerCount: 2
Back
SplineSet
100 150 m 5
 250 290 l 5
 400 150 l 1029
250 450 m 5
 250 50 l 1029
EndSplineSet
Fore
SplineSet
250 475 m 0
 263.617128764 475 275 463.617128764 275 450 c 2
 275 300.863807548 l 1
 417.057956259 168.276381706 l 2
 427.012829981 158.985166233 427.56759718 142.896917463 418.276381706 132.942043741 c 0
 408.985166233 122.987170019 392.896917463 122.43240282 382.942043741 131.723618294 c 2
 275 232.469525786 l 1
 275 50 l 2
 275 36.3828712355 263.617128764 25 250 25 c 0
 236.382871236 25 225 36.3828712355 225 50 c 2
 225 232.469525786 l 1
 117.057956259 131.723618294 l 2
 107.103082537 122.43240282 91.0148337674 122.987170019 81.7236182939 132.942043741 c 0
 72.4324028204 142.896917463 72.9871700194 158.985166233 82.942043741 168.276381706 c 2
 225 300.863807548 l 1
 225 450 l 2
 225 463.617128764 236.382871236 475 250 475 c 0
EndSplineSet
Ligature2: "tokiponaWords subtable" perc n a s i n space
EndChar

StartChar: tp_nena
Encoding: 60992 60992 64
Width: 600
VWidth: 0
Flags: HW
LayerCount: 2
Back
SplineSet
80 50 m 5
 220 50 l 5
 198 77 80 166.206054688 80 295 c 7
 80 431.005746756 192 470 302 470 c 7
 424 470 520 431 520 295 c 7
 520 155 402 71 380 50 c 5
 520 50 l 1029
EndSplineSet
Fore
SplineSet
55 50 m 0
 55 63.6171287645 66.3828712355 75 80 75 c 2
 160.25832742 75 l 1
 116.5932982 120.456672842 55 195.340703493 55 295 c 0
 55 451.571469627 188.559821079 495 302 495 c 0
 428.247597073 495 545 449.873852559 545 295 c 0
 545 192.252320057 487.000024564 117.58270943 444.686149498 75 c 1
 520 75 l 2
 533.617128764 75 545 63.6171287645 545 50 c 0
 545 36.3828712355 533.617128764 25 520 25 c 2
 380 25 l 2
 375.047709941 25 367.990254816 27.1975977695 363.326172995 31.3725070659 c 0
 352.618789134 40.9568921902 352.343195023 58.1614732619 362.738106333 68.0838886036 c 0
 388.32840914 92.5109958281 495 169.02690792 495 295 c 0
 495 412.126147441 419.752402927 445 302 445 c 0
 195.440178921 445 105 410.440023884 105 295 c 0
 105 180.069439664 211.810973518 99.6276115169 239.380874638 65.7918237791 c 0
 242.182934504 62.3529321254 244.523377041 57.0384524616 244.922937299 51.9614271361 c 0
 246.050397303 37.6353201526 234.370403869 25 220 25 c 2
 80 25 l 2
 66.3828712355 25 55 36.3828712355 55 50 c 0
EndSplineSet
Ligature2: "tokiponaWords subtable" perc n e n a space
EndChar

StartChar: tp_ni
Encoding: 60993 60993 65
Width: 500
VWidth: 0
Flags: HW
LayerCount: 2
Back
SplineSet
400 200 m 5
 250 50 l 1028
100 200 m 5
 250 50 l 5
 250 450 l 1029
EndSplineSet
Fore
SplineSet
82.3223304703 217.67766953 m 0
 91.95109456 227.306433619 108.04890544 227.306433619 117.67766953 217.67766953 c 2
 225 110.355339059 l 1
 225 450 l 2
 225 463.617128764 236.382871236 475 250 475 c 0
 263.617128764 475 275 463.617128764 275 450 c 2
 275 110.355339059 l 1
 382.32233047 217.67766953 l 2
 391.95109456 227.306433619 408.04890544 227.306433619 417.67766953 217.67766953 c 0
 427.306433619 208.04890544 427.306433619 191.95109456 417.67766953 182.32233047 c 2
 267.67766953 32.3223304703 l 2
 259.914117715 24.5587786561 247.945041944 23.054881374 238.552165008 27.8106391567 c 0
 236.29935519 28.9501491562 234.191828674 30.4528314641 232.32233047 32.3223304703 c 2
 232.32233047 32.3223304703 l 1
 82.3223304703 182.32233047 l 2
 72.6935663807 191.95109456 72.6935663807 208.04890544 82.3223304703 217.67766953 c 0
EndSplineSet
Ligature2: "tokiponaWords subtable" perc n i space
EndChar

StartChar: tp_nimi
Encoding: 60994 60994 66
Width: 600
VWidth: 0
Flags: HW
LayerCount: 2
Back
SplineSet
500 450 m 29
 100 50 l 1053
100 450 m 5
 100 50 l 5
 500 50 l 5
 500 450 l 5
 100 450 l 5
EndSplineSet
Fore
SplineSet
75 450 m 2
 75 460.729904333 84.8674621445 475 100 475 c 2
 500 475 l 2
 501.2373009 475 502.521676298 474.868790758 503.825817093 474.613430118 c 0
 508.926670381 473.846193758 513.821064826 471.534273288 517.67766953 467.67766953 c 0
 520.723771278 464.631567781 522.806225379 460.9380432 523.925031463 457.006725775 c 0
 524.615410685 454.826623513 525.00000037 452.484260667 525 450 c 2
 525 50 l 2
 525 39.2700956673 515.132537856 25 500 25 c 2
 100 25 l 2
 98.7626990996 25 97.4783237018 25.1312092422 96.1741829064 25.3865698818 c 0
 91.0733296188 26.1538062421 86.178935174 28.4657267123 82.3223304703 32.3223304703 c 0
 79.2762287219 35.3684322187 77.1937746209 39.0619567996 76.0749685369 42.9932742251 c 0
 75.3845893155 45.173376487 74.9999996302 47.515739333 75 50 c 2
 75 450 l 2
125 110.355339059 m 1
 439.644660941 425 l 1
 125 425 l 1
 125 110.355339059 l 1
160.355339059 75 m 1
 475 75 l 1
 475 389.644660941 l 1
 160.355339059 75 l 1
EndSplineSet
Ligature2: "tokiponaWords subtable" perc n i m i space
EndChar

StartChar: tp_noka
Encoding: 60995 60995 67
Width: 500
VWidth: 0
Flags: HW
LayerCount: 2
Back
SplineSet
100 450 m 5
 100 50 l 5
 100 50 119 50 197 50 c 7
 316 50 400 76 400 162 c 7
 400 223.293945312 368.006578663 265 292 265 c 7
 245 265 223 228 223 228 c 1029
EndSplineSet
Fore
SplineSet
100 475 m 0
 113.617128764 475 125 463.617128764 125 450 c 2
 125 75 l 1
 197 75 l 2
 318.014176245 75 375 100.878385007 375 162 c 0
 375 211.906366363 355.35746304 240 292 240 c 0
 261.040476583 240 245.922918406 217.442667981 243.685436961 213.958741059 c 0
 236.062338252 202.92934354 221.264972935 199.863225392 210.10507266 206.582230534 c 0
 198.936235341 213.306616373 194.511070313 227.389812927 201.177226232 240.222299419 c 0
 203.008219224 243.263478697 230.488205013 290 292 290 c 0
 380.655694286 290 425 234.681524262 425 162 c 0
 425 51.1216149931 313.985823755 25 197 25 c 2
 100 25 l 2
 89.2700956673 25 75 34.8674621445 75 50 c 2
 75 450 l 2
 75 463.617128764 86.3828712355 475 100 475 c 0
EndSplineSet
Ligature2: "tokiponaWords subtable" perc n o k a space
EndChar

StartChar: tp_o
Encoding: 60996 60996 68
Width: 380
VWidth: 0
Flags: HW
LayerCount: 2
Back
SplineSet
185 450 m 29
 186 242 l 1029
90 146 m 4
 90 199 133 242 186 242 c 4
 239 242 282 199 282 146 c 4
 282 93 239 50 186 50 c 4
 133 50 90 93 90 146 c 4
EndSplineSet
Fore
SplineSet
115 146 m 0
 115 106.807142702 146.807092901 75 186 75 c 0
 225.192857298 75 257 106.807092901 257 146 c 0
 257 185.192857298 225.192907099 217 186 217 c 0
 146.807142702 217 115 185.192907099 115 146 c 0
184.879809081 474.999711081 m 0
 198.496780476 475.06517729 209.934244873 463.737162313 209.999711081 450.120190919 c 2
 210.892428912 264.434882195 l 1
 265.765387389 252.952063626 307 204.275047033 307 146 c 0
 307 79.1929070993 252.807142702 25 186 25 c 0
 119.192907099 25 65 79.1928572984 65 146 c 0
 65 204.198696222 106.126657371 252.824557142 160.892068863 264.389580737 c 1
 160.000288919 449.879809081 l 2
 159.93482271 463.496780476 171.262837687 474.934244873 184.879809081 474.999711081 c 0
EndSplineSet
Ligature2: "tokiponaWords subtable" perc o space
EndChar

StartChar: tp_olin
Encoding: 60997 60997 69
Width: 600
VWidth: 0
Flags: HW
LayerCount: 2
Back
SplineSet
112.267971307 419.014849097 m 5
 104.349304522 436.173845006 100 455.623346909 100 480 c 7
 100 534 128 600 196 600 c 7
 264 600 300 518 300 518 c 5
 300 518 316 600 392 600 c 7
 468 600 500 556 500 480 c 7
 500 461.372099258 493.803594892 443.531043609 483.352000797 425.647999203 c 1029
112.267971307 419.014849097 m 1029
300 50 m 5
 191.930664062 210.001953125 100 217.928710938 100 330 c 7
 100 384 128 450 196 450 c 7
 264 450 300 368 300 368 c 5
 300 368 316 450 392 450 c 7
 468 450 500 406 500 330 c 7
 500 246 374 178 300 50 c 5
EndSplineSet
Fore
SplineSet
279.282867975 36.0071289337 m 0
 178.944470767 184.563048033 75 200.472286623 75 330 c 0
 75 353.222708675 79.934294334 380.62509276 91.3528680629 405.320387403 c 0
 90.5911596883 406.480855888 89.9234065031 407.708432895 89.3604540204 408.99227556 c 0
 79.9820322272 429.496743999 74.9999981589 452.850877112 75 480 c 0
 75 539.007312059 106.857446864 625 196 625 c 0
 243.707395909 625 277.266192613 594.112940833 295.722144903 571.374702161 c 1
 313.192814708 598.155514549 343.072741243 625 392 625 c 0
 482.771001413 625 525 564.648298559 525 480 c 0
 525 456.364658372 517.27825 434.635590832 505.938143066 414.768216852 c 1
 518.765421564 391.462776883 525 362.524931333 525 330 c 0
 525 225.513139549 389.284231594 154.487834167 321.643370778 37.4874262691 c 0
 314.45094126 25.0464671023 297.666233341 21.2587049606 285.827920588 29.4050451532 c 0
 283.258704087 31.1730092276 280.603416781 34.0519916491 279.282867975 36.0071289337 c 0
298.790393265 94.8283343521 m 1
 378.848674953 211.1607239 475 272.910808337 475 330 c 0
 475 397.351701441 453.228998587 425 392 425 c 0
 340.107801257 425 325.816921807 369.263448986 324.396074516 362.536358042 c 0
 323.144156801 356.794858826 318.396628814 349.517185799 311.866060197 345.995531922 c 0
 299.880559515 339.532268548 284.805544863 343.505483429 277.575855814 356.912185229 c 0
 274.8772007 362.904080447 242.721363443 425 196 425 c 0
 149.142553136 425 125 378.992687941 125 330 c 0
 125 241.536435901 191.384881973 237.690716123 298.790393265 94.8283343521 c 1
127.478655731 452.513708168 m 1
 145.063711553 466.290758297 167.630970548 475 196 475 c 0
 243.707395909 475 277.266192613 444.112940833 295.722144903 421.374702161 c 1
 313.192814708 448.155514549 343.072741243 475 392 475 c 0
 423.766007085 475 449.587057486 467.608705246 469.733723039 454.371417364 c 1
 473.295254681 463.370546593 475 471.775387642 475 480 c 0
 475 547.351701441 453.228998587 575 392 575 c 0
 340.107801257 575 325.816921807 519.263448986 324.396074516 512.536358042 c 0
 323.144156801 506.794858826 318.396628814 499.517185799 311.866060197 495.995531922 c 0
 299.880559515 489.532268548 284.805544863 493.505483429 277.575855814 506.912185229 c 0
 274.8772007 512.904080447 242.721363443 575 196 575 c 0
 149.142553136 575 125 528.992687941 125 480 c 0
 125 469.581044952 125.863173492 460.584535132 127.478655731 452.513708168 c 1
EndSplineSet
Ligature2: "tokiponaWords subtable" perc o l i n space
EndChar

StartChar: tp_ona
Encoding: 60998 60998 70
Width: 600
VWidth: 0
Flags: HW
LayerCount: 2
Back
SplineSet
414 154 m 4
 386 95 352 50 261 50 c 7
 161 50 100 137.462817534 100 250 c 1029
414 154 m 7
 467 154 510 197 510 250 c 4
 510 303 467 346 414 346 c 4
 361 346 318 303 318 250 c 4
 318 197 361 154 414 154 c 7
EndSplineSet
Fore
SplineSet
414 179 m 0
 453.192907099 179 485 210.807142702 485 250 c 0
 485 289.192907099 453.192857298 321 414 321 c 0
 374.807092901 321 343 289.192857298 343 250 c 0
 343 210.807092901 374.807142702 179 414 179 c 0
375.994354359 135.093422173 m 1
 327.795186366 151.035668217 293 196.468288027 293 250 c 0
 293 316.807142702 347.192907099 371 414 371 c 0
 480.807142702 371 535 316.807092901 535 250 c 0
 535 188.624227042 489.260585328 137.895050876 430.021631777 130.052231372 c 1
 400.522118954 73.335259218 356.115718124 25.0000000679 261 25 c 0
 142.688197585 25 75 129.670067227 75 250 c 0
 75 263.617128764 86.3828712355 275 100 275 c 0
 113.617128764 275 125 263.617128764 125 250 c 0
 125 145.255567841 179.311802415 75 261 75 c 0
 325.288378235 75 353.547454003 97.1574001706 375.994354359 135.093422173 c 1
EndSplineSet
Ligature2: "tokiponaWords subtable" perc o n a space
EndChar

StartChar: tp_open
Encoding: 60999 60999 71
Width: 600
VWidth: 0
Flags: HW
LayerCount: 2
Back
SplineSet
100 250 m 5
 500 250 l 1029
EndSplineSet
Refer: 83 61011 S 1 0 0 1 50 -150 2
Fore
SplineSet
100 475 m 0
 113.6171875 475 125 463.6171875 125 450 c 2
 125 275 l 1
 475 275 l 1
 475 450 l 2
 475 463.6171875 486.3828125 475 500 475 c 0
 513.6171875 475 525 463.6171875 525 450 c 2
 525 250 l 1
 525 50 l 2
 525 39.2705078125 515.1328125 25 500 25 c 2
 100 25 l 2
 89.2705078125 25 75 34.8671875 75 50 c 2
 75 249.999999764 l 1
 75 250 l 1
 75 450 l 2
 75 463.6171875 86.3828125 475 100 475 c 0
475 225 m 1
 125 225 l 1
 125 75 l 1
 475 75 l 1
 475 225 l 1
EndSplineSet
Ligature2: "tokiponaWords subtable" perc o p e n space
EndChar

StartChar: tp_pakala
Encoding: 61000 61000 72
Width: 600
VWidth: 0
Flags: HW
LayerCount: 2
Back
SplineSet
300 450 m 5
 200 250 l 5
 390 250 l 5
 300 50 l 1029
100 450 m 5
 100 50 l 5
 500 50 l 5
 500 450 l 5
 100 450 l 5
EndSplineSet
Fore
SplineSet
125 425 m 1
 125 75 l 1
 283.835359751 75 l 1
 351.335359751 225 l 1
 200 225 l 2
 197.555834946 225 193.553122559 225.637458771 190.608477364 226.831070319 c 0
 177.290602294 232.229469248 171.212680242 248.327059921 177.639320225 261.180339887 c 2
 259.549150281 425 l 1
 125 425 l 1
75 450 m 2
 75 460.729904333 84.8674621445 475 100 475 c 2
 500 475 l 2
 510.729904333 475 525 465.132537856 525 450 c 2
 525 50 l 2
 525 39.2700956673 515.132537856 25 500 25 c 2
 100 25 l 2
 89.2700956673 25 75 34.8674621445 75 50 c 2
 75 450 l 2
338.664640249 75 m 1
 475 75 l 1
 475 425 l 1
 315.450849719 425 l 1
 240.450849719 275 l 1
 390 275 l 2
 404.370403869 275 416.050397303 262.364679847 414.922937299 248.038572864 c 0
 414.700380702 245.210650274 413.156162331 240.536715736 412.798037629 239.740883067 c 2
 338.664640249 75 l 1
EndSplineSet
Ligature2: "tokiponaWords subtable" perc p a k a l a space
EndChar

StartChar: tp_pali
Encoding: 61001 61001 73
Width: 600
VWidth: 0
Flags: HW
LayerCount: 2
Back
SplineSet
86 114 m 5
 138 53 l 5
 138 176 l 4
 138.491210938 264 204.919921875 300 300 300 c 7
 389.489638959 300 470.479492188 265 470 186 c 4
 469.671875 131.999023438 470 50 470 50 c 1029
146 454 m 4
 146 539 215 608 300 608 c 4
 385 608 454 539 454 454 c 4
 454 369 385 300 300 300 c 7
 215 300 146 369 146 454 c 4
EndSplineSet
Fore
SplineSet
69.7816455997 133.025377277 m 0
 80.1444860868 141.859274086 96.1914804686 140.581194887 105.025377277 130.2183544 c 2
 113 120.863508514 l 1
 113 176.069773737 l 2
 113.596571751 282.945069281 199.751910834 325 300 325 c 0
 391.75754302 325 495.618618487 287.846252244 494.999538498 185.848095829 c 0
 494.672553392 132.034716693 494.999802291 50.0994254885 494.999802291 50.0994254885 c 2
 495.053957878 36.4824044134 483.716446564 25.0543532965 470.099425489 25.0001977093 c 0
 456.482404413 24.9460421221 445.054353297 36.2835534363 445.000197709 49.9005745115 c 0
 445.000033375 49.9418951792 444.671008301 131.932339729 445.000461502 186.151904171 c 0
 445.340365888 242.153747756 387.221734897 275 300 275 c 0
 210.087932916 275 163.385850124 245.054930719 163 175.930226263 c 2
 163 53 l 2
 163 47.3609911006 160.434167217 40.0698744942 155.661036843 35.3057134183 c 0
 145.490075069 25.1538641311 128.297194836 25.8455513901 118.974622723 36.7816455997 c 2
 66.9746227227 97.7816455997 l 2
 58.140725914 108.144486087 59.4188051125 124.191480469 69.7816455997 133.025377277 c 0
171 454 m 0
 171 382.811516514 228.809493185 325 300 325 c 0
 371.188483486 325 429 382.809493185 429 454 c 0
 429 525.188483486 371.190506815 583 300 583 c 0
 228.811516514 583 171 525.190506815 171 454 c 0
121 454 m 0
 121 552.809493185 201.188483486 633 300 633 c 0
 398.809493185 633 479 552.811516514 479 454 c 0
 479 355.190506815 398.811516514 275 300 275 c 0
 201.190506815 275 121 355.188483486 121 454 c 0
EndSplineSet
Ligature2: "tokiponaWords subtable" perc p a l i space
EndChar

StartChar: tp_pan
Encoding: 61003 61003 75
Width: 600
VWidth: 0
Flags: HW
LayerCount: 2
Back
Refer: 9 60937 S 0 -1 -1 0 550 550 2
Fore
SplineSet
82.322265625 467.677734375 m 0
 72.693359375 458.048828125 72.693359375 441.951171875 82.322265625 432.322265625 c 2
 282.322265625 232.322265625 l 2
 293.022460938 221.622070312 310.090820312 224.735351562 317.677734375 232.322265625 c 2
 517.677734375 432.322265625 l 2
 527.306640625 441.951171875 527.306640625 458.048828125 517.677734375 467.677734375 c 0
 508.048828125 477.306640625 491.951171875 477.306640625 482.322265625 467.677734375 c 2
 300 285.35546875 l 1
 117.677734375 467.677734375 l 2
 108.048828125 477.306640625 91.951171875 477.306640625 82.322265625 467.677734375 c 0
82.322265625 267.677734375 m 0
 72.693359375 258.048828125 72.693359375 241.951171875 82.322265625 232.322265625 c 2
 282.322265625 32.322265625 l 2
 293.022460938 21.6220703125 310.090820312 24.7353515625 317.677734375 32.322265625 c 2
 517.677734375 232.322265625 l 2
 527.306640625 241.951171875 527.306640625 258.048828125 517.677734375 267.677734375 c 0
 508.048828125 277.306640625 491.951171875 277.306640625 482.322265625 267.677734375 c 2
 300 85.35546875 l 1
 117.677734375 267.677734375 l 2
 108.048828125 277.306640625 91.951171875 277.306640625 82.322265625 267.677734375 c 0
EndSplineSet
Ligature2: "tokiponaWords subtable" perc p a n space
EndChar

StartChar: tp_pana
Encoding: 61004 61004 76
Width: 600
VWidth: 0
Flags: HW
LayerCount: 2
Back
SplineSet
513 653 m 5
 433 548 l 1029
322 700 m 5
 322 564 l 1029
122 640 m 5
 206 547 l 1053
EndSplineSet
Refer: 45 60973 S 1 0 0 1 0 0 2
Fore
SplineSet
528.151080382 672.885793001 m 0
 538.982576537 664.633224502 541.1383615 648.680415773 532.885793001 637.848919618 c 2
 452.885793001 532.848919618 l 2
 444.633224502 522.017423463 428.680415773 519.8616385 417.848919618 528.114206999 c 0
 407.017423463 536.366775498 404.8616385 552.319584227 413.114206999 563.151080382 c 2
 493.114206999 668.151080382 l 2
 501.366775498 678.982576537 517.319584227 681.1383615 528.151080382 672.885793001 c 0
322 725 m 0
 335.617128764 725 347 713.617128764 347 700 c 2
 347 564 l 2
 347 550.382871236 335.617128764 539 322 539 c 0
 308.382871236 539 297 550.382871236 297 564 c 2
 297 700 l 2
 297 713.617128764 308.382871236 725 322 725 c 0
105.242843551 658.552566069 m 0
 115.348150794 667.679940353 131.425191785 666.862463692 140.552566069 656.757156449 c 2
 224.552566069 563.757156449 l 2
 233.679940353 553.651849206 232.862463692 537.574808215 222.757156449 528.447433931 c 0
 212.651849206 519.320059647 196.574808215 520.137536308 187.447433931 530.242843551 c 2
 103.447433931 623.242843551 l 2
 94.3200596474 633.348150794 95.137536308 649.425191785 105.242843551 658.552566069 c 0
EndSplineSet
Refer: 45 60973 N 1 0 0 1 0 0 2
Ligature2: "tokiponaWords subtable" perc p a n a space
EndChar

StartChar: tp_pi
Encoding: 61005 61005 77
Width: 400
VWidth: 0
Flags: HW
LayerCount: 2
Back
SplineSet
100 450 m 5
 100 50 l 4
 300 50 l 1029
EndSplineSet
Fore
SplineSet
100 475 m 0
 113.617128764 475 125 463.617128764 125 450 c 2
 125 75 l 1
 300 75 l 2
 313.617128764 75 325 63.6171287645 325 50 c 0
 325 36.3828712355 313.617128764 25 300 25 c 2
 100 25 l 2
 89.2700956673 25 75 34.8674621445 75 50 c 2
 75 450 l 2
 75 463.617128764 86.3828712355 475 100 475 c 0
EndSplineSet
Ligature2: "tokiponaWords subtable" perc p i space
EndChar

StartChar: tp_pilin
Encoding: 61006 61006 78
Width: 600
VWidth: 0
Flags: HW
LayerCount: 2
Back
SplineSet
300 50 m 5
 191.930664062 210.001953125 100 217.928710938 100 330 c 7
 100 384 128 450 196 450 c 7
 264 450 300 368 300 368 c 5
 300 368 316 450 392 450 c 7
 468 450 500 406 500 330 c 7
 500 246 374 178 300 50 c 5
EndSplineSet
Fore
SplineSet
298.790393265 94.8283343522 m 1
 378.848674953 211.160723899 475 272.910808338 475 330 c 0
 475 397.351701441 453.228998587 425 392 425 c 0
 340.107801257 425 325.816921807 369.263448986 324.396074516 362.536358042 c 0
 323.144156801 356.794858826 318.396628814 349.517185799 311.866060197 345.995531922 c 0
 299.880559515 339.532268548 284.805544863 343.505483429 277.575855814 356.912185229 c 0
 274.8772007 362.904080447 242.721363443 425 196 425 c 0
 149.142553136 425 125 378.992687941 125 330 c 0
 125 241.5364359 191.384881973 237.690716123 298.790393265 94.8283343522 c 1
279.282867975 36.0071289338 m 0
 178.944470768 184.563048033 75 200.472286622 75 330 c 0
 75 389.007312059 106.857446864 475 196 475 c 0
 243.707395909 475 277.266192613 444.112940833 295.722144903 421.374702161 c 1
 313.192814708 448.155514549 343.072741243 475 392 475 c 0
 482.771001413 475 525 414.648298559 525 330 c 0
 525 225.513139549 389.284231594 154.487834167 321.643370778 37.4874262691 c 0
 314.45094126 25.0464671023 297.666233341 21.2587049606 285.827920588 29.4050451532 c 0
 283.258704087 31.1730092276 280.603416781 34.051991649 279.282867975 36.0071289338 c 0
EndSplineSet
Ligature2: "tokiponaWords subtable" perc p i l i n space
EndChar

StartChar: tp_pimeja
Encoding: 61007 61007 79
Width: 600
VWidth: 0
Flags: HW
LayerCount: 2
Back
SplineSet
220 50 m 5
 358 316 l 1029
244 316 m 5
 380 50 l 1029
300 450 m 5
 100 50 l 5
 500 50 l 5
 300 450 l 5
EndSplineSet
Fore
SplineSet
277.639320225 461.180339887 m 2
 279.093860399 464.089420235 283.016526515 468.954813051 287.099769837 471.414575918 c 0
 299.409214022 478.829836616 315.934039792 474.033619854 322.360679775 461.180339887 c 2
 522.360679775 61.1803398875 l 2
 523.453743617 58.994212204 524.673650557 55.1289971785 524.922937299 51.9614271361 c 0
 526.050397303 37.6353201526 514.370403869 25 500 25 c 2
 100 25 l 2
 97.5558349461 25 93.5531225594 25.6374587713 90.6084773639 26.8310703187 c 0
 77.2906022944 32.2294692478 71.2126802419 48.3270599212 77.639320225 61.1803398875 c 2
 277.639320225 461.180339887 l 2
238.687477357 271.473255277 m 1
 140.450849719 75 l 1
 204.805781835 75 l 1
 272.463146061 205.4120209 l 1
 238.687477357 271.473255277 l 1
339.139968777 75 m 1
 300.421711352 150.728356433 l 1
 261.134067789 75 l 1
 339.139968777 75 l 1
266.452415295 327.003131153 m 1
 300.74617186 259.928577873 l 1
 334.527497132 325.043306298 l 1
 300 394.098300563 l 1
 266.452415295 327.003131153 l 1
395.296121449 75 m 1
 459.549150281 75 l 1
 362.172006475 269.754287612 l 1
 328.704737151 205.244913407 l 1
 395.296121449 75 l 1
EndSplineSet
Ligature2: "tokiponaWords subtable" perc p i m e j a space
EndChar

StartChar: tp_pini
Encoding: 61008 61008 80
Width: 400
VWidth: 0
Flags: HW
LayerCount: 2
Back
SplineSet
200 450 m 5
 200 50 l 1029
100 50 m 5
 300 50 l 1029
100 450 m 4
 300 450 l 1029
EndSplineSet
Fore
SplineSet
75 450 m 0
 75 463.617128764 86.3828712355 475 100 475 c 2
 200 475 l 1
 300 475 l 2
 313.617128764 475 325 463.617128764 325 450 c 0
 325 436.382871236 313.617128764 425 300 425 c 2
 225 425 l 1
 225 75 l 1
 300 75 l 2
 313.617128764 75 325 63.6171287645 325 50 c 0
 325 36.3828712355 313.617128764 25 300 25 c 2
 200 25 l 1
 100 25 l 2
 86.3828712355 25 75 36.3828712355 75 50 c 0
 75 63.6171287645 86.3828712355 75 100 75 c 2
 175 75 l 1
 175 425 l 1
 100 425 l 2
 86.3828712355 425 75 436.382871236 75 450 c 0
EndSplineSet
Ligature2: "tokiponaWords subtable" perc p i n i space
EndChar

StartChar: tp_pipi
Encoding: 61009 61009 81
Width: 480
VWidth: 0
Flags: HW
LayerCount: 2
Back
SplineSet
301 521 m 4
 301 534.799804688 312.200195312 546 326 546 c 4
 339.799804688 546 351 534.799804688 351 521 c 4
 351 507.200195312 339.799804688 496 326 496 c 4
 318.93359375 496 312.547851562 498.9375 308 503.65625 c 4
 303.666015625 508.15234375 301 514.266601562 301 521 c 4
109 521 m 4
 109 534.799804688 120.200195312 546 134 546 c 4
 147.799804688 546 159 534.799804688 159 521 c 4
 159 507.200195312 147.799804688 496 134 496 c 4
 120.200195312 496 109 507.200195312 109 521 c 4
EndSplineSet
Refer: 10 60938 S 1 0 0 1 0 0 2
Fore
SplineSet
276 521 m 0
 276 548.607421875 298.390625 571 326 571 c 0
 353.607421875 571 376 548.609375 376 521 c 0
 376 493.392578125 353.609375 471 326 471 c 0
 311.905273438 471 299.04296875 476.923828125 290.000976562 486.305664062 c 0
 281.377929688 495.251953125 276 507.579101562 276 521 c 0
84 521 m 0
 84 548.607421875 106.390625 571 134 571 c 0
 161.607421875 571 184 548.609375 184 521 c 0
 184 493.392578125 161.609375 471 134 471 c 0
 106.392578125 471 84 493.390625 84 521 c 0
EndSplineSet
Refer: 10 60938 N 1 0 0 1 0 0 2
Ligature2: "tokiponaWords subtable" perc p i p i space
EndChar

StartChar: tp_poka
Encoding: 61010 61010 82
Width: 600
VWidth: 0
Flags: HW
LayerCount: 2
Back
SplineSet
300 250 m 5
 500 250 l 1028
100 450 m 5
 100 50 l 5
 500 50 l 5
 500 450 l 1029
EndSplineSet
Fore
SplineSet
100 475 m 0
 113.617128764 475 125 463.617128764 125 450 c 2
 125 75 l 1
 475 75 l 1
 475 225 l 1
 300 225 l 2
 286.382871236 225 275 236.382871236 275 250 c 0
 275 263.617128764 286.382871236 275 300 275 c 2
 475 275 l 1
 475 450 l 2
 475 463.617128764 486.382871236 475 500 475 c 0
 513.617128764 475 525 463.617128764 525 450 c 2
 525 250 l 1
 525 50 l 2
 525 39.2700956673 515.132537856 25 500 25 c 2
 100 25 l 2
 89.2700956673 25 75 34.8674621445 75 50 c 2
 75 450 l 2
 75 463.617128764 86.3828712355 475 100 475 c 0
EndSplineSet
Ligature2: "tokiponaWords subtable" perc p o k a space
EndChar

StartChar: tp_poki
Encoding: 61011 61011 83
Width: 600
VWidth: 0
Flags: HW
LayerCount: 2
Back
SplineSet
100 450 m 5
 100 50 l 5
 500 50 l 5
 500 450 l 1029
EndSplineSet
Fore
SplineSet
100 475 m 0
 113.617128764 475 125 463.617128764 125 450 c 2
 125 75 l 1
 475 75 l 1
 475 450 l 2
 475 463.617128764 486.382871236 475 500 475 c 0
 513.617128764 475 525 463.617128764 525 450 c 2
 525 50 l 2
 525 39.2700956673 515.132537856 25 500 25 c 2
 100 25 l 2
 89.2700956673 25 75 34.8674621445 75 50 c 2
 75 450 l 2
 75 463.617128764 86.3828712355 475 100 475 c 0
EndSplineSet
Ligature2: "tokiponaWords subtable" perc p o k i space
EndChar

StartChar: tp_pu
Encoding: 61013 61013 85
Width: 820
VWidth: 0
Flags: HW
LayerCount: 2
Back
SplineSet
311.772460938 210.55078125 m 29
 311.772460938 210.55078125 315.782226562 120.337890625 408 120.337890625 c 4
 500.217773438 120.337890625 496.208007812 210.55078125 496.208007812 210.55078125 c 1053
  Spiro
    311.773 210.55 {
    316.216 187.202 o
    342.109 143.686 o
    408 120.338 o
    471.815 143.686 o
    493.841 187.202 o
    496.208 210.55 v
    0 0 z
  EndSpiro
614 586 m 29
 560 478 l 1053
408 600 m 29
 410 502 l 1053
194 578 m 5
 248 472 l 1053
207.52734375 200.52734375 m 4
 207.52734375 310.786132812 297.740234375 401 408 401 c 4
 518.260742188 401 608.473632812 310.786132812 608.473632812 200.52734375 c 4
 608.473632812 90.265625 518.260742188 0.0537109375 408 0.0537109375 c 4
 297.740234375 0.0537109375 207.52734375 90.265625 207.52734375 200.52734375 c 4
  Spiro
    207.527 200.527 o
    234.947 301.417 o
    307.111 373.58 o
    408 401 o
    508.89 373.58 o
    581.054 301.417 o
    608.474 200.527 o
    581.054 99.6366 o
    508.89 27.4732 o
    408 0.053269 o
    307.111 27.4732 o
    234.947 99.6366 o
    0 0 z
  EndSpiro
100 700 m 5
 100 -100 l 5
 720 -100 l 5
 720 700 l 5
 100 700 l 5
EndSplineSet
Fore
SplineSet
310.586089957 235.522615862 m 0
 324.756121775 236.195810876 335.389192257 224.420539034 336.680134327 212.764605689 c 0
 337.158301571 205.219903828 341.509056458 145.337890625 408 145.337890625 c 0
 473.196258358 145.337890625 471.389298674 203.183266307 471.20220224 210.54922072 c 0
 471.503167626 224.554182821 482.153407864 234.990742071 495.174671036 235.529416423 c 0
 508.200405431 236.068275744 519.650507432 226.750555415 521.154185549 212.368945639 c 0
 521.155701926 212.33229059 525.358103505 95.337890625 408 95.337890625 c 0
 293.070843855 95.337890625 286.864783976 208.013754736 286.763340725 210.149026186 c 0
 286.950319141 222.321789029 296.411632206 234.84921058 310.586089957 235.522615862 c 0
625.180339887 608.360679775 m 0
 637.359870118 602.27091466 642.45044489 586.999190343 636.360679775 574.819660113 c 2
 582.360679775 466.819660113 l 2
 576.27091466 454.640129882 560.999190343 449.54955511 548.819660113 455.639320225 c 0
 536.640129882 461.72908534 531.54955511 477.000809657 537.639320225 489.180339887 c 2
 591.639320225 597.180339887 l 2
 597.72908534 609.359870118 613.000809657 614.45044489 625.180339887 608.360679775 c 0
407.489902133 624.994795462 m 0
 421.104196063 625.272638195 432.716952728 614.124391796 432.994795462 600.510097867 c 2
 434.994795462 502.510097867 l 2
 435.272638195 488.895803937 424.124391796 477.283047272 410.510097867 477.005204538 c 0
 396.895803937 476.727361805 385.283047272 487.875608204 385.005204538 501.489902133 c 2
 383.005204538 599.489902133 l 2
 382.727361805 613.104196063 393.875608204 624.716952728 407.489902133 624.994795462 c 0
182.651855465 600.275987421 m 0
 194.785255027 606.457153237 210.094821606 601.481544098 216.275987421 589.348144535 c 2
 270.275987421 483.348144535 l 2
 276.457153237 471.214744973 271.481544098 455.905178394 259.348144535 449.724012579 c 0
 247.214744973 443.542846763 231.905178394 448.518455902 225.724012579 460.651855465 c 2
 171.724012579 566.651855465 l 2
 165.542846763 578.785255027 170.518455902 594.094821606 182.651855465 600.275987421 c 0
232.52734375 200.52734375 m 0
 232.52734375 104.109708638 311.584343121 25.0537109375 408 25.0537109375 c 0
 504.416732131 25.0537109375 583.473632812 104.109768337 583.473632812 200.52734375 c 0
 583.473632812 296.941941433 504.416567884 376 408 376 c 0
 311.584499335 376 232.52734375 296.9419931 232.52734375 200.52734375 c 0
182.52734375 200.52734375 m 0
 182.52734375 324.630272525 283.895969415 426 408 426 c 0
 532.104916491 426 633.473632812 324.630324192 633.473632812 200.52734375 c 0
 633.473632812 76.4214816631 532.104752244 -24.9462890625 408 -24.9462890625 c 0
 283.896125629 -24.9462890625 182.52734375 76.4215413621 182.52734375 200.52734375 c 0
75 700 m 2
 75 710.729904333 84.8674621445 725 100 725 c 2
 720 725 l 2
 730.729904333 725 745 715.132537856 745 700 c 2
 745 -100 l 2
 745 -110.729904333 735.132537856 -125 720 -125 c 2
 100 -125 l 2
 89.2700956673 -125 75 -115.132537856 75 -100 c 2
 75 700 l 2
125 675 m 1
 125 -75 l 1
 695 -75 l 1
 695 675 l 1
 125 675 l 1
EndSplineSet
Ligature2: "tokiponaWords subtable" perc p u space
EndChar

StartChar: tp_seli
Encoding: 61015 61015 87
Width: 600
VWidth: 0
Flags: HW
LayerCount: 2
Back
SplineSet
400 160 m 5
 500 260 l 1029
300 200 m 29
 300 360 l 1029
100 260 m 5
 200 160 l 1029
275 75 m 4
 275 88.7998046875 286.200195312 100 300 100 c 4
 313.799804688 100 325 88.7998046875 325 75 c 4
 325 61.2001953125 313.799804688 50 300 50 c 4
 286.200195312 50 275 61.2001953125 275 75 c 4
EndSplineSet
Fore
SplineSet
382.32233047 142.32233047 m 0
 372.693566381 151.95109456 372.693566381 168.04890544 382.32233047 177.67766953 c 2
 482.32233047 277.67766953 l 2
 491.95109456 287.306433619 508.04890544 287.306433619 517.67766953 277.67766953 c 0
 527.306433619 268.04890544 527.306433619 251.95109456 517.67766953 242.32233047 c 2
 417.67766953 142.32233047 l 2
 408.04890544 132.693566381 391.95109456 132.693566381 382.32233047 142.32233047 c 0
300 175 m 0
 286.382871236 175 275 186.382871236 275 200 c 2
 275 360 l 2
 275 373.617128764 286.382871236 385 300 385 c 0
 313.617128764 385 325 373.617128764 325 360 c 2
 325 200 l 2
 325 186.382871236 313.617128764 175 300 175 c 0
82.3223304703 277.67766953 m 0
 91.95109456 287.306433619 108.04890544 287.306433619 117.67766953 277.67766953 c 2
 217.67766953 177.67766953 l 2
 227.306433619 168.04890544 227.306433619 151.95109456 217.67766953 142.32233047 c 0
 208.04890544 132.693566381 191.95109456 132.693566381 182.32233047 142.32233047 c 2
 82.3223304703 242.32233047 l 2
 72.6935663807 251.95109456 72.6935663807 268.04890544 82.3223304703 277.67766953 c 0
250 75 m 0
 250 102.607900865 272.39097549 125 300 125 c 0
 327.607900865 125 350 102.60902451 350 75 c 0
 350 47.3920991349 327.60902451 25 300 25 c 0
 272.392099135 25 250 47.3909754902 250 75 c 0
EndSplineSet
Ligature2: "tokiponaWords subtable" perc s e l i space
EndChar

StartChar: tp_selo
Encoding: 61016 61016 88
Width: 600
VWidth: 0
Flags: HW
LayerCount: 2
Back
SplineSet
370 50 m 5
 370 450 l 1029
230 50 m 5
 230 450 l 1029
100 50 m 5
 100 450 l 5
 500 450 l 5
 500 50 l 1029
EndSplineSet
Fore
SplineSet
100 25 m 0
 86.3828712355 25 75 36.3828712355 75 50 c 2
 75 450 l 2
 75 465.132537856 89.2700956673 475 100 475 c 2
 230 475 l 1
 370 475 l 1
 500 475 l 2
 515.132537856 475 525 460.729904333 525 450 c 2
 525 50 l 2
 525 36.3828712355 513.617128764 25 500 25 c 0
 486.382871236 25 475 36.3828712355 475 50 c 2
 475 425 l 1
 395 425 l 1
 395 50 l 2
 395 36.3828712355 383.617128764 25 370 25 c 0
 356.382871236 25 345 36.3828712355 345 50 c 2
 345 425 l 1
 255 425 l 1
 255 50 l 2
 255 36.3828712355 243.617128764 25 230 25 c 0
 216.382871236 25 205 36.3828712355 205 50 c 2
 205 425 l 1
 125 425 l 1
 125 50 l 2
 125 36.3828712355 113.617128764 25 100 25 c 0
EndSplineSet
Ligature2: "tokiponaWords subtable" perc s e l o space
EndChar

StartChar: tp_seme
Encoding: 61017 61017 89
Width: 500
VWidth: 0
Flags: HW
LayerCount: 2
Back
SplineSet
227 322 m 29
 227 242 l 1053
131 146 m 4
 131 199 174 242 227 242 c 4
 280 242 323 199 323 146 c 4
 323 93 280 50 227 50 c 4
 174 50 131 93 131 146 c 4
100 528 m 5
 100 528 144 600 227 600 c 7
 326 600 380 530.028320312 380 460 c 7
 380 335.983398438 227 322 227 322 c 1029
EndSplineSet
Fore
SplineSet
86.9075823128 506.702380436 m 0
 74.8186746801 514.133869557 72.5792240099 529.672143791 78.2909995336 540.423235187 c 0
 80.4342411982 543.909676476 129.139265922 625 227 625 c 0
 339.497412463 625 405 543.267019948 405 460 c 0
 405 344.104252444 300.018457118 310.04057148 252 300.521626302 c 1
 252 264.412320354 l 1
 306.819268494 252.88843267 348 204.236960701 348 146 c 0
 348 79.1929070993 293.807142702 25 227 25 c 0
 160.192907099 25 106 79.1928572984 106 146 c 0
 106 204.236922446 147.180700957 252.888430149 202 264.412321272 c 1
 202 321.659533016 l 2
 201.85275942 331.007563357 206.862190442 339.563161559 215.26642834 343.998304426 c 0
 217.697015648 345.319098658 220.359680723 346.248239012 223.164739778 346.696033388 c 0
 223.388620706 346.736503761 223.613902151 346.77452744 223.840566072 346.810065185 c 0
 232.285684208 347.635804942 355 363.196553535 355 460 c 0
 355 516.789620677 312.502587537 575 227 575 c 0
 161.288931127 575 123.480403011 518.373289686 120.796143805 514.110560019 c 0
 113.946797113 504.393990297 98.9940736167 499.272376719 86.9075823128 506.702380436 c 0
156 146 m 0
 156 106.807142702 187.807092901 75 227 75 c 0
 266.192857298 75 298 106.807092901 298 146 c 0
 298 185.192857298 266.192907099 217 227 217 c 0
 187.807142702 217 156 185.192907099 156 146 c 0
EndSplineSet
Ligature2: "tokiponaWords subtable" perc s e m e space
EndChar

StartChar: tp_sewi
Encoding: 61018 61018 90
Width: 500
VWidth: 0
Flags: HW
LayerCount: 2
Back
SplineSet
100 50 m 4
 189 50 195 249 195 249 c 5
 195 249 207 50 300 50 c 7
 380 50 400 107.996478917 400 250 c 7
 400 289 400 450 400 450 c 1029
EndSplineSet
Fore
SplineSet
75 50 m 0
 75 63.6171287645 86.3828712355 75 100 75 c 0
 154.0041843 75 169.628222828 237.393713119 170.01200214 249.77457276 c 0
 170.457239076 264.138077605 183.448373383 275.42098465 197.732670616 273.850201434 c 0
 209.90699387 272.511443053 219.248977854 262.041502511 219.953358491 250.526401008 c 0
 220.640513668 239.292898547 240.728239813 75 300 75 c 0
 356.567834474 75 375 105.078282486 375 250 c 2
 375 450 l 2
 375 463.617128764 386.382871236 475 400 475 c 0
 413.617128764 475 425 463.617128764 425 450 c 2
 425 250 l 2
 425 110.914675348 403.432165526 25 300 25 c 0
 243.47859334 25 213.687051836 74.122336913 197.258152512 116.799707572 c 1
 183.333363354 76.4671062271 155.854026389 25 100 25 c 0
 86.3828712355 25 75 36.3828712355 75 50 c 0
EndSplineSet
Ligature2: "tokiponaWords subtable" perc s e w i space
EndChar

StartChar: tp_sijelo
Encoding: 61019 61019 91
Width: 600
VWidth: 0
Flags: HW
LayerCount: 2
Back
SplineSet
300 50 m 5
 300 450 l 1029
100 50 m 5
 100 450 l 5
 500 450 l 5
 500 50 l 1029
EndSplineSet
Fore
SplineSet
100 25 m 0
 86.3828712355 25 75 36.3828712355 75 50 c 2
 75 450 l 2
 75 465.132537856 89.2700956673 475 100 475 c 2
 300 475 l 1
 500 475 l 2
 515.132537856 475 525 460.729904333 525 450 c 2
 525 50 l 2
 525 36.3828712355 513.617128764 25 500 25 c 0
 486.382871236 25 475 36.3828712355 475 50 c 2
 475 425 l 1
 325 425 l 1
 325 50 l 2
 325 36.3828712355 313.617128764 25 300 25 c 0
 286.382871236 25 275 36.3828712355 275 50 c 2
 275 425 l 1
 125 425 l 1
 125 50 l 2
 125 36.3828712355 113.617128764 25 100 25 c 0
EndSplineSet
Ligature2: "tokiponaWords subtable" perc s i j e l o space
EndChar

StartChar: tp_sike
Encoding: 61020 61020 92
Width: 600
VWidth: 0
Flags: HW
LayerCount: 2
Back
SplineSet
205 250 m 4
 205 302 248 345 300 345 c 4
 352 345 395 302 395 250 c 4
 395 198 352 155 300 155 c 4
 248 155 205 198 205 250 c 4
EndSplineSet
Refer: 12 60940 S 1 0 0 1 0 0 2
Fore
SplineSet
230 250 m 0
 230 211.890934342 261.890947401 180 300 180 c 0
 338.109065658 180 370 211.890947401 370 250 c 0
 370 288.109065658 338.109052599 320 300 320 c 0
 261.890934342 320 230 288.109052599 230 250 c 0
180 250 m 0
 180 315.890947401 234.109065658 370 300 370 c 0
 365.890947401 370 420 315.890934342 420 250 c 0
 420 184.109052599 365.890934342 130 300 130 c 0
 234.109052599 130 180 184.109065658 180 250 c 0
EndSplineSet
Refer: 12 60940 N 1 0 0 1 0 0 2
Ligature2: "tokiponaWords subtable" perc s i k e space
EndChar

StartChar: tp_sin
Encoding: 61021 61021 93
Width: 600
VWidth: 0
Flags: HW
LayerCount: 2
Back
SplineSet
300 300 m 5
 300 400 l 1029
400 190 m 5
 500 190 l 1029
100 190 m 5
 200 190 l 1029
EndSplineSet
Fore
SplineSet
300 275 m 0
 286.382871236 275 275 286.382871236 275 300 c 2
 275 400 l 2
 275 413.617128764 286.382871236 425 300 425 c 0
 313.617128764 425 325 413.617128764 325 400 c 2
 325 300 l 2
 325 286.382871236 313.617128764 275 300 275 c 0
375 190 m 0
 375 203.617128764 386.382871236 215 400 215 c 2
 500 215 l 2
 513.617128764 215 525 203.617128764 525 190 c 0
 525 176.382871236 513.617128764 165 500 165 c 2
 400 165 l 2
 386.382871236 165 375 176.382871236 375 190 c 0
75 190 m 0
 75 203.617128764 86.3828712355 215 100 215 c 2
 200 215 l 2
 213.617128764 215 225 203.617128764 225 190 c 0
 225 176.382871236 213.617128764 165 200 165 c 2
 100 165 l 2
 86.3828712355 165 75 176.382871236 75 190 c 0
EndSplineSet
Ligature2: "tokiponaWords subtable" perc s i n space
EndChar

StartChar: tp_sinpin
Encoding: 61023 61023 95
Width: 500
VWidth: 0
Flags: HW
LayerCount: 2
Back
SplineSet
250 250 m 5
 400 250 l 1029
100 450 m 5
 400 450 l 5
 400 50 l 5
 100 50 l 1029
EndSplineSet
Fore
SplineSet
75 450 m 0
 75 463.617128764 86.3828712355 475 100 475 c 2
 400 475 l 2
 415.132537856 475 425 460.729904333 425 450 c 2
 425 250 l 1
 425 50 l 2
 425 34.8674621445 410.729904333 25 400 25 c 2
 100 25 l 2
 86.3828712355 25 75 36.3828712355 75 50 c 0
 75 63.6171287645 86.3828712355 75 100 75 c 2
 375 75 l 1
 375 225 l 1
 250 225 l 2
 236.382871236 225 225 236.382871236 225 250 c 0
 225 263.617128764 236.382871236 275 250 275 c 2
 375 275 l 1
 375 425 l 1
 100 425 l 2
 86.3828712355 425 75 436.382871236 75 450 c 0
EndSplineSet
Ligature2: "tokiponaWords subtable" perc s i n p i n space
EndChar

StartChar: tp_sitelen
Encoding: 61024 61024 96
Width: 600
VWidth: 0
Flags: HW
LayerCount: 2
Back
SplineSet
275 250 m 4
 275 263.799804688 286.200195312 275 300 275 c 4
 313.799804688 275 325 263.799804688 325 250 c 4
 325 236.200195312 313.799804688 225 300 225 c 4
 286.200195312 225 275 236.200195312 275 250 c 4
100 450 m 5
 100 50 l 5
 500 50 l 5
 500 450 l 5
 100 450 l 5
EndSplineSet
Fore
SplineSet
250 250 m 0
 250 277.607900865 272.39097549 300 300 300 c 0
 327.607900865 300 350 277.60902451 350 250 c 0
 350 222.392099135 327.60902451 200 300 200 c 0
 272.392099135 200 250 222.39097549 250 250 c 0
75 450 m 2
 75 460.729904333 84.8674621445 475 100 475 c 2
 500 475 l 2
 510.729904333 475 525 465.132537856 525 450 c 2
 525 50 l 2
 525 39.2700956673 515.132537856 25 500 25 c 2
 100 25 l 2
 89.2700956673 25 75 34.8674621445 75 50 c 2
 75 450 l 2
125 425 m 1
 125 75 l 1
 475 75 l 1
 475 425 l 1
 125 425 l 1
EndSplineSet
Ligature2: "tokiponaWords subtable" perc s i t e l e n space
EndChar

StartChar: tp_sona
Encoding: 61025 61025 97
Width: 600
VWidth: 0
Flags: HW
LayerCount: 2
Back
SplineSet
438 556 m 29
 499 654 l 1029
300 570 m 5
 300 700 l 1029
103 656 m 5
 175 560 l 1029
100 50 m 5
 500 50 l 5
 500 450 l 5
 100 450 l 5
 100 50 l 5
EndSplineSet
Fore
SplineSet
424.788983504 534.775743991 m 0
 413.228446424 541.9715885 409.579899481 557.650479415 416.775743991 569.211016496 c 2
 477.775743991 667.211016496 l 2
 484.9715885 678.771553576 500.650479415 682.420100519 512.211016496 675.224256009 c 0
 523.771553576 668.0284115 527.420100519 652.349520585 520.224256009 640.788983504 c 2
 459.224256009 542.788983504 l 2
 452.0284115 531.228446424 436.349520585 527.579899481 424.788983504 534.775743991 c 0
300 545 m 0
 286.382871236 545 275 556.382871236 275 570 c 2
 275 700 l 2
 275 713.617128764 286.382871236 725 300 725 c 0
 313.617128764 725 325 713.617128764 325 700 c 2
 325 570 l 2
 325 556.382871236 313.617128764 545 300 545 c 0
88 676 m 0
 98.8937030116 684.170277259 114.829722741 681.893703012 123 671 c 2
 195 575 l 2
 203.170277259 564.106296988 200.893703012 548.170277259 190 540 c 0
 179.106296988 531.829722741 163.170277259 534.106296988 155 545 c 2
 83 641 l 2
 74.8297227413 651.893703012 77.1062969884 667.829722741 88 676 c 0
100 25 m 2
 89.2700956673 25 75 34.8674621445 75 50 c 2
 75 450 l 2
 75 460.729904333 84.8674621445 475 100 475 c 2
 500 475 l 2
 510.729904333 475 525 465.132537856 525 450 c 2
 525 50 l 2
 525 39.2700956673 515.132537856 25 500 25 c 2
 100 25 l 2
125 75 m 1
 475 75 l 1
 475 425 l 1
 125 425 l 1
 125 75 l 1
EndSplineSet
Ligature2: "tokiponaWords subtable" perc s o n a space
EndChar

StartChar: tp_soweli
Encoding: 61026 61026 98
Width: 600
VWidth: 0
Flags: HW
LayerCount: 2
Back
SplineSet
335 250 m 4
 335 263.799804688 346.200195312 275 360 275 c 4
 373.799804688 275 385 263.799804688 385 250 c 4
 385 236.200195312 373.799804688 225 360 225 c 4
 346.200195312 225 335 236.200195312 335 250 c 4
163 248 m 4
 163 261.799804688 174.200195312 273 188 273 c 4
 201.799804688 273 213 261.799804688 213 248 c 4
 213 234.200195312 201.799804688 223 188 223 c 4
 174.200195312 223 163 234.200195312 163 248 c 4
100 450 m 5
 300 450 l 7
 431.381124976 450 520 382.185475753 520 250 c 7
 520 50 300 50 300 50 c 5
 300 -100 l 1029
EndSplineSet
Fore
SplineSet
310 250 m 0
 310 277.607900865 332.39097549 300 360 300 c 0
 387.607900865 300 410 277.60902451 410 250 c 0
 410 222.392099135 387.60902451 200 360 200 c 0
 332.392099135 200 310 222.39097549 310 250 c 0
138 248 m 0
 138 275.607900865 160.39097549 298 188 298 c 0
 215.607900865 298 238 275.60902451 238 248 c 0
 238 220.392099135 215.60902451 198 188 198 c 0
 160.392099135 198 138 220.39097549 138 248 c 0
75 450 m 0
 75 463.617128764 86.3828712355 475 100 475 c 2
 300 475 l 2
 440.985795201 475 545 397.428000818 545 250 c 0
 545 68.5562924714 382.028091604 33.1190957992 325 26.6804402956 c 1
 325 -100 l 2
 325 -113.617128764 313.617128764 -125 300 -125 c 0
 286.382871236 -125 275 -113.617128764 275 -100 c 2
 275 50 l 2
 275 62.0136197368 284.55957125 74.2415850701 299.280742107 74.9959447143 c 0
 307.596572206 75.0454201432 495 77.9985671263 495 250 c 0
 495 366.942950688 421.776454751 425 300 425 c 2
 100 425 l 2
 86.3828712355 425 75 436.382871236 75 450 c 0
EndSplineSet
Ligature2: "tokiponaWords subtable" perc s o w e l i space
EndChar

StartChar: tp_suli
Encoding: 61027 61027 99
Width: 600
VWidth: 0
Flags: HW
AnchorPoint: "Square" 300 250.098 mark 0
AnchorPoint: "Circle" 300 279.098 mark 0
LayerCount: 2
Back
SplineSet
100 450 m 5
 300 50 l 5
 500 450 l 5
 100 450 l 5
EndSplineSet
Fore
SplineSet
77.639320225 438.819660113 m 2
 76.5462563833 441.005787796 75.3263494433 444.871002822 75.0770627014 448.038572864 c 0
 73.9496026972 462.364679847 85.6295961308 475 100 475 c 2
 500 475 l 2
 502.444165054 475 506.446877441 474.362541229 509.391522636 473.168929681 c 0
 522.709397706 467.770530752 528.787319758 451.672940079 522.360679775 438.819660113 c 2
 322.360679775 38.8196601125 l 2
 320.906139601 35.9105797646 316.983473485 31.0451869495 312.900230163 28.5854240824 c 0
 300.590785978 21.1701633842 284.065960208 25.9663801462 277.639320225 38.8196601125 c 2
 77.639320225 438.819660113 l 2
140.450849719 425 m 1
 300 105.901699437 l 1
 459.549150281 425 l 1
 140.450849719 425 l 1
EndSplineSet
Ligature2: "tokiponaWords subtable" perc s u l i space
EndChar

StartChar: tp_suno
Encoding: 61028 61028 100
Width: 600
VWidth: 0
Flags: HW
LayerCount: 2
Back
SplineSet
100 250 m 29
 200 250 l 1053
500 250 m 29
 400 250 l 1053
200 250 m 4
 200 305 245 350 300 350 c 4
 355 350 400 305 400 250 c 4
 400 195 355 150 300 150 c 4
 245 150 200 195 200 250 c 4
300 50 m 29
 300 150 l 1053
300 450 m 29
 300 350 l 1053
EndSplineSet
Fore
SplineSet
300 475 m 0
 313.617128764 475 325 463.617128764 325 450 c 2
 325 372.480667684 l 1
 373.855054932 362.495652498 412.495643448 323.855238599 422.480674931 275 c 1
 500 275 l 2
 513.617128764 275 525 263.617128764 525 250 c 0
 525 236.382871236 513.617128764 225 500 225 c 2
 422.480667684 225 l 1
 412.495652498 176.144945068 373.855238599 137.504356552 325 127.519325069 c 1
 325 50 l 2
 325 36.3828712355 313.617128764 25 300 25 c 0
 286.382871236 25 275 36.3828712355 275 50 c 2
 275 127.519332316 l 1
 226.144945068 137.504347502 187.504356552 176.144761401 177.519325069 225 c 1
 100 225 l 2
 86.3828712355 225 75 236.382871236 75 250 c 0
 75 263.617128764 86.3828712355 275 100 275 c 2
 177.519332316 275 l 1
 187.504347502 323.855054932 226.144761401 362.495643448 275 372.480674931 c 1
 275 450 l 2
 275 463.617128764 286.382871236 475 300 475 c 0
300 325 m 0
 258.84455479 325 225 291.155851107 225 250 c 0
 225 208.84455479 258.844148893 175 300 175 c 0
 341.15544521 175 375 208.844148893 375 250 c 0
 375 291.15544521 341.155851107 325 300 325 c 0
EndSplineSet
Ligature2: "tokiponaWords subtable" perc s u n o space
EndChar

StartChar: tp_supa
Encoding: 61029 61029 101
Width: 600
VWidth: 0
Flags: HW
LayerCount: 2
Back
SplineSet
380 350 m 5
 380 100 l 1029
100 350 m 5
 500 350 l 1029
230 100 m 5
 230 350 l 1029
EndSplineSet
Fore
SplineSet
230 75 m 0
 216.382871236 75 205 86.3828712355 205 100 c 2
 205 325 l 1
 100 325 l 2
 86.3828712355 325 75 336.382871236 75 350 c 0
 75 363.617128764 86.3828712355 375 100 375 c 2
 230 375 l 1
 380 375 l 1
 500 375 l 2
 513.617128764 375 525 363.617128764 525 350 c 0
 525 336.382871236 513.617128764 325 500 325 c 2
 405 325 l 1
 405 100 l 2
 405 86.3828712355 393.617128764 75 380 75 c 0
 366.382871236 75 355 86.3828712355 355 100 c 2
 355 325 l 1
 255 325 l 1
 255 100 l 2
 255 86.3828712355 243.617128764 75 230 75 c 0
EndSplineSet
Ligature2: "tokiponaWords subtable" perc s u p a space
EndChar

StartChar: tp_suwi
Encoding: 61030 61030 102
Width: 600
VWidth: 0
Flags: HW
LayerCount: 2
Back
SplineSet
360 288 m 5
 440 408 l 5
 520 288 l 1029
275 135 m 4
 275 148.799804688 286.200195312 160 300 160 c 4
 313.799804688 160 325 148.799804688 325 135 c 4
 325 121.200195312 313.799804688 110 300 110 c 4
 286.200195312 110 275 121.200195312 275 135 c 4
80 288 m 5
 160 408 l 5
 240 288 l 1029
EndSplineSet
Fore
SplineSet
346.132495094 267.198742642 m 0
 334.802359098 274.752166639 331.645318644 290.537368909 339.198742642 301.867504906 c 2
 419.198742642 421.867504906 l 2
 427.170008488 433.824403675 444.162124989 436.533931081 455.456764236 427.649133298 c 0
 457.766263099 425.832392636 460.801257358 421.867504906 460.801257358 421.867504906 c 1
 540.801257358 301.867504906 l 2
 548.354681356 290.537368909 545.197640902 274.752166639 533.867504906 267.198742642 c 0
 522.537368909 259.645318644 506.752166639 262.802359098 499.198742642 274.132495094 c 2
 440 362.930609057 l 1
 380.801257358 274.132495094 l 2
 373.247833361 262.802359098 357.462631091 259.645318644 346.132495094 267.198742642 c 0
250 135 m 0
 250 162.607900865 272.39097549 185 300 185 c 0
 327.607900865 185 350 162.60902451 350 135 c 0
 350 107.392099135 327.60902451 85 300 85 c 0
 272.392099135 85 250 107.39097549 250 135 c 0
66.1324950944 267.198742642 m 0
 54.8023590979 274.752166639 51.6453186439 290.537368909 59.1987426416 301.867504906 c 2
 139.198742642 421.867504906 l 2
 147.170008488 433.824403675 164.162124989 436.533931081 175.456764236 427.649133298 c 0
 177.766263099 425.832392636 180.801257358 421.867504906 180.801257358 421.867504906 c 1
 260.801257358 301.867504906 l 2
 268.354681356 290.537368909 265.197640902 274.752166639 253.867504906 267.198742642 c 0
 242.537368909 259.645318644 226.752166639 262.802359098 219.198742642 274.132495094 c 2
 160 362.930609057 l 1
 100.801257358 274.132495094 l 2
 93.2478333608 262.802359098 77.4626310909 259.645318644 66.1324950944 267.198742642 c 0
EndSplineSet
Ligature2: "tokiponaWords subtable" perc s u w i space
EndChar

StartChar: tp_tan
Encoding: 61031 61031 103
Width: 600
VWidth: 0
Flags: HW
LayerCount: 2
Back
SplineSet
343 147 m 5
 176 50 l 1029
77 202 m 5
 176 50 l 5
 207 165 203 450 363 450 c 7
 500 450 500 250 500 250 c 1029
EndSplineSet
Fore
SplineSet
63.3559200459 222.948486394 m 0
 74.7662495119 230.380214138 90.5167586499 227.05440942 97.9484863942 215.644079954 c 2
 163.476269202 115.035766956 l 1
 182.94359676 236.297610708 197.133077281 475 363 475 c 0
 530.531975196 475 525.000855009 249.242001094 525.000855009 249.242001094 c 1
 524.108862546 234.809758083 513.064486401 225.014418892 500.027620951 225.000015258 c 0
 486.991562264 224.985612516 475.922402742 234.793368995 475.003726149 249.142319703 c 0
 474.948152569 261.595669406 468.375702173 425 363 425 c 0
 250.465164112 425 237.821753132 237.143589049 212.538901931 100.134407302 c 1
 330.443489313 168.617910152 l 2
 342.218443959 175.457255067 357.778565238 171.331465334 364.617910152 159.556510687 c 0
 371.457255067 147.781556041 367.331465334 132.221434762 355.556510687 125.382089848 c 2
 188.556510687 28.3820898476 l 2
 181.569124046 24.323547906 173.248842009 24.1262302892 166.208926912 27.0972260101 c 0
 161.777680317 28.9528649171 157.838725832 32.0765646705 155.051513606 36.3559200459 c 2
 56.0515136058 188.355920046 l 2
 48.6197858615 199.766249512 51.9455905799 215.51675865 63.3559200459 222.948486394 c 0
EndSplineSet
Ligature2: "tokiponaWords subtable" perc t a n space
EndChar

StartChar: tp_taso
Encoding: 61032 61032 104
Width: 400
VWidth: 0
Flags: HW
LayerCount: 2
Back
SplineSet
300 450 m 5
 300 50 l 1029
100 250 m 5
 300 250 l 1029
EndSplineSet
Fore
SplineSet
75 250 m 0
 75 263.617128764 86.3828712355 275 100 275 c 2
 275 275 l 1
 275 450 l 2
 275 463.617128764 286.382871236 475 300 475 c 0
 313.617128764 475 325 463.617128764 325 450 c 2
 325 250 l 1
 325 50 l 2
 325 36.3828712355 313.617128764 25 300 25 c 0
 286.382871236 25 275 36.3828712355 275 50 c 2
 275 225 l 1
 100 225 l 2
 86.3828712355 225 75 236.382871236 75 250 c 0
EndSplineSet
Ligature2: "tokiponaWords subtable" perc t a s o space
EndChar

StartChar: tp_tawa
Encoding: 61033 61033 105
Width: 600
VWidth: 0
Flags: HW
LayerCount: 2
Back
SplineSet
300 50 m 5
 100 50 l 5
 300 450 l 5
 500 50 l 1029
EndSplineSet
Fore
SplineSet
325 50 m 0
 325 36.3828712355 313.617128764 25 300 25 c 2
 100 25 l 2
 85.6295961308 25 73.9496026972 37.6353201526 75.0770627014 51.9614271361 c 0
 75.3291608948 55.1647209787 76.3405774035 58.5828542446 77.639320225 61.1803398875 c 2
 277.639320225 461.180339887 l 2
 284.065960208 474.033619854 300.590785978 478.829836616 312.900230163 471.414575918 c 0
 317.050823724 468.914240985 321.398805947 463.104087543 322.360679775 461.180339887 c 2
 522.360679775 61.1803398875 l 2
 528.45044489 49.0008096572 523.359870118 33.7290853401 511.180339887 27.639320225 c 0
 499.000809657 21.5495551099 483.72908534 26.6401298822 477.639320225 38.8196601125 c 2
 300 394.098300563 l 1
 140.450849719 75 l 1
 300 75 l 2
 313.617128764 75 325 63.6171287645 325 50 c 0
EndSplineSet
Ligature2: "tokiponaWords subtable" perc t a w a space
EndChar

StartChar: tp_telo
Encoding: 61034 61034 106
Width: 600
VWidth: 0
Flags: HW
LayerCount: 2
Back
SplineSet
100 300 m 29
 100 300 100 450 200 450 c 7
 250 450 300 375 300 375 c 5
 300 375 350 300 400 300 c 7
 500 300 500 450 500 450 c 1029
100 50 m 25
 100 50 100 200 200 200 c 3
 250 200 300 125 300 125 c 1
 300 125 350 50 400 50 c 3
 500 50 500 200 500 200 c 1025
EndSplineSet
Fore
SplineSet
99.9636099367 275.000026485 m 0
 85.7731816734 275.02068213 75.7456063923 287.099688381 74.998878849 299.250799854 c 1
 74.998878849 299.250799854 69.5986837141 475 200 475 c 0
 271.06499214 475 320.785880076 388.890544577 320.785880076 388.890544577 c 2
 323.320137516 385.117526971 370.756530594 325 400 325 c 0
 468.422232244 325 474.955295616 439.882482852 475.000026485 450.036390063 c 0
 475.019847612 463.653504402 486.419275725 475.019794642 500.036390063 474.999973515 c 0
 513.073250191 474.980997009 524.114187772 465.181808731 525.001121151 450.749200146 c 1
 525.001121151 450.749200146 530.913258848 275 400 275 c 0
 329.979107023 275 279.230838165 361.084448972 279.230838165 361.084448972 c 2
 277.354033158 363.878647473 229.529720891 425 200 425 c 0
 131.599371032 425 125.029600605 310.096074792 124.999973515 299.963609937 c 0
 124.980152388 286.346495598 113.580724275 274.980205358 99.9636099367 275.000026485 c 0
99.9636099367 25.0000264847 m 0
 85.7731816734 25.02068213 75.7456063923 37.0996883806 74.998878849 49.2507998539 c 1
 74.998878849 49.2507998539 69.5986837141 225 200 225 c 0
 271.06499214 225 320.785880076 138.890544577 320.785880076 138.890544577 c 2
 323.320137516 135.117526971 370.756530594 75 400 75 c 0
 468.422232244 75 474.955295616 189.882482852 475.000026485 200.036390063 c 0
 475.019847612 213.653504402 486.419275725 225.019794642 500.036390063 224.999973515 c 0
 513.073250191 224.980997009 524.114187772 215.181808731 525.001121151 200.749200146 c 1
 525.001121151 200.749200146 530.913258848 25 400 25 c 0
 329.979107023 25 279.230838165 111.084448972 279.230838165 111.084448972 c 2
 277.354033158 113.878647473 229.529720891 175 200 175 c 0
 131.599371032 175 125.029600605 60.0960747921 124.999973515 49.9636099367 c 0
 124.980152388 36.346495598 113.580724275 24.9802053576 99.9636099367 25.0000264847 c 0
EndSplineSet
Ligature2: "tokiponaWords subtable" perc t e l o space
EndChar

StartChar: tp_tenpo
Encoding: 61035 61035 107
Width: 600
VWidth: 0
Flags: HW
LayerCount: 2
Back
SplineSet
500 250 m 5
 300 250 l 29
 300 450 l 1029
EndSplineSet
Refer: 12 60940 S 1 0 0 1 0 0 2
Fore
SplineSet
55 250 m 0
 55 384.84375 165.155273438 495 300 495 c 0
 434.84375 495 545 384.844726562 545 250 c 0
 545 115.15625 434.844726562 5 300 5 c 0
 165.15625 5 55 115.155273438 55 250 c 0
105 250 m 0
 105 142.844726562 192.84375 55 300 55 c 0
 398.690232402 55 481.000392336 129.513010957 493.389158156 225 c 1
 300 225 l 2
 284.867462144 225 275 239.270095667 275 250 c 2
 275 443.389149524 l 1
 179.513737189 431.000421622 105 348.691064183 105 250 c 0
325 443.389158156 m 1
 325 275 l 1
 493.389149524 275 l 1
 482.06305122 362.296032965 412.296637079 432.063032948 325 443.389158156 c 1
EndSplineSet
Ligature2: "tokiponaWords subtable" perc t e n p o space
EndChar

StartChar: tp_toki
Encoding: 61036 61036 108
Width: 600
VWidth: 0
Flags: HW
LayerCount: 2
Back
SplineSet
531 656 m 29
 453 508 l 1053
300 700 m 29
 300 558 l 1028
87 656 m 29
 155 520 l 1053
EndSplineSet
Refer: 12 60940 S 1 0 0 1 0 0 2
Fore
SplineSet
542.655976918 678.116469024 m 0
 554.702489179 671.767631481 559.465306567 656.390535343 553.116469024 644.344023082 c 2
 475.116469024 496.344023082 l 2
 468.767631481 484.297510821 453.390535343 479.534693433 441.344023082 485.883530976 c 0
 429.297510821 492.232368519 424.534693433 507.609464657 430.883530976 519.655976918 c 2
 508.883530976 667.655976918 l 2
 515.232368519 679.702489179 530.609464657 684.465306567 542.655976918 678.116469024 c 0
300 725 m 0
 313.617128764 725 325 713.617128764 325 700 c 2
 325 558 l 2
 325 544.382871236 313.617128764 533 300 533 c 0
 286.382871236 533 275 544.382871236 275 558 c 2
 275 700 l 2
 275 713.617128764 286.382871236 725 300 725 c 0
75.8196601125 678.360679775 m 0
 87.9991903428 684.45044489 103.27091466 679.359870118 109.360679775 667.180339887 c 2
 177.360679775 531.180339887 l 2
 183.45044489 519.000809657 178.359870118 503.72908534 166.180339887 497.639320225 c 0
 154.000809657 491.54955511 138.72908534 496.640129882 132.639320225 508.819660113 c 2
 64.639320225 644.819660113 l 2
 58.5495551099 656.999190343 63.6401298822 672.27091466 75.8196601125 678.360679775 c 0
EndSplineSet
Refer: 12 60940 N 1 0 0 1 0 0 2
Ligature2: "tokiponaWords subtable" perc t o k i space
EndChar

StartChar: tp_tomo
Encoding: 61037 61037 109
Width: 600
VWidth: 0
Flags: HW
LayerCount: 2
Back
SplineSet
100 50 m 5
 100 250 l 5
 300 470 l 5
 500 250 l 5
 500 50 l 5
 100 50 l 5
EndSplineSet
Fore
SplineSet
125 75 m 1
 475 75 l 1
 475 240.334828132 l 1
 300 432.834828132 l 1
 125 240.334828132 l 1
 125 75 l 1
75 50 m 2
 75 250 l 2
 75 256.19076625 77.4045985216 262.310230242 81.5014981651 266.81681985 c 2
 281.501498165 486.81681985 l 2
 292.149802166 498.529954251 310.278910368 495.858370463 318.498501835 486.81681985 c 2
 518.498501835 266.81681985 l 2
 522.662861865 262.236023817 525 256.090479175 525 250 c 2
 525 50 l 2
 525 34.8674621445 510.729904333 25 500 25 c 2
 100 25 l 2
 84.8674621445 25 75 39.2700956673 75 50 c 2
EndSplineSet
Ligature2: "tokiponaWords subtable" perc t o m o space
EndChar

StartChar: tp_tu
Encoding: 61038 61038 110
Width: 350
VWidth: 0
Flags: HW
LayerCount: 2
Back
SplineSet
250 450 m 5
 250 50 l 1029
100 450 m 5
 100 50 l 1029
EndSplineSet
Fore
SplineSet
250 475 m 4
 263.6171875 475 275 463.6171875 275 450 c 6
 275 50 l 6
 275 36.3828125 263.6171875 25 250 25 c 4
 236.3828125 25 225 36.3828125 225 50 c 6
 225 450 l 6
 225 463.6171875 236.3828125 475 250 475 c 4
100 475 m 0
 113.617128764 475 125 463.617128764 125 450 c 2
 125 50 l 2
 125 36.3828712355 113.617128764 25 100 25 c 0
 86.3828712355 25 75 36.3828712355 75 50 c 2
 75 450 l 2
 75 463.617128764 86.3828712355 475 100 475 c 0
EndSplineSet
Ligature2: "tokiponaWords subtable" perc t u space
EndChar

StartChar: tp_unpa
Encoding: 61039 61039 111
Width: 600
VWidth: 0
Flags: HW
LayerCount: 2
Back
SplineSet
100 325 m 7
 100 247 200 190 300 190 c 7
 400 190 500 246 500 325 c 7
 500 402 456 450 394 450 c 7
 338 450 198 346.012695312 198 192 c 7
 198 49.873046875 268 50 300 50 c 7
 332 50 400 49.78125 400 196 c 7
 400 346.013671875 254 450 202 450 c 7
 132 450 100 398 100 325 c 7
EndSplineSet
Fore
SplineSet
173.005192551 193.758678918 m 0
 119.568783874 219.894536242 75 265.243425515 75 325 c 0
 75 404.797307118 114.256726105 475 202 475 c 0
 230.576280128 475 263.751528485 458.425098387 297.521099782 433.023149785 c 1
 330.920916049 458.526772263 364.561994197 475 394 475 c 0
 471.891471808 475 525 411.981056231 525 325 c 0
 525 264.050546014 479.409126093 218.369441645 424.987597427 192.498312503 c 1
 423.778284656 36.1360797214 338.243679253 25 300 25 c 0
 261.95349867 25 173 35.5103440304 173 192 c 0
 173 193 173.005192551 192.423417822 173.005192551 193.758678918 c 0
419.988859847 246.441282213 m 1
 455.709005039 267.864457857 475 295.861524898 475 325 c 0
 475 392.018943769 440.108528192 425 394 425 c 0
 385.027926808 425 361.51398299 417.173662973 335.951016663 399.229707553 c 1
 373.403480943 360.947921981 407.461147416 308.764700575 419.988859847 246.441282213 c 1
223.376158658 175.079061891 m 1
 228.581119874 66.2790048445 274.125186481 75 300 75 c 0
 325.085266917 75 368.166868167 65.8277930975 374.429373838 174.379725177 c 1
 350.486429597 168.308845165 325.144687406 165 300 165 c 0
 274.087313371 165 247.961686584 168.577467517 223.376158658 175.079061891 c 1
372.827346028 225.8395913 m 1
 364.594021562 282.071854452 333.580264518 330.977704486 297.912669228 366.578399971 c 1
 263.864171381 331.540482382 234.360634571 283.156525067 225.626373967 226.4863552 c 1
 249.022434903 219.099536378 274.654999119 215 300 215 c 0
 324.786583805 215 349.865687882 218.854511292 372.827346028 225.8395913 c 1
259.545117312 398.815176824 m 1
 233.306605433 417.021055697 209.325239282 425 202 425 c 0
 149.743273895 425 125 391.202692882 125 325 c 0
 125 296.80267459 143.674566022 269.148184138 178.631282772 247.640855997 c 1
 191.256113129 309.246118952 223.487010615 360.793210913 259.545117312 398.815176824 c 1
EndSplineSet
Ligature2: "tokiponaWords subtable" perc u n p a space
EndChar

StartChar: tp_uta
Encoding: 61040 61040 112
Width: 600
VWidth: 0
Flags: HW
LayerCount: 2
Back
SplineSet
300 30 m 7
 407.653320312 30 500 140 500 250 c 20
 500 450 l 5
 100 450 l 5
 100 250 l 15
 100 140 165.409179688 30 300 30 c 7
EndSplineSet
Fore
SplineSet
300 5 m 0
 148.003128921 5 75 131.248402992 75 250 c 2
 75 450 l 2
 75 460.729904333 84.8674621445 475 100 475 c 2
 500 475 l 2
 510.729904333 475 525 465.132537856 525 450 c 2
 525 250 l 2
 525 128.200481977 424.602071094 5 300 5 c 0
300 55 m 0
 390.704569531 55 475 151.799518023 475 250 c 2
 475 425 l 1
 125 425 l 1
 125 250 l 2
 125 148.751597008 182.815230454 55 300 55 c 0
EndSplineSet
Ligature2: "tokiponaWords subtable" perc u t a space
EndChar

StartChar: tp_utala
Encoding: 61041 61041 113
Width: 600
VWidth: 0
Flags: HW
LayerCount: 2
Back
SplineSet
500 450 m 5
 100 50 l 5
 100 250 l 1029
100 450 m 5
 500 50 l 5
 500 250 l 1029
EndSplineSet
Fore
SplineSet
517.67766953 467.67766953 m 0
 527.306433619 458.04890544 527.306433619 441.95109456 517.67766953 432.32233047 c 2
 117.67766953 32.3223304703 l 2
 107.516259505 22.160920446 90.3227363819 22.8364384473 80.9898836004 33.7637604578 c 0
 76.9133080255 38.5367977112 75 47.153203569 75 50 c 2
 75 250 l 2
 75 263.617128764 86.3828712355 275 100 275 c 0
 113.617128764 275 125 263.617128764 125 250 c 2
 125 110.355339059 l 1
 482.32233047 467.67766953 l 2
 491.95109456 477.306433619 508.04890544 477.306433619 517.67766953 467.67766953 c 0
82.3223304703 467.67766953 m 0
 91.95109456 477.306433619 108.04890544 477.306433619 117.67766953 467.67766953 c 2
 475 110.355339059 l 1
 475 250 l 2
 475 263.617128764 486.382871236 275 500 275 c 0
 513.617128764 275 525 263.617128764 525 250 c 2
 525 50 l 2
 525 44.099595615 522.853393606 38.2636415327 519.0101164 33.7637604578 c 0
 509.677263618 22.8364384473 492.483740495 22.160920446 482.32233047 32.3223304703 c 2
 82.3223304703 432.32233047 l 2
 72.6935663807 441.95109456 72.6935663807 458.04890544 82.3223304703 467.67766953 c 0
EndSplineSet
Ligature2: "tokiponaWords subtable" perc u t a l a space
EndChar

StartChar: tp_walo
Encoding: 61042 61042 114
Width: 600
VWidth: 0
Flags: HW
LayerCount: 2
Back
SplineSet
500 330 m 5
 420 220 l 1029
100 330 m 5
 180 220 l 1029
100 50 m 5
 500 50 l 5
 300 450 l 5
 100 50 l 5
EndSplineSet
Fore
SplineSet
140.450849719 75 m 1
 459.549150281 75 l 1
 300 394.098300563 l 1
 140.450849719 75 l 1
100 25 m 2
 97.5558349461 25 93.5531225594 25.6374587713 90.6084773639 26.8310703187 c 0
 77.2906022944 32.2294692478 71.2126802419 48.3270599212 77.639320225 61.1803398875 c 2
 153.805542288 213.512784014 l 1
 79.7815978924 315.295707558 l 2
 71.7723881496 326.308370955 74.2830441617 342.209192365 85.2957075581 350.218402108 c 0
 96.3083709546 358.22761185 112.209192365 355.716955838 120.218402108 344.704292442 c 2
 178.993450638 263.888600713 l 1
 277.639320225 461.180339887 l 2
 279.093860399 464.089420235 283.016526515 468.954813051 287.099769837 471.414575918 c 0
 299.409214022 478.829836616 315.934039792 474.033619854 322.360679775 461.180339887 c 2
 421.006549362 263.888600713 l 1
 479.781597892 344.704292442 l 2
 487.790807635 355.716955838 503.691629045 358.22761185 514.704292442 350.218402108 c 0
 525.716955838 342.209192365 528.22761185 326.308370955 520.218402108 315.295707558 c 2
 446.194457712 213.512784014 l 1
 522.360679775 61.1803398875 l 2
 523.453743617 58.994212204 524.673650557 55.1289971785 524.922937299 51.9614271361 c 0
 526.050397303 37.6353201526 514.370403869 25 500 25 c 2
 100 25 l 2
EndSplineSet
Ligature2: "tokiponaWords subtable" perc w a l o space
EndChar

StartChar: tp_wan
Encoding: 61043 61043 115
Width: 220
VWidth: 0
Flags: HW
LayerCount: 2
Back
SplineSet
60 350 m 1
 160 450 l 1
 160 50 l 1024
EndSplineSet
Fore
SplineSet
42.322265625 332.322265625 m 0
 32.693359375 341.951171875 32.693359375 358.048828125 42.322265625 367.677734375 c 2
 142.322265625 467.677734375 l 2
 152.483398438 477.838867188 169.677734375 477.163085938 179.009765625 466.236328125 c 0
 183.086914062 461.462890625 185 452.846679688 185 450 c 2
 185 50 l 2
 185 36.3828125 173.6171875 25 160 25 c 0
 146.3828125 25 135 36.3828125 135 50 c 2
 135 389.64453125 l 1
 77.677734375 332.322265625 l 2
 68.048828125 322.693359375 51.951171875 322.693359375 42.322265625 332.322265625 c 0
EndSplineSet
Ligature2: "tokiponaWords subtable" perc w a n space
EndChar

StartChar: tp_waso
Encoding: 61044 61044 116
Width: 600
VWidth: 0
Flags: HW
LayerCount: 2
Back
SplineSet
285 250 m 4
 285 263.799804688 296.200195312 275 310 275 c 4
 323.799804688 275 335 263.799804688 335 250 c 4
 335 236.200195312 323.799804688 225 310 225 c 4
 296.200195312 225 285 236.200195312 285 250 c 4
113 248 m 4
 113 261.799804688 124.200195312 273 138 273 c 4
 151.799804688 273 163 261.799804688 163 248 c 4
 163 234.200195312 151.799804688 223 138 223 c 4
 124.200195312 223 113 234.200195312 113 248 c 4
100 600 m 4
 520 250 l 5
 300 50 l 5
 300 -100 l 1029
EndSplineSet
Fore
SplineSet
260 250 m 0
 260 277.607900865 282.39097549 300 310 300 c 0
 337.607900865 300 360 277.60902451 360 250 c 0
 360 222.392099135 337.60902451 200 310 200 c 0
 282.392099135 200 260 222.39097549 260 250 c 0
88 248 m 0
 88 275.607900865 110.39097549 298 138 298 c 0
 165.607900865 298 188 275.60902451 188 248 c 0
 188 220.392099135 165.60902451 198 138 198 c 0
 110.392099135 198 88 220.39097549 88 248 c 0
80.7944680101 616.004609992 m 0
 89.5119414133 626.465578076 105.543641908 627.923005393 116.004609992 619.20553199 c 2
 536.004609992 269.20553199 l 2
 547.807702315 259.369621721 547.357701246 241.084117616 536.81681985 231.501498165 c 2
 325 38.940752847 l 1
 325 -100 l 2
 325 -113.617128764 313.617128764 -125 300 -125 c 0
 286.382871236 -125 275 -113.617128764 275 -100 c 2
 275 50 l 2
 275 56.3027260488 277.914314584 63.7086240471 283.18318015 68.4985018349 c 2
 481.932791539 249.179966734 l 1
 83.9953900084 580.79446801 l 2
 73.5344219245 589.511941413 72.0769946068 605.543641908 80.7944680101 616.004609992 c 0
EndSplineSet
Ligature2: "tokiponaWords subtable" perc w a s o space
EndChar

StartChar: tp_wawa
Encoding: 61045 61045 117
Width: 600
VWidth: 0
Flags: HW
HStem: 97 50<239.97 360.03> 341 50<239.97 360.03>
VStem: 75 50<25.2041 474.796> 153 50<183.97 304.03> 397 50<183.97 304.03> 475 50<25.2041 474.796>
AnchorPoint: "Square" 300 250 mark 0
AnchorPoint: "Circle" 300 250 mark 0
LayerCount: 2
Back
SplineSet
204 250 m 4
 204 303 247 346 300 346 c 4
 353 346 396 303 396 250 c 4
 396 197 353 154 300 154 c 4
 247 154 204 197 204 250 c 4
500 450 m 5
 500 50 l 1029
100 450 m 5
 100 50 l 1029
EndSplineSet
Fore
SplineSet
229 250 m 0
 229 210.807142702 260.807092901 179 300 179 c 0
 339.192857298 179 371 210.807092901 371 250 c 0
 371 289.192857298 339.192907099 321 300 321 c 0
 260.807142702 321 229 289.192907099 229 250 c 0
179 250 m 0
 179 316.807092901 233.192857298 371 300 371 c 0
 366.807092901 371 421 316.807142702 421 250 c 0
 421 183.192907099 366.807142702 129 300 129 c 0
 233.192907099 129 179 183.192857298 179 250 c 0
500 475 m 0
 513.617128764 475 525 463.617128764 525 450 c 2
 525 50 l 2
 525 36.3828712355 513.617128764 25 500 25 c 0
 486.382871236 25 475 36.3828712355 475 50 c 2
 475 450 l 2
 475 463.617128764 486.382871236 475 500 475 c 0
100 475 m 0
 113.617128764 475 125 463.617128764 125 450 c 2
 125 50 l 2
 125 36.3828712355 113.617128764 25 100 25 c 0
 86.3828712355 25 75 36.3828712355 75 50 c 2
 75 450 l 2
 75 463.617128764 86.3828712355 475 100 475 c 0
EndSplineSet
Ligature2: "tokiponaWords subtable" perc w a w a space
EndChar

StartChar: tp_weka
Encoding: 61046 61046 118
Width: 600
VWidth: 0
Flags: HW
LayerCount: 2
Back
SplineSet
399 151 m 5
 500 50 l 1029
500 450 m 5
 401 351 l 1029
100 50 m 5
 201 151 l 1029
100 450 m 5
 199 351 l 1029
EndSplineSet
Fore
SplineSet
381.32233047 168.67766953 m 0
 390.95109456 178.306433619 407.04890544 178.306433619 416.67766953 168.67766953 c 2
 517.67766953 67.6776695297 l 2
 527.306433619 58.04890544 527.306433619 41.95109456 517.67766953 32.3223304703 c 0
 508.04890544 22.6935663807 491.95109456 22.6935663807 482.32233047 32.3223304703 c 2
 381.32233047 133.32233047 l 2
 371.693566381 142.95109456 371.693566381 159.04890544 381.32233047 168.67766953 c 0
517.67766953 467.67766953 m 0
 527.306433619 458.04890544 527.306433619 441.95109456 517.67766953 432.32233047 c 2
 418.67766953 333.32233047 l 2
 409.04890544 323.693566381 392.95109456 323.693566381 383.32233047 333.32233047 c 0
 373.693566381 342.95109456 373.693566381 359.04890544 383.32233047 368.67766953 c 2
 482.32233047 467.67766953 l 2
 491.95109456 477.306433619 508.04890544 477.306433619 517.67766953 467.67766953 c 0
82.3223304703 32.3223304703 m 0
 72.6935663807 41.95109456 72.6935663807 58.04890544 82.3223304703 67.6776695297 c 2
 183.32233047 168.67766953 l 2
 192.95109456 178.306433619 209.04890544 178.306433619 218.67766953 168.67766953 c 0
 228.306433619 159.04890544 228.306433619 142.95109456 218.67766953 133.32233047 c 2
 117.67766953 32.3223304703 l 2
 108.04890544 22.6935663807 91.95109456 22.6935663807 82.3223304703 32.3223304703 c 0
82.3223304703 467.67766953 m 0
 91.95109456 477.306433619 108.04890544 477.306433619 117.67766953 467.67766953 c 2
 216.67766953 368.67766953 l 2
 226.306433619 359.04890544 226.306433619 342.95109456 216.67766953 333.32233047 c 0
 207.04890544 323.693566381 190.95109456 323.693566381 181.32233047 333.32233047 c 2
 82.3223304703 432.32233047 l 2
 72.6935663807 441.95109456 72.6935663807 458.04890544 82.3223304703 467.67766953 c 0
EndSplineSet
Ligature2: "tokiponaWords subtable" perc w e k a space
EndChar

StartChar: tp_apeja
Encoding: 61048 61048 120
Width: 600
VWidth: 0
Flags: HW
LayerCount: 2
Back
SplineSet
150 50 m 5
 300 200 l 5
 450 50 l 1029
359 370 m 4
 359 414 395 450 439 450 c 4
 483 450 519 414 519 370 c 4
 519 326 483 290 439 290 c 4
 395 290 359 326 359 370 c 4
79 370 m 4
 79 414 115 450 159 450 c 4
 203 450 239 414 239 370 c 4
 239 326 203 290 159 290 c 4
 115 290 79 326 79 370 c 4
EndSplineSet
Fore
SplineSet
132.32233047 32.3223304703 m 0
 122.693566381 41.95109456 122.693566381 58.04890544 132.32233047 67.6776695297 c 2
 282.32233047 217.67766953 l 2
 293.022650605 228.377989664 310.090481415 225.264857645 317.67766953 217.67766953 c 2
 467.67766953 67.6776695297 l 2
 477.306433619 58.04890544 477.306433619 41.95109456 467.67766953 32.3223304703 c 0
 458.04890544 22.6935663807 441.95109456 22.6935663807 432.32233047 32.3223304703 c 2
 300 164.644660941 l 1
 167.67766953 32.3223304703 l 2
 158.04890544 22.6935663807 141.95109456 22.6935663807 132.32233047 32.3223304703 c 0
384 370 m 0
 384 339.844319173 408.844147731 315 439 315 c 0
 469.155680827 315 494 339.844147731 494 370 c 0
 494 400.155680827 469.155852269 425 439 425 c 0
 408.844319173 425 384 400.155852269 384 370 c 0
334 370 m 0
 334 427.844147731 381.155680827 475 439 475 c 0
 496.844147731 475 544 427.844319173 544 370 c 0
 544 312.155852269 496.844319173 265 439 265 c 0
 381.155852269 265 334 312.155680827 334 370 c 0
104 370 m 0
 104 339.844319173 128.844147731 315 159 315 c 0
 189.155680827 315 214 339.844147731 214 370 c 0
 214 400.155680827 189.155852269 425 159 425 c 0
 128.844319173 425 104 400.155852269 104 370 c 0
54 370 m 0
 54 427.844147731 101.155680827 475 159 475 c 0
 216.844147731 475 264 427.844319173 264 370 c 0
 264 312.155852269 216.844319173 265 159 265 c 0
 101.155852269 265 54 312.155680827 54 370 c 0
EndSplineSet
EndChar

StartChar: tp_monsuta
Encoding: 61049 61049 121
Width: 600
VWidth: 0
Flags: HW
LayerCount: 2
Back
SplineSet
100 150 m 5
 200 350 l 5
 300 150 l 5
 400 350 l 4
 500 150 l 1029
EndSplineSet
Fore
SplineSet
88.8196601125 127.639320225 m 0
 76.6401298822 133.72908534 71.5495551099 149.000809657 77.639320225 161.180339887 c 2
 177.639320225 361.180339887 l 2
 184.065960208 374.033619854 200.590785978 378.829836616 212.900230163 371.414575918 c 0
 217.050823724 368.914240985 221.398805947 363.104087543 222.360679775 361.180339887 c 2
 300 205.901699437 l 1
 377.639320225 361.180339887 l 2
 384.065960208 374.033619854 400.590785978 378.829836616 412.900230163 371.414575918 c 0
 417.050823724 368.914240985 421.398805947 363.104087543 422.360679775 361.180339887 c 2
 522.360679775 161.180339887 l 2
 528.45044489 149.000809657 523.359870118 133.72908534 511.180339887 127.639320225 c 0
 499.000809657 121.54955511 483.72908534 126.640129882 477.639320225 138.819660113 c 2
 400 294.098300563 l 1
 322.360679775 138.819660113 l 2
 320.906139601 135.910579765 316.983473485 131.045186949 312.900230163 128.585424082 c 0
 300.590785978 121.170163384 284.065960208 125.966380146 277.639320225 138.819660113 c 2
 200 294.098300563 l 1
 122.360679775 138.819660113 l 2
 116.27091466 126.640129882 100.999190343 121.54955511 88.8196601125 127.639320225 c 0
EndSplineSet
EndChar

StartChar: tp_kipisi
Encoding: 61050 61050 122
Width: 600
VWidth: 0
Flags: HW
LayerCount: 2
Back
SplineSet
350 125 m 0
 350 166.412109375 383.584960938 200 425 200 c 0
 466.412109375 200 500 166.415039062 500 125 c 0
 500 83.587890625 466.415039062 50 425 50 c 0
 383.587890625 50 350 83.5849609375 350 125 c 0
100 375 m 0
 100 416.412109375 133.584960938 450 175 450 c 0
 216.412109375 450 250 416.415039062 250 375 c 0
 250 333.587890625 216.415039062 300 175 300 c 0
 133.587890625 300 100 333.584960938 100 375 c 0
82.3223304703 32.3223304703 m 0
 72.6935663807 41.95109456 72.6935663807 58.04890544 82.3223304703 67.6776695297 c 2
 482.32233047 467.67766953 l 2
 491.95109456 477.306433619 508.04890544 477.306433619 517.67766953 467.67766953 c 0
 527.306433619 458.04890544 527.306433619 441.95109456 517.67766953 432.32233047 c 2
 117.67766953 32.3223304703 l 2
 108.04890544 22.6935663807 91.95109456 22.6935663807 82.3223304703 32.3223304703 c 0
EndSplineSet
Fore
SplineSet
375 125 m 0
 375 97.3908830889 397.392729415 75 425 75 c 0
 452.609116911 75 475 97.3927294146 475 125 c 0
 475 152.609116911 452.607270585 175 425 175 c 0
 397.390883089 175 375 152.607270585 375 125 c 0
325 125 m 0
 325 180.216948165 369.779038786 225 425 225 c 0
 480.216948165 225 525 180.220961214 525 125 c 0
 525 69.7830518354 480.220961214 25 425 25 c 0
 369.783051835 25 325 69.7790387861 325 125 c 0
125 375 m 0
 125 347.390883089 147.392729415 325 175 325 c 0
 202.609116911 325 225 347.392729415 225 375 c 0
 225 402.609116911 202.607270585 425 175 425 c 0
 147.390883089 425 125 402.607270585 125 375 c 0
75 375 m 0
 75 430.216948165 119.779038786 475 175 475 c 0
 230.216948165 475 275 430.220961214 275 375 c 0
 275 319.783051835 230.220961214 275 175 275 c 0
 119.783051835 275 75 319.779038786 75 375 c 0
82.3223304703 32.3223304703 m 0
 72.6935663807 41.95109456 72.6935663807 58.04890544 82.3223304703 67.6776695297 c 2
 482.32233047 467.67766953 l 2
 491.95109456 477.306433619 508.04890544 477.306433619 517.67766953 467.67766953 c 0
 527.306433619 458.04890544 527.306433619 441.95109456 517.67766953 432.32233047 c 2
 117.67766953 32.3223304703 l 2
 108.04890544 22.6935663807 91.95109456 22.6935663807 82.3223304703 32.3223304703 c 0
EndSplineSet
EndChar

StartChar: tp_oko
Encoding: 61052 61052 124
Width: 400
VWidth: 0
Flags: HW
LayerCount: 2
Back
SplineSet
275 250 m 4
 275 263.799804688 286.200195312 275 300 275 c 4
 313.799804688 275 325 263.799804688 325 250 c 4
 325 236.200195312 313.799804688 225 300 225 c 4
 286.200195312 225 275 236.200195312 275 250 c 4
306 450 m 29
 100 250 l 29
 300 50 l 1053
EndSplineSet
Fore
SplineSet
250 250 m 0
 250 277.607900865 272.39097549 300 300 300 c 0
 327.607900865 300 350 277.60902451 350 250 c 0
 350 222.392099135 327.60902451 200 300 200 c 0
 272.392099135 200 250 222.39097549 250 250 c 0
323.936957279 467.41452163 m 0
 333.422388615 457.644527353 333.184515906 441.548474058 323.41452163 432.063042721 c 2
 135.618515693 249.736823366 l 1
 317.67766953 67.6776695297 l 2
 327.306433619 58.04890544 327.306433619 41.95109456 317.67766953 32.3223304703 c 0
 308.04890544 22.6935663807 291.95109456 22.6935663807 282.32233047 32.3223304703 c 2
 82.3223304703 232.32233047 l 2
 74.2517380516 240.392922889 71.8168465721 257.48197495 82.5854783704 267.936957279 c 2
 288.58547837 467.936957279 l 2
 298.355472647 477.422388615 314.451525942 477.184515906 323.936957279 467.41452163 c 0
EndSplineSet
Ligature2: "tokiponaWords subtable" perc o k o space
EndChar

StartChar: tp_namako
Encoding: 61053 61053 125
Width: 600
VWidth: 0
Flags: HW
LayerCount: 2
Back
SplineSet
300 50 m 5
 300 150 l 1029
300 350 m 5
 300 450 l 1029
400 240 m 5
 500 240 l 1029
100 240 m 5
 200 240 l 1029
EndSplineSet
Fore
SplineSet
300 25 m 0
 286.382871236 25 275 36.3828712355 275 50 c 2
 275 150 l 2
 275 163.617128764 286.382871236 175 300 175 c 0
 313.617128764 175 325 163.617128764 325 150 c 2
 325 50 l 2
 325 36.3828712355 313.617128764 25 300 25 c 0
300 325 m 0
 286.382871236 325 275 336.382871236 275 350 c 2
 275 450 l 2
 275 463.617128764 286.382871236 475 300 475 c 0
 313.617128764 475 325 463.617128764 325 450 c 2
 325 350 l 2
 325 336.382871236 313.617128764 325 300 325 c 0
375 240 m 0
 375 253.617128764 386.382871236 265 400 265 c 2
 500 265 l 2
 513.617128764 265 525 253.617128764 525 240 c 0
 525 226.382871236 513.617128764 215 500 215 c 2
 400 215 l 2
 386.382871236 215 375 226.382871236 375 240 c 0
75 240 m 0
 75 253.617128764 86.3828712355 265 100 265 c 2
 200 265 l 2
 213.617128764 265 225 253.617128764 225 240 c 0
 225 226.382871236 213.617128764 215 200 215 c 2
 100 215 l 2
 86.3828712355 215 75 226.382871236 75 240 c 0
EndSplineSet
Ligature2: "tokiponaWords subtable" perc n a m a k o space
EndChar

StartChar: tp_pake
Encoding: 61054 61054 126
Width: 500
VWidth: 0
Flags: HW
LayerCount: 2
Back
SplineSet
250 50 m 5
 250 450 l 1028
100 450 m 29
 400 450 l 1053
EndSplineSet
Fore
SplineSet
75 450 m 0
 75 463.617128764 86.3828712355 475 100 475 c 2
 249.999999728 475 l 1
 250 475 l 1
 400 475 l 2
 413.617128764 475 425 463.617128764 425 450 c 0
 425 436.382871236 413.617128764 425 400 425 c 2
 275 425 l 1
 275 50 l 2
 275 36.3828712355 263.617128764 25 250 25 c 0
 236.382871236 25 225 36.3828712355 225 50 c 2
 225 425 l 1
 100 425 l 2
 86.3828712355 425 75 436.382871236 75 450 c 0
EndSplineSet
EndChar

StartChar: tp_leko
Encoding: 61055 61055 127
Width: 600
VWidth: 0
Flags: HW
LayerCount: 2
Back
SplineSet
200 350 m 5
 400 350 l 5
 400 150 l 5
 200 150 l 5
 200 350 l 5
100 450 m 29
 500 450 l 29
 500 50 l 29
 100 50 l 29
 100 450 l 29
EndSplineSet
Fore
SplineSet
225 325 m 1
 225 175 l 1
 375 175 l 1
 375 325 l 1
 225 325 l 1
200 375 m 2
 400 375 l 2
 415.132537856 375 425 360.729904333 425 350 c 2
 425 150 l 2
 425 134.867462144 410.729904333 125 400 125 c 2
 200 125 l 2
 184.867462144 125 175 139.270095667 175 150 c 2
 175 350 l 2
 175 365.132537856 189.270095667 375 200 375 c 2
125 425 m 1
 125 75 l 1
 475 75 l 1
 475 425 l 1
 125 425 l 1
100 475 m 2
 500 475 l 2
 515.132537856 475 525 460.729904333 525 450 c 2
 525 50 l 2
 525 34.8674621445 510.729904333 25 500 25 c 2
 100 25 l 2
 84.8674621445 25 75 39.2700956673 75 50 c 2
 75 450 l 2
 75 465.132537856 89.2700956673 475 100 475 c 2
EndSplineSet
EndChar

StartChar: NameMe.133
Encoding: 1114112 -1 132
Width: 900
VWidth: 0
Flags: HW
LayerCount: 2
Back
SplineSet
400 323 m 4
 400 336.799804688 411.200195312 348 425 348 c 4
 438.799804688 348 450 336.799804688 450 323 c 4
 450 309.200195312 438.799804688 298 425 298 c 4
 411.200195312 298 400 309.200195312 400 323 c 4
50 323 m 4
 50 336.799804688 61.2001953125 348 75 348 c 4
 88.7998046875 348 100 336.799804688 100 323 c 4
 100 309.200195312 88.7998046875 298 75 298 c 4
 61.2001953125 298 50 309.200195312 50 323 c 4
50 50 m 5
 450 50 l 1029
50 50 m 4
 50 164.540039062 142 244 252 244 c 4
 362 244 450 164.540039062 450 50 c 4
 450 -64.5400390625 360 -152 250 -152 c 4
 140 -152 50 -64.5400390625 50 50 c 4
EndSplineSet
Fore
SplineSet
375 323 m 0
 375 350.607900865 397.39097549 373 425 373 c 0
 452.607900865 373 475 350.60902451 475 323 c 0
 475 295.392099135 452.60902451 273 425 273 c 0
 397.392099135 273 375 295.39097549 375 323 c 0
25 323 m 0
 25 350.607900865 47.3909754902 373 75 373 c 0
 102.607900865 373 125 350.60902451 125 323 c 0
 125 295.392099135 102.60902451 273 75 273 c 0
 47.3920991349 273 25 295.39097549 25 323 c 0
25 50 m 0
 25 63.6171287645 36.3828712355 75 50 75 c 2
 450 75 l 2
 463.617128764 75 475 63.6171287645 475 50 c 0
 475 36.3828712355 463.617128764 25 450 25 c 2
 50 25 l 2
 36.3828712355 25 25 36.3828712355 25 50 c 0
75 50 m 0
 75 -50.8318661138 153.675798466 -127 250 -127 c 0
 346.324011902 -127 425 -50.8321617954 425 50 c 0
 425 150.200675608 349.470626422 219 252 219 c 0
 154.052956859 219 75 149.546606517 75 50 c 0
25 50 m 0
 25 179.533471608 129.947043141 269 252 269 c 0
 374.529373578 269 475 178.879402517 475 50 c 0
 475 -78.2479163296 373.675988098 -177 250 -177 c 0
 126.324201534 -177 25 -78.2482120112 25 50 c 0
EndSplineSet
EndChar

StartChar: NameMe.144
Encoding: 1114113 -1 133
Width: 900
VWidth: 0
Flags: HW
HStem: -125 50<338.099 561.901> 575 50<338.099 561.901>
VStem: 75 50<138.099 361.901> 775 50<138.099 361.901>
AnchorPoint: "Circle" 450 250 basechar 0
LayerCount: 2
Back
SplineSet
100 250 m 0
 100 444 256 600 450 600 c 0
 644 600 800 444 800 250 c 0
 800 56 644 -100 450 -100 c 0
 256 -100 100 56 100 250 c 0
EndSplineSet
Fore
SplineSet
125 250 m 0
 125 69.7681368993 269.76791003 -75 450 -75 c 0
 630.231863101 -75 775 69.7679100299 775 250 c 0
 775 430.231863101 630.23208997 575 450 575 c 0
 269.768136899 575 125 430.23208997 125 250 c 0
75 250 m 0
 75 457.76791003 242.231863101 625 450 625 c 0
 657.76791003 625 825 457.768136899 825 250 c 0
 825 42.2320899701 657.768136899 -125 450 -125 c 0
 242.23208997 -125 75 42.2318631008 75 250 c 0
EndSplineSet
EndChar

StartChar: NameMe.137
Encoding: 1114114 -1 134
Width: 900
VWidth: 0
Flags: HW
HStem: -250 100<417.227 498.773> -125 50<125 775>
VStem: 75 50<-75 624.796> 408 100<-240.773 -159.227> 775 50<-75 624.796>
AnchorPoint: "Square" 450 250 basechar 0
LayerCount: 2
Back
SplineSet
433 -200 m 4
 433 -186.200195312 444.200195312 -175 458 -175 c 4
 471.799804688 -175 483 -186.200195312 483 -200 c 4
 483 -213.799804688 471.799804688 -225 458 -225 c 4
 444.200195312 -225 433 -213.799804688 433 -200 c 4
100 600 m 29
 100 -100 l 29
 800 -100 l 29
 800 600 l 1053
EndSplineSet
Fore
SplineSet
408 -200 m 0
 408 -172.392099135 430.39097549 -150 458 -150 c 0
 485.607900865 -150 508 -172.39097549 508 -200 c 0
 508 -227.607900865 485.60902451 -250 458 -250 c 0
 430.392099135 -250 408 -227.60902451 408 -200 c 0
100 625 m 0
 113.617128764 625 125 613.617128764 125 600 c 2
 125 -75 l 1
 775 -75 l 1
 775 600 l 2
 775 613.617128764 786.382871236 625 800 625 c 0
 813.617128764 625 825 613.617128764 825 600 c 2
 825 -100 l 2
 825 -110.729904333 815.132537856 -125 800 -125 c 2
 100 -125 l 2
 89.2700956673 -125 75 -115.132537856 75 -100 c 2
 75 600 l 2
 75 613.617128764 86.3828712355 625 100 625 c 0
EndSplineSet
EndChar

StartChar: NameMe.174
Encoding: 1114115 -1 135
Width: 900
VWidth: 0
Flags: HW
HStem: -125 50<125 775> 575 50<125 775>
VStem: 75 50<-75 575> 775 50<-75 575>
AnchorPoint: "Square" 450 250 basechar 0
LayerCount: 2
Back
SplineSet
100 600 m 29
 100 -100 l 29
 800 -100 l 29
 800 600 l 29
 100 600 l 29
EndSplineSet
Fore
SplineSet
75 600 m 2
 75 610.729904333 84.8674621445 625 100 625 c 2
 800 625 l 2
 810.729904333 625 825 615.132537856 825 600 c 2
 825 -100 l 2
 825 -110.729904333 815.132537856 -125 800 -125 c 2
 100 -125 l 2
 89.2700956673 -125 75 -115.132537856 75 -100 c 2
 75 600 l 2
125 575 m 1
 125 -75 l 1
 775 -75 l 1
 775 575 l 1
 125 575 l 1
EndSplineSet
EndChar

StartChar: NameMe.185
Encoding: 1114116 -1 136
Width: 900
VWidth: 0
Flags: HW
HStem: -243 168<75.2926 124.796 775 824.747> -125 50<450 775> 575 50<338.099 561.901>
VStem: 75 50<-242.796 -125 138.099 361.901> 775 50<-246.796 -125 138.099 361.901>
AnchorPoint: "Circle" 450 250 basechar 0
LayerCount: 2
Back
SplineSet
800 -222 m 29
 800 -100 l 5
 100 -100 l 5
 100 -218 l 1053
100 250 m 4
 100 444 256 600 450 600 c 4
 644 600 800 444 800 250 c 4
 800 56 644 -100 450 -100 c 4
 256 -100 100 56 100 250 c 4
EndSplineSet
Fore
SplineSet
800 -247 m 0xb8
 786.382871236 -247 775 -235.617128764 775 -222 c 2
 775 -125 l 1
 125 -125 l 1x78
 125 -218 l 2
 125 -231.617128764 113.617128764 -243 100 -243 c 0
 86.3828712355 -243 75 -231.617128764 75 -218 c 2
 75 -100 l 2
 75 -89.2700956673 84.8674621445 -75 100 -75 c 2
 800 -75 l 2
 810.729904333 -75 825 -84.8674621445 825 -100 c 2
 825 -222 l 2
 825 -235.617128764 813.617128764 -247 800 -247 c 0xb8
125 250 m 0
 125 69.7681368993 269.76791003 -75 450 -75 c 0
 630.231863101 -75 775 69.7679100299 775 250 c 0
 775 430.231863101 630.23208997 575 450 575 c 0
 269.768136899 575 125 430.23208997 125 250 c 0
75 250 m 0
 75 457.76791003 242.231863101 625 450 625 c 0
 657.76791003 625 825 457.768136899 825 250 c 0
 825 42.2320899701 657.768136899 -125 450 -125 c 0
 242.23208997 -125 75 42.2318631008 75 250 c 0
EndSplineSet
EndChar

StartChar: NameMe.147
Encoding: 1114117 -1 137
Width: 900
VWidth: 0
Flags: HW
AnchorPoint: "Above" 250 550 basechar 0
LayerCount: 2
Back
SplineSet
220 24 m 4
 220 37.8 231.2 49 245 49 c 4
 258.8 49 270 37.8 270 24 c 4
 270 10.2 258.8 -1 245 -1 c 4
 231.2 -1 220 10.2 220 24 c 4
50 200 m 29
 50 -150 l 29
 450 -150 l 29
 450 200 l 1053
EndSplineSet
Fore
Refer: 15 60943 N 1 0 0 1 0 -350 2
EndChar

StartChar: NameMe.181
Encoding: 1114119 -1 139
Width: 900
VWidth: 0
Flags: HW
HStem: -225 50<429.011 486.989> -125 50<338.099 561.901 429.011 486.989> 575 50<338.099 561.901>
VStem: 75 50<138.099 361.901> 378 50<-173.377 -126.623> 488 50<-173.377 -126.623> 775 50<138.099 361.901>
AnchorPoint: "Circle" 450 250 basechar 0
LayerCount: 2
Back
SplineSet
403 -150 m 4
 403 -123 428.299804688 -100 458 -100 c 4
 487.700195312 -100 513 -123 513 -150 c 4
 513 -177 487.700195312 -200 458 -200 c 4
 428.299804688 -200 403 -177 403 -150 c 4
EndSplineSet
Refer: 133 -1 S 1 0 0 1 0 0 2
Fore
SplineSet
428 -150 m 0
 428 -160.931999406 440.262044037 -175 458 -175 c 0
 475.737917244 -175 488 -160.932018736 488 -150 c 0
 488 -139.068000594 475.737955963 -125 458 -125 c 0
 440.262082756 -125 428 -139.067981264 428 -150 c 0
378 -150 m 0
 378 -106.932018736 416.337526619 -75 458 -75 c 0
 499.662434662 -75 538 -106.931999406 538 -150 c 0
 538 -193.067981264 499.662473381 -225 458 -225 c 0
 416.337565338 -225 378 -193.068000594 378 -150 c 0
EndSplineSet
Refer: 133 -1 N 1 0 0 1 0 0 2
EndChar

StartChar: period
Encoding: 46 46 140
Width: 200
VWidth: 0
Flags: HW
LayerCount: 2
Back
SplineSet
75 75 m 4
 75 88.7998046875 86.2001953125 100 100 100 c 4
 113.799804688 100 125 88.7998046875 125 75 c 4
 125 61.2001953125 113.799804688 50 100 50 c 4
 86.2001953125 50 75 61.2001953125 75 75 c 4
EndSplineSet
Fore
SplineSet
50 75 m 0
 50 102.608398438 72.390625 125 100 125 c 0
 127.608398438 125 150 102.609375 150 75 c 0
 150 47.3916015625 127.609375 25 100 25 c 0
 72.3916015625 25 50 47.390625 50 75 c 0
EndSplineSet
EndChar

StartChar: comma
Encoding: 44 44 141
Width: 200
VWidth: 0
Flags: HW
LayerCount: 2
Back
SplineSet
100 -7 m 9
 100 -7 125 15 125 75 c 1024
75 75 m 0
 75 88.7998046875 86.2001953125 100 100 100 c 0
 113.799804688 100 125 88.7998046875 125 75 c 3
 125 61.2001953125 113.799804688 50 100 50 c 0
 86.2001953125 50 75 61.2001953125 75 75 c 0
EndSplineSet
Fore
SplineSet
50 75 m 4
 50 102.608398438 72.390625 125 100 125 c 4
 127.608398438 125 150 102.609375 150 75 c 4
 150 8.052734375 122.140625 -20.7431640625 116.071289062 -26.166015625 c 4
 106.500976562 -33.69140625 90.8125 -34.2392578125 81.357421875 -23.6572265625 c 4
 71.888671875 -13.05859375 73.515625 1.75390625 83.58984375 11.962890625 c 6
 83.58984375 11.962890625 87.4853515625 16.16796875 91.4814453125 25.7236328125 c 5
 67.9287109375 29.7685546875 50 50.294921875 50 75 c 4
EndSplineSet
EndChar

StartChar: colon
Encoding: 58 58 142
Width: 200
VWidth: 0
Flags: HW
LayerCount: 2
Back
SplineSet
75 164 m 0
 75 177.799804688 86.2001953125 189 100 189 c 0
 113.799804688 189 125 177.799804688 125 164 c 0
 125 150.200195312 113.799804688 139 100 139 c 0
 86.2001953125 139 75 150.200195312 75 164 c 0
75 350 m 0
 75 363.8 86.2 375 100 375 c 0
 113.8 375 125 363.8 125 350 c 0
 125 336.2 113.8 325 100 325 c 0
 86.2 325 75 336.2 75 350 c 0
EndSplineSet
Fore
SplineSet
50 164 m 4
 50 191.608398438 72.390625 214 100 214 c 4
 127.608398438 214 150 191.609375 150 164 c 4
 150 136.391601562 127.609375 114 100 114 c 4
 72.3916015625 114 50 136.390625 50 164 c 4
50 350 m 0
 50 377.607956893 72.3909188785 400 100 400 c 0
 127.607956893 400 150 377.609081122 150 350 c 0
 150 322.392043107 127.609081122 300 100 300 c 0
 72.392043107 300 50 322.390918878 50 350 c 0
EndSplineSet
EndChar

StartChar: p
Encoding: 112 112 143
Width: 600
VWidth: 0
Flags: HW
LayerCount: 2
Back
SplineSet
100 -100 m 21
 100 16.6666666667 100 133.333333333 100 250 c 15
 100 359 185 450 294 450 c 31
 406 450 500 362 500 250 c 31
 500 142 415 50 307 50 c 7
 194 50 100 106 100 250 c 1028
EndSplineSet
Fore
SplineSet
125 96.7268661856 m 1
 125 -100 l 2
 125 -113.617128764 113.617128764 -125 100 -125 c 0
 86.3828712355 -125 75 -113.617128764 75 -100 c 2
 75 172.779369628 l 1
 75 250 l 2
 75 371.90652231 170.341893006 475 294 475 c 0
 418.96081333 475 525 376.657597084 525 250 c 0
 525 129.177448319 429.868705773 25 307 25 c 0
 237.047931611 25 169.581783216 45.3041951763 125 96.7268661856 c 1
125 250 m 0
 125 121.418081104 203.106509323 75 307 75 c 0
 400.131294227 75 475 154.822551681 475 250 c 0
 475 347.342402916 393.03918667 425 294 425 c 0
 199.658106994 425 125 346.09347769 125 250 c 0
EndSplineSet
EndChar

StartChar: t
Encoding: 116 116 144
Width: 400
VWidth: 0
Flags: HW
LayerCount: 2
Back
SplineSet
202 600 m 29
 202 151 l 4
 203 58 300 50 300 50 c 1053
100 450 m 29
 300 450 l 1053
EndSplineSet
Fore
SplineSet
75 450 m 0
 75 463.617128764 86.3828712355 475 100 475 c 2
 177 475 l 1
 177 600 l 2
 177 613.617128764 188.382871236 625 202 625 c 0
 215.617128764 625 227 613.617128764 227 600 c 2
 227 475 l 1
 300 475 l 2
 313.617128764 475 325 463.617128764 325 450 c 0
 325 436.382871236 313.617128764 425 300 425 c 2
 227 425 l 1
 227 151.134404717 l 2
 227.723886119 83.8129956622 295.744342656 75.5441430599 302.873955014 74.8356343196 c 0
 315.685836727 73.2171172661 325 62.4444572091 325 50 c 0
 325 36.3828712355 313.617128764 25 300 25 c 0
 297.40008664 25 178.25534556 34.1184582337 177 150.865595283 c 2
 177 425 l 1
 100 425 l 2
 86.3828712355 425 75 436.382871236 75 450 c 0
EndSplineSet
EndChar

StartChar: o
Encoding: 111 111 145
Width: 600
VWidth: 0
Flags: HW
LayerCount: 2
Back
SplineSet
78 250 m 4
 78 371 177 470 298 470 c 4
 419 470 518 371 518 250 c 4
 518 129 419 30 298 30 c 4
 177 30 78 129 78 250 c 4
EndSplineSet
Fore
SplineSet
103 250 m 0
 103 142.844663702 190.844145687 55 298 55 c 0
 405.155336298 55 493 142.844145687 493 250 c 0
 493 357.155336298 405.155854313 445 298 445 c 0
 190.844663702 445 103 357.155854313 103 250 c 0
53 250 m 0
 53 384.844145687 163.155336298 495 298 495 c 0
 432.844145687 495 543 384.844663702 543 250 c 0
 543 115.155854313 432.844663702 5 298 5 c 0
 163.155854313 5 53 115.155336298 53 250 c 0
EndSplineSet
EndChar

StartChar: k
Encoding: 107 107 146
Width: 400
VWidth: 0
Flags: HW
LayerCount: 2
Back
SplineSet
300 450 m 7
 300 321.937515251 172 253 101 253 c 5
 172 253 309 138.051121515 309 50 c 1036
100 600 m 29
 100 50 l 1053
EndSplineSet
Fore
SplineSet
100 625 m 0
 113.617128764 625 125 613.617128764 125 600 c 2
 125 280.763991736 l 1
 186.37838817 293.90598748 271.972282132 353.503557898 275.012198098 450.780868809 c 0
 275.437525743 464.391353451 287.170384168 475.413129547 300.780868809 474.987801902 c 0
 314.391353451 474.562474257 325.413129547 462.829615832 324.987801902 449.219131191 c 0
 321.819934164 347.847363561 252.100807464 280.441285978 186.531725538 249.370134562 c 1
 255.599170158 208.592737317 334 128.698930716 334 50 c 0
 334 36.3828712355 322.617128764 25 309 25 c 0
 295.382871236 25 284 36.3828712355 284 50 c 0
 284 110.985164208 186.775170446 201.446398203 125 223.179761381 c 1
 125 50 l 2
 125 36.3828712355 113.617128764 25 100 25 c 0
 86.3828712355 25 75 36.3828712355 75 50 c 2
 75 600 l 2
 75 613.617128764 86.3828712355 625 100 625 c 0
EndSplineSet
EndChar

StartChar: i
Encoding: 105 105 147
Width: 200
VWidth: 0
Flags: HW
LayerCount: 2
Back
SplineSet
75 600 m 4
 75 613.8 86.2 625 100 625 c 4
 113.8 625 125 613.8 125 600 c 4
 125 586.2 113.8 575 100 575 c 4
 86.2 575 75 586.2 75 600 c 4
100 50 m 25
 100 450 l 1049
EndSplineSet
Fore
SplineSet
50 600 m 0
 50 627.607956893 72.3909188785 650 100 650 c 0
 127.607956893 650 150 627.609081122 150 600 c 0
 150 572.392043107 127.609081122 550 100 550 c 0
 72.392043107 550 50 572.390918878 50 600 c 0
100 25 m 0
 86.3828712355 25 75 36.3828712355 75 50 c 2
 75 450 l 2
 75 463.617128764 86.3828712355 475 100 475 c 0
 113.617128764 475 125 463.617128764 125 450 c 2
 125 50 l 2
 125 36.3828712355 113.617128764 25 100 25 c 0
EndSplineSet
EndChar

StartChar: n
Encoding: 110 110 148
Width: 500
VWidth: 0
Flags: HW
LayerCount: 2
Back
SplineSet
393 48 m 5
 393 248 l 7
 393 392.00390625 326 450 256 450 c 7
 160 450 100 361 100 361 c 1029
100 450 m 29
 100 50 l 1053
EndSplineSet
Fore
SplineSet
100 475 m 0
 113.617128764 475 125 463.617128764 125 450 c 2
 125 424.521622269 l 1
 155.198260765 449.736141518 199.536394418 475 256 475 c 0
 343.651063947 475 418 399.607155245 418 248 c 2
 418 48 l 2
 418 34.3828712355 406.617128764 23 393 23 c 0
 379.382871236 23 368 34.3828712355 368 48 c 2
 368 248 l 2
 368 384.400657255 308.348936053 425 256 425 c 0
 189.169727563 425 140.080358323 371.3272496 125 352.560070211 c 1
 125 50 l 2
 125 36.3828712355 113.617128764 25 100 25 c 0
 86.3828712355 25 75 36.3828712355 75 50 c 2
 75 450 l 2
 75 463.617128764 86.3828712355 475 100 475 c 0
EndSplineSet
EndChar

StartChar: a
Encoding: 97 97 149
Width: 600
VWidth: 0
Flags: HW
LayerCount: 2
Back
SplineSet
500 450 m 29
 500 50 l 1053
500 250 m 31
 500 366 417 470 301 470 c 31
 179 470 80 372 80 250 c 31
 80 129 179 30 300 30 c 31
 416 30 500 134 500 250 c 31
EndSplineSet
Fore
SplineSet
500 475 m 0
 513.617128764 475 525 463.617128764 525 450 c 2
 525 250 l 1
 525 50 l 2
 525 36.3828712355 513.617128764 25 500 25 c 0
 486.382871236 25 475 36.3828712355 475 50 c 2
 475 95.8433430584 l 1
 435.085307077 41.5393612364 373.733360589 5 300 5 c 0
 165.155336298 5 55 115.155854313 55 250 c 0
 55 385.91724275 165.344659279 495 301 495 c 0
 374.516780887 495 435.367690279 458.685787551 475 404.705954955 c 1
 475 450 l 2
 475 463.617128764 486.382871236 475 500 475 c 0
475 250 m 0
 475 355.144669436 400.396424981 445 301 445 c 0
 192.655340721 445 105 358.08275725 105 250 c 0
 105 142.844145687 192.844663702 55 300 55 c 0
 399.512267339 55 475 145.026563676 475 250 c 0
EndSplineSet
EndChar

StartChar: qmark
Encoding: 63 63 151
Width: 500
VWidth: 0
Flags: HW
LayerCount: 2
Back
SplineSet
200 76 m 4
 200 89.7998046875 211.200195312 101 225 101 c 4
 238.799804688 101 250 89.7998046875 250 76 c 4
 250 62.2001953125 238.799804688 51 225 51 c 4
 211.200195312 51 200 62.2001953125 200 76 c 4
227 322 m 5
 227 199 l 1053
100 528 m 5
 100 528 144 600 227 600 c 7
 326 600 380 530.028320312 380 460 c 7
 380 335.983398438 227 322 227 322 c 1029
EndSplineSet
Fore
SplineSet
86.9075823128 506.702380436 m 0
 74.8186746801 514.133869557 72.5792240099 529.672143791 78.2909995336 540.423235187 c 0
 80.4342411982 543.909676476 129.139265922 625 227 625 c 0
 339.497412463 625 405 543.267019948 405 460 c 0
 405 344.104252444 300.018457118 310.04057148 252 300.521626302 c 1
 252 199 l 2
 252 185.382871236 240.617128764 174 227 174 c 0
 213.382871236 174 202 185.382871236 202 199 c 2
 202 321.659533016 l 2
 201.85275942 331.007563357 206.862190442 339.563161559 215.26642834 343.998304426 c 0
 217.697015648 345.319098658 220.359680723 346.248239012 223.164739778 346.696033388 c 0
 223.388620706 346.736503761 223.613902151 346.77452744 223.840566071 346.810065185 c 0
 232.285684208 347.635804942 355 363.196553535 355 460 c 0
 355 516.789620676 312.502587537 575 227 575 c 0
 161.288931127 575 123.480403011 518.373289686 120.796143805 514.110560019 c 0
 113.946797113 504.393990297 98.9940736167 499.272376719 86.9075823128 506.702380436 c 0
175 76 m 0
 175 103.607900865 197.39097549 126 225 126 c 0
 252.607900865 126 275 103.60902451 275 76 c 0
 275 48.3920991349 252.60902451 26 225 26 c 0
 197.392099135 26 175 48.3909754902 175 76 c 0
EndSplineSet
EndChar

StartChar: l
Encoding: 108 108 277
Width: 200
VWidth: 0
Flags: HW
LayerCount: 2
Back
SplineSet
100 600 m 29
 100 50 l 1053
EndSplineSet
Fore
SplineSet
100 625 m 0
 113.617128764 625 125 613.617128764 125 600 c 2
 125 50 l 2
 125 36.3828712355 113.617128764 25 100 25 c 0
 86.3828712355 25 75 36.3828712355 75 50 c 2
 75 600 l 2
 75 613.617128764 86.3828712355 625 100 625 c 0
EndSplineSet
EndChar

StartChar: glyph280
Encoding: 121 121 278
Width: 600
VWidth: 0
Flags: HW
LayerCount: 2
Back
SplineSet
101 -100 m 29
 101 -100 165 -200 301 -200 c 7
 437 -200 501 -75 501 50 c 31
 501 128 501 172 501 250 c 1052
101 450 m 29
 101 450 101 328 101 250 c 31
 101 141 186 50 295 50 c 31
 407 50 501 138 501 250 c 31
 501 326 501 444 501 444 c 1053
EndSplineSet
Fore
SplineSet
101 475 m 0
 114.617128764 475 126 463.617128764 126 450 c 2
 126 250 l 2
 126 153.90652231 200.658106994 75 295 75 c 0
 394.03918667 75 476 152.657597084 476 250 c 2
 476 444 l 2
 476 457.617128764 487.382871236 469 501 469 c 0
 514.617128764 469 526 457.617128764 526 444 c 2
 526 250 l 1
 526 50 l 2
 526 -80.9679625184 456.963834643 -225 301 -225 c 0
 152.035169122 -225 82.3768898155 -117.262569957 79.5450793921 -112.857050044 c 0
 73.6184087074 -102.223070107 75.5450288267 -86.6428625186 87.4821057042 -78.9698660535 c 0
 99.4170175887 -71.2982612176 114.462372072 -76.1087740799 121.521274979 -85.706933169 c 0
 123.933911719 -89.3787376833 181.260906995 -175 301 -175 c 0
 417.036165357 -175 476 -69.0320374816 476 50 c 2
 476 110.169371395 l 1
 433.240843265 57.9082647043 367.286288442 25 295 25 c 0
 171.341893006 25 76 128.09347769 76 250 c 2
 76 450 l 2
 76 463.617128764 87.3828712355 475 101 475 c 0
EndSplineSet
EndChar

StartChar: u
Encoding: 117 117 279
Width: 600
VWidth: 0
Flags: HW
LayerCount: 2
Back
SplineSet
500 50 m 25
 500 50 500 172 500 250 c 1048
100 450 m 25
 100 450 100 328 100 250 c 27
 100 142 182 50 290 50 c 27
 403 50 500 137 500 250 c 27
 500 328 500 450 500 450 c 1049
EndSplineSet
Fore
SplineSet
100 475 m 0
 113.617128764 475 125 463.617128764 125 450 c 2
 125 250 l 2
 125 154.290870011 197.236934757 75 290 75 c 0
 390.588960031 75 474.999998988 152.210426784 475 249.999998241 c 2
 475 250 l 1
 475 450 l 2
 475 463.617128764 486.382871236 475 500 475 c 0
 513.617128764 475 525 463.617128764 525 450 c 2
 525 250 l 1
 525 50 l 2
 525 36.3828712355 513.617128764 25 500 25 c 0
 486.382871236 25 475 36.3828712355 475 50 c 2
 475 111.18743762 l 1
 431.233463982 58.0834909588 363.320791872 25 290 25 c 0
 166.763065243 25 75 129.709129989 75 250 c 2
 75 450 l 2
 75 463.617128764 86.3828712355 475 100 475 c 0
EndSplineSet
EndChar

StartChar: s
Encoding: 115 115 280
Width: 600
VWidth: 0
Flags: HW
LayerCount: 2
Back
SplineSet
500 396 m 29
 500 396 385 450 300 450 c 7
 214 450 100 443 100 357 c 31
 100 184 500 338 500 165 c 31
 500 75 390 50 300 50 c 7
 217 50 100 117 100 117 c 1053
EndSplineSet
Fore
SplineSet
522.636591952 385.389406011 m 0
 516.857158967 373.059590515 501.719221507 367.583975063 489.389406011 373.363408048 c 2
 489.389406011 373.363408048 376.843330056 425 300 425 c 0
 205.37073206 425 125 412.666855654 125 357 c 0
 125 221.925315716 525 375.925819392 525 165 c 0
 525 48.0092290566 387.254857958 25 300 25 c 0
 205.79994443 25 89.1144208211 94.4261352599 86.910020455 95.6863953309 c 0
 74.8322939712 103.637096014 71.8260450048 118.090103959 78.2964781336 129.407946591 c 0
 85.0549023907 141.229532667 100.586360515 145.461946123 112.407946591 138.703521866 c 2
 112.407946591 138.703521866 227.285541992 75 300 75 c 0
 392.745142042 75 475 101.990770943 475 165 c 0
 475 300.074180608 75 146.074684284 75 357 c 0
 75 473.333144346 222.62926794 475 300 475 c 0
 393.836024954 475 507.684805466 420.008017611 511.321950215 418.303155577 c 0
 521.998853563 412.454283272 528.65935298 398.238336424 522.636591952 385.389406011 c 0
EndSplineSet
EndChar

StartChar: e
Encoding: 101 101 281
Width: 600
VWidth: 0
Flags: HW
LayerCount: 2
Back
SplineSet
468 98 m 29
 468 98 376 50 290 50 c 7
 182 50 100 142 100 250 c 31
 100 360 190 450 300 450 c 31
 410 450 500 360 500 250 c 5
 100 250 l 1028
EndSplineSet
Fore
SplineSet
126.675639105 225 m 1
 138.317199246 140.818466712 205.59311182 75 290 75 c 0
 368.485316575 75 456.458530541 120.176439812 456.458530541 120.176439812 c 2
 468.537708 126.462906842 483.889972782 121.620646917 490.176439812 109.541469459 c 0
 496.727582379 96.9537292797 490.66318484 82.4734625928 480.238351195 76.1862407739 c 0
 476.555329064 74.2694548609 384.268480889 25 290 25 c 0
 166.765204661 25 75 129.709961197 75 250 c 0
 75 373.844147334 176.154890735 475 300 475 c 0
 423.844147334 475 525 373.845109265 525 250 c 0
 525 234.867462144 510.729904333 225 500 225 c 2
 126.675639105 225 l 1
126.792966065 275 m 1
 473.207033935 275 l 1
 461.006505701 358.636805286 388.108836648 425 300 425 c 0
 212.421982293 425 139.103928291 359.393850072 126.792966065 275 c 1
EndSplineSet
EndChar

StartChar: m
Encoding: 109 109 282
Width: 600
VWidth: 0
Flags: HW
LayerCount: 2
Back
SplineSet
100 450 m 29
 100 50 l 5
 100 50 100 172 100 250 c 31
 100 339 119 450 208 450 c 31
 294 450 300 336 300 250 c 31
 300 172 300 50 300 50 c 5
 300 50 300 172 300 250 c 31
 300 338 318 450 406 450 c 31
 492 450 500 336 500 250 c 31
 500 172 500 50 500 50 c 1029
EndSplineSet
Fore
SplineSet
275 50 m 1
 275 250 l 2
 275 274.271489054 274.491354031 300.376788324 271.927138108 324.78429136 c 0
 265.086746164 389.894598818 247.077267866 425 208 425 c 0
 147.045699777 425 125.000000731 343.587473384 125 250.000004656 c 2
 125 250 l 1
 125 50 l 2
 125 36.3828712355 113.617128764 25 100 25 c 0
 86.3828712355 25 75 36.3828712355 75 50 c 2
 75 250 l 1
 75 450 l 2
 75 463.617128764 86.3828712355 475 100 475 c 0
 113.617128764 475 125 463.617128764 125 450 c 2
 125 439.49772031 l 1
 144.454428529 461.134455852 171.242107026 475 208 475 c 0
 256.775136212 475 287.882043453 444.216130521 303.596574751 407.504625019 c 1
 323.240450386 446.090032947 356.313993689 475 406 475 c 0
 522.206327266 475 525 327.665840609 525 250 c 2
 525 50 l 2
 525 36.3828712355 513.617128764 25 500 25 c 0
 486.382871236 25 475 36.3828712355 475 50 c 2
 475 250 l 2
 475 344.334159391 461.793672734 425 406 425 c 0
 363.105262547 425 340.05077545 386.902341452 330.049270235 322.552019868 c 0
 326.373103292 298.89932761 325 273.625232149 325 250 c 2
 325 50 l 2
 325 49 275 50 275 50 c 1
EndSplineSet
EndChar

StartChar: w
Encoding: 119 119 283
Width: 600
VWidth: 0
Flags: HW
LayerCount: 2
Back
SplineSet
100 450 m 29
 100 450 100 324 100 244 c 31
 100 159 115 50 200 50 c 31
 287 50 300 134 300 249 c 5
 300 134 312.135742188 49 400 49 c 15
 487 49 500 163 500 250 c 31
 500 328 500 450 500 450 c 1053
EndSplineSet
Fore
SplineSet
325 247.032411436 m 1
 325 130.061077427 338.761828034 74 400 74 c 0
 457.568237734 74 475 156.246117185 475 250 c 2
 475 450 l 2
 475 463.617128764 486.382871236 475 500 475 c 0
 513.617128764 475 525 463.617128764 525 450 c 2
 525 250 l 2
 525 169.753882815 516.431762266 24 400 24 c 0
 352.43073171 24 318.207579144 47.0999688965 299.673059477 83.5701525601 c 1
 281.615554392 48.7898610812 247.377648227 25 200 25 c 0
 86.0824274422 25 75 164.831997383 75 244 c 2
 75 450 l 2
 75 463.617128764 86.3828712355 475 100 475 c 0
 113.617128764 475 125 463.617128764 125 450 c 2
 125 244 l 2
 125 153.168002617 143.917572558 75 200 75 c 0
 260.505736435 75 275 128.667680073 275 249 c 0
 275 250 325 247.032411436 325 247.032411436 c 1
EndSplineSet
EndChar

StartChar: j
Encoding: 106 106 284
Width: 200
VWidth: 0
Flags: HWO
LayerCount: 2
Back
SplineSet
75 600 m 4
 75 613.8 86.2 625 100 625 c 4
 113.8 625 125 613.8 125 600 c 4
 125 586.2 113.8 575 100 575 c 4
 86.2 575 75 586.2 75 600 c 4
-44 -46 m 29
 -44 -46 100 -45 100 50 c 7
 100 206 100 450 100 450 c 1053
EndSplineSet
Fore
SplineSet
50 600 m 0
 50 627.607956893 72.3909188785 650 100 650 c 0
 127.607956893 650 150 627.609081122 150 600 c 0
 150 572.392043107 127.609081122 550 100 550 c 0
 72.392043107 550 50 572.390918878 50 600 c 0
-68.9991073772 -46.2112589458 m 0
 -69.1141769879 -32.5946163797 -57.8279015119 -21.1159622335 -44.2112589458 -21.0008926228 c 0
 -34.0387509701 -20.914928221 75 -13.4358744153 75 50 c 2
 75 450 l 2
 75 463.617128764 86.3828712355 475 100 475 c 0
 113.617128764 475 125 463.617128764 125 450 c 2
 125 50 l 2
 125 -75.3931338668 -44.5742983924 -71.0057503362 -44.5742983924 -71.0057503362 c 1
 -56.730346102 -70.3440350747 -68.8791930527 -60.401195676 -68.9991073772 -46.2112589458 c 0
EndSplineSet
EndChar
